<svg width="300" height="300" version="1.1" viewBox="0 0 79.375 79.375" xmlns="http://www.w3.org/2000/svg"><path d="m46.315 47.605v24.66q0 1.5887-0.58139 2.2104-0.5168 0.6217-2.0026 0.6217h-9.1732q-1.4857 0-2.0671-0.6217-0.5168-0.6217-0.5168-2.2104v-24.66h-22.997q-1.4857 0-2.0671-0.6217-0.58139-0.6217-0.58139-2.2796v-9.0493q0-1.6579 0.58139-2.2796 0.58139-0.6217 2.0671-0.6217h22.997v-25.007q0-1.5887 0.5168-2.2104 0.58139-0.6217 2.0671-0.6217h9.1732q1.4857 0 2.0026 0.6217 0.58139 0.6217 0.58139 2.2104v25.007h23.386q1.5504 0 2.1318 0.6217 0.58139 0.6217 0.58139 2.2796v9.0493q0 1.6579-0.58139 2.2796-0.58139 0.6217-2.1318 0.6217z" stroke-width="5.1304"/></svg>
