<svg version="1.1" viewBox="0 0 250 250" xml:space="preserve" xmlns="http://www.w3.org/2000/svg"><path d="m125 57.5c-37.22 0-67.5 30.28-67.5 67.5s30.28 67.5 67.5 67.5 67.5-30.28 67.5-67.5-30.28-67.5-67.5-67.5zm0 120c-28.948 0-52.5-23.551-52.5-52.5s23.552-52.5 52.5-52.5 52.5 23.551 52.5 52.5-23.552 52.5-52.5 52.5z"/><path d="m226.47 187.58-8.555-8.555c4.882-8.357 8.574-17.24 11.025-26.524h12.06c4.143 0 7.5-3.358 7.5-7.5v-40c0-4.142-3.357-7.5-7.5-7.5h-12.06c-2.451-9.285-6.144-18.167-11.025-26.524l8.555-8.555c2.929-2.929 2.929-7.678 0-10.606l-28.284-28.284c-2.93-2.929-7.678-2.929-10.607 0l-8.554 8.554c-8.356-4.881-17.239-8.573-26.524-11.025v-12.06c0-4.142-3.357-7.5-7.5-7.5h-40c-4.143 0-7.5 3.358-7.5 7.5v12.06c-9.285 2.452-18.168 6.144-26.525 11.025l-8.554-8.554c-1.407-1.407-3.314-2.197-5.304-2.197s-3.896 0.79-5.304 2.197l-28.284 28.283c-2.929 2.929-2.929 7.678 0 10.606l8.555 8.555c-4.882 8.356-8.574 17.239-11.025 26.524h-12.06c-4.143 0-7.5 3.358-7.5 7.5v40c0 4.142 3.357 7.5 7.5 7.5h12.06c2.451 9.285 6.144 18.168 11.025 26.524l-8.555 8.555c-2.929 2.929-2.929 7.678 0 10.606l28.283 28.284c1.407 1.407 3.314 2.197 5.304 2.197s3.896-0.79 5.304-2.197l8.554-8.554c8.357 4.881 17.24 8.573 26.525 11.025v12.06c0 4.142 3.357 7.5 7.5 7.5h40c4.143 0 7.5-3.358 7.5-7.5v-12.06c9.285-2.452 18.168-6.144 26.524-11.025l8.554 8.554c2.93 2.929 7.678 2.929 10.607 0l28.284-28.284c2.929-2.927 2.929-7.676 1e-3 -10.605zm-10.829-44.071c-2.349 11.573-6.888 22.497-13.491 32.469-1.97 2.974-1.572 6.923 0.949 9.444l7.461 7.46-17.678 17.678-7.46-7.46c-2.524-2.522-6.472-2.918-9.444-0.95-9.972 6.603-20.896 11.143-32.47 13.492-3.496 0.71-6.008 3.783-6.008 7.35v10.508h-25v-10.508c0-3.567-2.513-6.641-6.008-7.35-11.574-2.35-22.499-6.889-32.471-13.492-2.973-1.968-6.922-1.572-9.444 0.95l-7.46 7.46-17.677-17.677 7.461-7.46c2.521-2.521 2.919-6.471 0.949-9.444-6.603-9.971-11.143-20.896-13.493-32.47-0.709-3.495-3.783-6.007-7.35-6.007h-10.507v-25h10.508c3.566 0 6.641-2.512 7.35-6.007 2.351-11.574 6.891-22.499 13.493-32.47 1.97-2.974 1.572-6.923-0.949-9.444l-7.461-7.46 17.677-17.677 7.46 7.46c2.522 2.522 6.472 2.918 9.444 0.95 9.972-6.603 20.896-11.143 32.471-13.492 3.495-0.709 6.008-3.783 6.008-7.35v-10.511h25v10.508c0 3.567 2.512 6.64 6.008 7.35 11.574 2.35 22.498 6.889 32.47 13.492 2.973 1.968 6.922 1.572 9.444-0.95l7.46-7.46 17.678 17.678-7.461 7.46c-2.521 2.521-2.919 6.471-0.949 9.444 6.604 9.972 11.143 20.896 13.491 32.469 0.71 3.496 3.783 6.008 7.351 6.008h10.507v25h-10.509c-3.567 1e-3 -6.64 2.513-7.35 6.009z"/><path d="m125 89.5c-19.575 0-35.5 15.925-35.5 35.5s15.925 35.5 35.5 35.5 35.5-15.925 35.5-35.5-15.925-35.5-35.5-35.5zm0 56c-11.304 0-20.5-9.196-20.5-20.5s9.196-20.5 20.5-20.5 20.5 9.196 20.5 20.5-9.196 20.5-20.5 20.5z"/></svg>
