<svg width="548.03" height="548.03" version="1.1" viewBox="0 0 145 145" xmlns="http://www.w3.org/2000/svg"><path d="m22.334 103.21c-1.0599-0.57033-1.007 1.0691-1.0147-31.426-0.0077-32.885-0.07162-31.03 1.087-31.543 0.31304-0.13847 1.4871-0.2319 2.9142-0.2319h2.3899v-2.2231c0-2.5007 0.17678-3.0698 1.0774-3.4686 0.70943-0.31413 25.783-3.2137 29.214-3.3783 4.3718-0.20976 10.074 0.86034 13.746 2.5794 0.72334 0.33868 0.77622 0.33868 1.4995 0 3.6736-1.72 9.3789-2.7901 13.746-2.5781 3.4576 0.16784 28.508 3.063 29.214 3.3765 0.90071 0.39962 1.0774 0.96861 1.0774 3.4691v2.2231h2.3899c1.427 0 2.6011 0.09343 2.9142 0.2319 1.1583 0.51234 1.0941-1.3364 1.0941 31.504 0 32.84 0.0642 30.991-1.0941 31.504-0.81179 0.35907-99.588 0.32067-100.26-0.0389zm97.551-31.465v-28.048h-2.5992l-3e-3 25.281c-3e-3 19.833-0.0568 25.385-0.25281 25.761-0.60965 1.1696 0.0324 1.1925-15.361-0.54688-8.4027-0.94953-14.84-1.5884-15.975-1.5853-3.6516 0.01002-7.5597 0.84016-10.967 2.3295-0.98014 0.42845-1.9833 0.77901-2.2292 0.77901-0.24587 0-1.2489-0.35056-2.2292-0.77901-3.4072-1.4894-7.3154-2.3195-10.967-2.3295-1.1339-0.0035-7.5719 0.63578-15.975 1.5853-15.393 1.7394-14.751 1.7165-15.361 0.54688-0.19601-0.37606-0.2505-5.9285-0.25281-25.761l-0.0029-25.281h-2.5989v56.095h94.776zm-76.02 18.723c6.5664-0.75141 12.748-1.4177 13.738-1.4808 3.3276-0.21183 8.283 0.49154 11.778 1.6718 0.64952 0.21935 1.2119 0.39882 1.2497 0.39882s0.06867-12.139 0.06867-26.976v-26.976l-0.74978-0.36975c-0.94038-0.46376-3.7095-1.3164-5.5483-1.7086-0.76976-0.16412-2.7042-0.34109-4.2987-0.39326-2.6751-0.08752-3.8342 0.01166-14.995 1.283-6.653 0.75784-12.433 1.4285-12.846 1.4904l-0.74977 0.11254v27.157c0 18.641 0.06509 27.157 0.20756 27.157 0.11417 0 5.58-0.61479 12.146-1.3662zm-8.8947-10.818c-0.94572-0.72144-0.9201-2.266 0.04768-2.8816 0.55363-0.35216 18.417-2.4807 22.803-2.7172 4.0264-0.21701 9.4874 0.64239 10.277 1.6174 0.80049 0.98796 0.26371 2.6021-0.95043 2.8581-0.30107 0.06347-1.3572-0.06442-2.3469-0.2842-1.1397-0.2531-2.8623-0.439-4.6986-0.50704-2.6826-0.09943-3.668-0.01908-13.196 1.0758-5.6634 0.65078-10.567 1.1811-10.896 1.1786-0.3299-0.0026-0.79764-0.1555-1.0394-0.33995zm0.20264-8.2337c-0.65503-0.30736-1.0568-1.2469-0.84287-1.9711 0.3883-1.3144 0.058-1.2386 10.808-2.4825 5.4264-0.62794 11.08-1.1968 12.565-1.2639 4.446-0.20136 9.4429 0.56016 10.343 1.5763 0.52552 0.5931 0.59575 1.566 0.15696 2.1742-0.52039 0.72127-1.232 0.81895-3.1022 0.4258-1.0353-0.21762-2.9888-0.40282-4.9985-0.47384-3.1717-0.1121-3.6941-0.07098-13.537 1.0649-5.631 0.64982-10.399 1.1756-10.597 1.1683-0.19733-0.0069-0.55537-0.10539-0.79566-0.21814zm0.23694-8.2986c-1.5979-0.6349-1.4585-2.986 0.20096-3.3903 0.25462-0.062 5.0952-0.63718 10.757-1.2781 12.63-1.4297 14.719-1.4793 19.495-0.46207 1.9008 0.4049 2.6376 0.97492 2.6376 2.0403 0 0.55658-0.13509 0.8991-0.49076 1.2444-0.5817 0.56472-1.3962 0.61086-3.2582 0.18464-1.8571-0.42508-5.8726-0.66141-8.0475-0.47364-1.0447 0.09019-6.152 0.6487-11.35 1.2411-5.1976 0.59243-9.4714 1.0716-9.4972 1.0648-0.02588-0.0069-0.22698-0.08376-0.44692-0.17119zm0.10409-8.3799c-0.87577-0.33853-1.2038-0.76707-1.2038-1.5727 0-0.96723 0.24346-1.4008 0.94207-1.6776 0.30661-0.12153 5.1461-0.74856 10.754-1.3934 12.691-1.4593 15.152-1.5166 20.013-0.46672 1.8597 0.40165 2.4808 0.88666 2.4808 1.9369 0 0.51832-0.15361 0.85223-0.58445 1.2705-0.66734 0.64786-1.1351 0.69403-2.9145 0.2877-2.0524-0.46868-5.2894-0.73282-7.2978-0.59553-1.5911 0.10878-19.208 2.0428-21.094 2.3158-0.32991 0.04775-0.82291 5.79e-4 -1.0956-0.10481zm-0.713-8.8002c-0.79136-0.76825-0.62326-2.3389 0.30174-2.8195 0.35734-0.18566 18.713-2.3378 22.332-2.6183 2.6327-0.20407 8.0359 0.39531 9.9233 1.1008 1.261 0.47127 1.5427 1.9307 0.55725 2.8874-0.7005 0.68004-0.88095 0.68733-3.4829 0.14084-3.523-0.73993-6.8752-0.61219-18.065 0.68844-5.19 0.60325-9.805 1.0968-10.256 1.0968-0.6037 0-0.94901-0.12554-1.3104-0.47643zm78.686 18.739v-27.157l-0.74978-0.11253c-0.41238-0.061914-6.1931-0.73258-12.846-1.4904-11.161-1.2714-12.32-1.3706-14.995-1.283-1.5945 0.05216-3.529 0.22914-4.2988 0.39326-1.8389 0.39208-4.608 1.2448-5.5483 1.7086l-0.74978 0.36975v26.976c0 14.837 0.02811 26.976 0.06244 26.976s0.86449-0.26318 1.8447-0.58486c3.3272-1.0918 5.7576-1.4433 9.7889-1.4156 3.1353 0.0215 5.0671 0.19935 14.995 1.3803 6.2681 0.74554 11.644 1.3648 11.947 1.376l0.54984 0.02055zm-14.796 14.203c-7.9382-0.95696-9.3175-1.0738-12.796-1.0839-3.3475-0.0098-4.1614 0.04905-5.7553 0.41557-1.0211 0.23478-2.0697 0.37493-2.3303 0.31143-1.3185-0.32126-1.8237-2.0029-0.87751-2.9214 0.98468-0.95592 6.2548-1.7647 10.16-1.5591 1.915 0.1008 19.404 2.0025 21.835 2.3743 1.6742 0.25604 2.3176 1.9015 1.1767 3.009-0.49363 0.47922-0.7344 0.56421-1.5495 0.547-0.5308-0.01123-4.9689-0.50303-9.8628-1.093zm-0.49985-8.426c-9.3353-1.0962-9.9571-1.1459-13.196-1.0538-2.3293 0.06623-3.9562 0.21717-5.1697 0.47969-1.8601 0.40241-2.3738 0.35064-2.9497-0.29728-0.89733-1.0095-0.4893-2.3791 0.85118-2.8573 1.9866-0.70871 4.3607-0.99426 8.1679-0.98234 3.2001 0.01002 4.9796 0.16009 13.196 1.1129 5.2234 0.60575 9.8316 1.1917 10.24 1.302 1.4375 0.38846 1.8346 1.8904 0.77239 2.9216-0.45542 0.44212-0.75336 0.56269-1.3496 0.54612-0.42084-0.01166-5.1739-0.53894-10.562-1.1716zm0.39988-8.344c-10.738-1.2803-14.106-1.4454-17.295-0.84821-2.8386 0.53156-3.5366 0.57027-4.0776 0.22616-0.73059-0.46472-1.0234-1.5079-0.63031-2.2458 0.40965-0.76905 0.62398-0.86594 3.1084-1.4056 1.845-0.40074 2.596-0.45451 6.1981-0.44371 3.7014 0.01105 5.01 0.11918 13.496 1.1149 5.1684 0.60643 9.644 1.1535 9.9446 1.2158 1.0729 0.22182 1.69 1.6309 1.1462 2.6174-0.25956 0.47083-1.2309 0.96697-1.8336 0.93658-0.25288-0.01278-4.7785-0.5381-10.057-1.1675zm0.29991-8.3307c-13.56-1.5754-13.837-1.583-19.63-0.54329-1.6361 0.29362-2.2503 0.08618-2.6766-0.90419-0.59668-1.3864 0.11082-2.2159 2.3028-2.6999 4.7928-1.0582 7.2933-1.0007 20.004 0.46015 5.6634 0.6509 10.452 1.2302 10.642 1.2873 0.91965 0.27722 1.4373 1.7293 0.93887 2.6335-0.19794 0.35905-1.3566 0.9744-1.727 0.91715-0.086-0.0133-4.5201-0.53114-9.8539-1.1508zm-0.49986-8.4671c-10.813-1.2947-14.358-1.4261-18.041-0.66893-2.6367 0.54202-3.3021 0.4204-3.7804-0.69087-0.33164-0.77054-0.19844-1.4318 0.39799-1.9757 0.94296-0.85996 7.1507-1.733 10.52-1.4796 0.93851 0.07064 6.247 0.64165 11.797 1.2689 8.3635 0.94538 10.177 1.2032 10.597 1.5067 0.96662 0.69848 1.0428 1.9549 0.16666 2.7474-0.62186 0.56244-1.4836 0.5101-11.656-0.70797z" fill="none" stroke="#2a9900" stroke-width="1.3913"/><path d="m142.98 72.5a70.477 70.477 0 0 1-70.477 70.477 70.477 70.477 0 0 1-70.477-70.477 70.477 70.477 0 0 1 70.477-70.477 70.477 70.477 0 0 1 70.477 70.477z" fill="none" opacity=".99" stroke="#2a9900" stroke-linecap="round" stroke-width="4.0461"/></svg>
