<svg width="548.03" height="548.03" version="1.1" viewBox="0 0 145 145" xmlns="http://www.w3.org/2000/svg"><path d="m22.334 103.21c-1.0599-0.57033-1.007 1.0691-1.0147-31.426-0.0077-32.885-0.07162-31.03 1.087-31.543 0.31304-0.13847 1.4871-0.2319 2.9142-0.2319h2.3899v-2.2231c0-2.5007 0.17678-3.0698 1.0774-3.4686 0.70943-0.31413 25.783-3.2137 29.214-3.3783 4.3718-0.20976 10.074 0.86034 13.746 2.5794 0.72334 0.33868 0.77622 0.33868 1.4995 0 3.6736-1.72 9.3789-2.7901 13.746-2.5781 3.4576 0.16784 28.508 3.063 29.214 3.3765 0.90071 0.39962 1.0774 0.96861 1.0774 3.4691v2.2231h2.3899c1.427 0 2.6011 0.09343 2.9142 0.2319 1.1583 0.51234 1.0941-1.3364 1.0941 31.504 0 32.84 0.0642 30.991-1.0941 31.504-0.81179 0.35907-99.588 0.32067-100.26-0.0389zm97.551-31.465v-28.048h-2.5992l-3e-3 25.281c-3e-3 19.833-0.0568 25.385-0.25281 25.761-0.60965 1.1696 0.0324 1.1925-15.361-0.54688-8.4027-0.94953-14.84-1.5884-15.975-1.5853-3.6516 0.01002-7.5597 0.84016-10.967 2.3295-0.98014 0.42845-1.9833 0.77901-2.2292 0.77901-0.24587 0-1.2489-0.35056-2.2292-0.77901-3.4072-1.4894-7.3154-2.3195-10.967-2.3295-1.1339-0.0035-7.5719 0.63578-15.975 1.5853-15.393 1.7394-14.751 1.7165-15.361 0.54688-0.19601-0.37606-0.2505-5.9285-0.25281-25.761l-0.0029-25.281h-2.5989v56.095h94.776zm-76.02 18.723c6.5664-0.75141 12.748-1.4177 13.738-1.4808 3.3276-0.21183 8.283 0.49154 11.778 1.6718 0.64952 0.21935 1.2119 0.39882 1.2497 0.39882s0.06867-12.139 0.06867-26.976v-26.976l-0.74978-0.36975c-0.94038-0.46376-3.7095-1.3164-5.5483-1.7086-0.76976-0.16412-2.7042-0.34109-4.2987-0.39326-2.6751-0.08752-3.8342 0.01166-14.995 1.283-6.653 0.75784-12.433 1.4285-12.846 1.4904l-0.74977 0.11254v27.157c0 18.641 0.06509 27.157 0.20756 27.157 0.11417 0 5.58-0.61479 12.146-1.3662zm69.622-25.791v-27.157l-0.74978-0.11253c-0.41238-0.06191-6.1931-0.73258-12.846-1.4904-11.161-1.2714-12.32-1.3706-14.995-1.283-1.5945 0.05216-3.529 0.22914-4.2988 0.39326-1.8389 0.39208-4.608 1.2448-5.5483 1.7086l-0.74978 0.36975v26.976c0 14.837 0.02811 26.976 0.06244 26.976s0.86449-0.26318 1.8447-0.58486c3.3272-1.0918 5.7576-1.4433 9.7889-1.4156 3.1353 0.0215 5.0671 0.19935 14.995 1.3803 6.2681 0.74554 11.644 1.3648 11.947 1.376l0.54984 0.02055z" fill="none" stroke="#2a9900" stroke-width="1.3913"/><path d="m142.98 72.5a70.477 70.477 0 0 1-70.477 70.477 70.477 70.477 0 0 1-70.477-70.477 70.477 70.477 0 0 1 70.477-70.477 70.477 70.477 0 0 1 70.477 70.477z" fill="none" opacity=".99" stroke="#2a9900" stroke-linecap="round" stroke-width="4.0461"/></svg>
