<svg enable-background="new 0 0 330 330" version="1.1" viewBox="0 0 330 330" xml:space="preserve" xmlns="http://www.w3.org/2000/svg">
<path id="XMLID_2_" d="m325.61 304.39-63.479-63.479c38.57-29.035 63.522-64.92 65.247-67.437 3.501-5.11 3.501-11.846 0-16.956-2.925-4.269-72.659-104.54-162.37-104.54-25.872 0-50.075 8.345-71.499 20.313l-67.898-67.897c-5.857-5.858-15.355-5.858-21.213 0s-5.858 15.355 0 21.213l63.478 63.478c-38.573 29.035-63.522 64.921-65.247 67.438-3.5 5.109-3.5 11.845 0 16.955 2.925 4.268 72.65 104.55 162.38 104.55 25.868 0 50.069-8.345 71.493-20.314l67.897 67.898c2.93 2.928 6.768 4.392 10.607 4.392s7.678-1.464 10.606-4.394c5.859-5.857 5.859-15.354 1e-3 -21.212zm-160.6-222.42c60.26 0 113.41 60.338 131.26 83.022-9.673 12.294-29.705 35.629-55.609 54.439l-124.98-124.98c15.406-7.559 32.063-12.484 49.33-12.484zm0 166.05c-60.285 0-113.44-60.364-131.27-83.037 9.651-12.303 29.652-35.658 55.574-54.47l124.99 124.99c-15.41 7.578-32.058 12.517-49.291 12.517z"/>















</svg>
