<svg version="1.1" viewBox="0 0 286.22 531.43" xml:space="preserve" xmlns="http://www.w3.org/2000/svg">
<path d="m30.225 0-8.0645 4.373c-8.9587 4.8576-12.816 8.8447-17.926 18.529l-3.4492 6.5391-0.39257 46.398-0.39258 46.4h41.105v-81.92h204.8v450.56h-204.8v-81.92h-41.105l0.39258 46.4 0.39257 46.398 3.4492 6.5391c1.897 3.5956 4.8725 8.23 6.6133 10.299 3.4847 4.1413 14.448 10.566 20.578 12.061 2.1556 0.52541 53.743 0.86145 114.64 0.74804l110.72-0.20507 6.5371-3.4492c9.6846-5.1094 13.672-8.9671 18.529-17.926l4.373-8.0664v-472.32l-3.4492-6.5391c-5.1094-9.6846-8.9651-13.672-17.924-18.529l-8.0664-4.373h-113.28zm80.119 163.22c-2.1668-0.0842-4.3475 0.63802-6.5547 2.1641-4.6891 3.2421-97.806 89.295-100.95 93.291-3.4325 4.3636-3.4325 9.4781 0 13.842 3.1434 3.9961 96.26 90.049 100.95 93.291 5.0449 3.4881 9.945 2.7757 14.885-2.1641l4.3516-4.3516v-73.217h32.766c36.649 0 38.721-0.3994 45.066-8.7188 2.8044-3.6768 3.4473-5.8713 3.4473-11.76 0-6.0056-0.6274-8.0642-3.6875-12.076-6.1066-8.0061-8.2356-8.4043-44.91-8.4043h-32.682v-73.217l-4.3516-4.3516c-2.7786-2.7786-5.5442-4.2199-8.3301-4.3281z" stroke-width="1.28"/></svg>
