<?xml version="1.0" encoding="UTF-8"?>
<svg version="1.1" viewBox="0 0 286.22 531.43" xml:space="preserve" xmlns="http://www.w3.org/2000/svg" xmlns:cc="http://creativecommons.org/ns#" xmlns:dc="http://purl.org/dc/elements/1.1/" xmlns:rdf="http://www.w3.org/1999/02/22-rdf-syntax-ns#"><metadata><rdf:RDF><cc:Work rdf:about=""><dc:format>image/svg+xml</dc:format><dc:type rdf:resource="http://purl.org/dc/dcmitype/StillImage"/><dc:title/></cc:Work></rdf:RDF></metadata>
















<path d="m256 0 8.0645 4.373c8.9587 4.8576 12.816 8.8447 17.926 18.529l3.4492 6.5391 0.39257 46.398 0.39258 46.4h-41.105v-81.92h-204.8v450.56h204.8v-81.92h41.105l-0.39258 46.4-0.39257 46.398-3.4492 6.5391c-1.897 3.5956-4.8725 8.23-6.6133 10.299-3.4847 4.1413-14.448 10.566-20.578 12.061-2.1556 0.52541-53.743 0.86145-114.64 0.74804l-110.72-0.20507-6.5371-3.4492c-9.6846-5.1094-13.672-8.9671-18.529-17.926l-4.373-8.0664v-472.32l3.4492-6.5391c5.1094-9.6846 8.9651-13.672 17.924-18.529l8.0664-4.373h113.28zm-80.119 163.22c2.1668-0.0842 4.3475 0.63802 6.5547 2.1641 4.6891 3.2421 97.806 89.295 100.95 93.291 3.4325 4.3636 3.4325 9.4781 0 13.842-3.1434 3.9961-96.26 90.049-100.95 93.291-5.0449 3.4881-9.945 2.7757-14.885-2.1641l-4.3516-4.3516v-73.217h-32.766c-36.649 0-38.721-0.3994-45.066-8.7188-2.8044-3.6768-3.4473-5.8713-3.4473-11.76 0-6.0056 0.6274-8.0642 3.6875-12.076 6.1066-8.0061 8.2356-8.4043 44.91-8.4043h32.682v-73.217l4.3516-4.3516c2.7786-2.7786 5.5442-4.2199 8.3301-4.3281z" stroke-width="1.28"/></svg>
