<svg viewBox="0 0 30 20" xmlns="http://www.w3.org/2000/svg">
<path fill-rule="evenodd" clip-rule="evenodd" d="M0 1.70692C1.19209e-07 0.99276 0.578942 0.413818 1.2931 0.413818L28.7069 0.413821C29.4211 0.413821 30 0.992763 30 1.70692C30 2.42109 29.4211 3.00003 28.7069 3.00003L1.2931 3.00003C0.578942 3.00003 -1.19209e-07 2.42108 0 1.70692ZM0 9.98278C1.19209e-07 9.26862 0.578942 8.68968 1.2931 8.68968L28.7069 8.68968C29.4211 8.68968 30 9.26862 30 9.98279C30 10.6969 29.4211 11.2759 28.7069 11.2759L1.2931 11.2759C0.578942 11.2759 0 10.6969 0 9.98278ZM0 18.2586C1.19209e-07 17.5445 0.578942 16.9655 1.2931 16.9655L28.7069 16.9655C29.4211 16.9655 30 17.5445 30 18.2586C30 18.9728 29.4211 19.5518 28.7069 19.5518L1.2931 19.5518C0.578942 19.5518 0 18.9728 0 18.2586Z"></path>
</svg>