<svg width="1005.9" height="1005.9" version="1.1" viewBox="0 0 266.14 266.14" xmlns="http://www.w3.org/2000/svg"><g transform="translate(28.071 -15.429)"><path d="m16.519 225.82-0.68414-0.68415 0.06778-62.872 0.06778-62.872 0.60176-0.48726c0.33097-0.268 4.8256-1.8933 9.988-3.6118l9.3863-3.1246c46.585-15.11 35.121-10.919 64.725-21.576 47.38 15.521 55.912 18.131 76.695 25.781l16.797 5.3148 2e-3 62.272c2e-3 52.33-0.0553 62.25-0.35703 62.134-0.19749-0.0758-9.3548-3.0039-20.349-6.5069-36.099-11.502-56.588-18.034-62.689-19.988l-6.0066-1.9234-12.779 4.3306c-25.961 8.7978-72.519 24.189-73.632 24.342-0.99724 0.13669-1.2398 0.067-1.8334-0.52661zm44.497-18.194 40.018-13.333v-59.466c0-32.706-0.0893-59.466-0.19843-59.466-0.10914 0-18.266 6.0226-40.349 13.384l-40.151 13.384v59.538c0 47.519 0.06677 59.513 0.33073 59.416 0.1819-0.067 18.339-6.1218 40.349-13.455zm-27.715-18.757c0-0.0892 0.43003-0.57242 0.95562-1.0739 1.7198-1.6409 8.8589-10.093 11.609-13.744 3.8939-5.1698 9.8393-13.524 12.995-18.261 2.0579-3.0884 3.9826-6.5779 7.7702-14.087 2.7691-5.49 5.0348-10.115 5.0348-10.278 0-0.39449-1.2714-0.1441-4.7603 0.93749-7.8974 2.4483-10.991 3.374-13.767 4.1193-1.677 0.4503-3.2154 0.92157-3.4188 1.0473s-0.43865 0.74466-0.52284 1.3755c-0.14537 1.0893-0.23197 1.1864-1.7217 1.9306-1.3201 0.6594-1.9612 0.80076-4.0452 0.8919-2.9969 0.13108-4.3686-0.29893-5.7179-1.7925-0.80666-0.89288-1.5443-2.9701-1.183-3.3314 0.058-0.058 1.2599-0.29123 2.6708-0.51827 2.9643-0.477 10.323-2.5997 17.067-4.9228 2.576-0.88744 6.41-2.1858 8.52-2.8853 2.3365-0.77454 5.1657-1.9677 7.2365-3.0519 3.86-2.021 9.187-4.163 9.5277-3.8311 0.12522 0.12199 0.14284 1.0665 0.03916 2.0989-0.17066 1.6993-0.50804 2.5223-3.5619 8.6888-3.5544 7.1772-5.9379 11.471-9.6588 17.401-1.2428 1.9806-2.2567 3.6825-2.253 3.782 0.0072 0.19573 3.4042 1.6822 15.736 6.8858 4.3656 1.8421 8.073 3.4374 8.2385 3.545 0.33701 0.21909 1.3432 3.7994 1.4693 5.2283 0.07902 0.89517 0.0533 0.92383-0.77154 0.85979-0.46931-0.0364-1.7541-0.4241-2.8551-0.86146-5.9016-2.3444-12.242-6.0428-18.027-10.516-2.4938-1.9282-4.6619-3.5057-4.8178-3.5057-0.15596 0-0.40873 0.23388-0.5617 0.51972-0.51222 0.95709-5.1033 7.5156-7.5079 10.725-6.9067 9.2189-15.54 19.105-18.747 21.469-1.0267 0.75661-1.575 0.95369-3.1089 1.1176-1.0243 0.10944-1.8623 0.12603-1.8623 0.0369zm19.065-66.692c-2.6115-1.1847-4.4925-3.5158-5.1998-6.444-0.16574-0.68617-0.1309-0.74769 0.31636-0.55854 0.27644 0.1169 1.5147 0.2645 2.7516 0.32798 2.1103 0.10831 2.562 0.0253 7.3255-1.3459 8.4341-2.4278 9.3225-2.501 10.022-0.82654 1.1185 2.6771-0.44458 5.3194-4.3656 7.3799-3.6581 1.9223-8.4257 2.5669-10.85 1.467zm123.56 64.243c-0.25979-0.90951-4.974-17.906-10.476-37.769-5.502-19.864-10.079-36.205-10.172-36.314-0.28959-0.34201-11.493-3.6385-11.672-3.4346-0.46203 0.52468-25.111 61.552-24.928 61.72 0.20902 0.19269 10.331 3.3069 11.293 3.4747 0.42101 0.0734 0.90317-0.88192 3.0943-6.1308 2.1418-5.1308 2.679-6.2025 3.0732-6.1309 1.348 0.24505 23.538 7.0569 23.783 7.3008 0.15746 0.1569 1.2149 3.6952 2.3498 7.8628l2.0635 7.5775 4.5294 1.367c2.4911 0.75185 5.0056 1.5295 5.5877 1.7282 1.9717 0.6729 2.0139 0.63711 1.4747-1.2507zm-27.999-34.027c-4.111-1.2576-7.4745-2.3761-7.4745-2.4854 0-0.34165 8.2398-20.161 8.4921-20.426 0.14816-0.15573 0.23914-0.10759 0.23914 0.12654 0 0.20784 1.5478 5.869 3.4396 12.58 1.8918 6.7113 3.4396 12.28 3.4396 12.375 0 0.29954-0.4938 0.16783-8.1359-2.1701zm-4.8098-67.505c16.589 5.2953 29.307 10.016 29.416 10.029-39.856-12.516-90.82-29.307-29.416-10.029z" fill="#f00" fill-opacity=".66019" stroke-width=".26458"/><g transform="matrix(1.8355 0 0 1.8355 -534.99 128.73)" fill="none" stroke="#f00"><path d="m419.16 10.772a70.477 70.477 0 0 1-70.477 70.477 70.477 70.477 0 0 1-70.477-70.477 70.477 70.477 0 0 1 70.477-70.477 70.477 70.477 0 0 1 70.477 70.477z" opacity=".99" stroke-linecap="round" stroke-width="4.0461"/><path d="m298.87-39.158 99.869 99.869" stroke-width="4"/></g></g></svg>
