<svg width="548.03" height="548.03" version="1.1" viewBox="0 0 145 145" xmlns="http://www.w3.org/2000/svg"><g transform="translate(-73.354 -118.39)" fill="none" stroke="#f00"><path d="m89.456 227.29c-1.1916-0.66047-1.1321 1.2381-1.1407-36.393-0.0087-38.082-0.08052-35.934 1.222-36.528 0.35193-0.16036 1.6718-0.26855 3.2762-0.26855h2.6868v-2.5744c0-2.8959 0.19874-3.555 1.2112-4.0168 0.79756-0.36378 28.986-3.7216 32.843-3.9122 4.9149-0.24291 11.326 0.99631 15.454 2.9871 0.8132 0.39221 0.87265 0.39221 1.6858 0 4.13-1.9919 10.544-3.2311 15.454-2.9856 3.8871 0.19437 32.049 3.5471 32.843 3.9101 1.0126 0.46278 1.2112 1.1217 1.2112 4.0174v2.5744h2.6868c1.6043 0 2.9242 0.10819 3.2762 0.26855 1.3022 0.59331 1.23-1.5476 1.23 36.483s0.0722 35.889-1.23 36.483c-0.91263 0.41582-111.96 0.37134-112.71-0.0451zm109.67-36.438v-32.481h-2.9221l-3e-3 29.277c-3e-3 22.967-0.0639 29.397-0.28422 29.833-0.68538 1.3545 0.0364 1.381-17.269-0.63332-9.4465-1.0996-16.684-1.8394-17.959-1.8358-4.1052 0.0116-8.4988 0.97294-12.329 2.6977-1.1019 0.49617-2.2297 0.90213-2.5061 0.90213-0.27641 0-1.4041-0.40596-2.5061-0.90213-3.8305-1.7248-8.2242-2.6861-12.329-2.6977-1.2748-4e-3 -8.5125 0.73627-17.959 1.8358-17.305 2.0143-16.583 1.9878-17.269 0.63332-0.22036-0.4355-0.28162-6.8655-0.28422-29.833l-0.0033-29.277h-2.9221v64.961h106.55zm-85.464 21.682c7.3821-0.87017 14.332-1.6418 15.445-1.7148 3.741-0.24531 9.312 0.56923 13.241 1.936 0.73021 0.25402 1.3624 0.46185 1.4049 0.46185 0.0425 0 0.0772-14.058 0.0772-31.24v-31.24l-0.84292-0.42819c-1.0572-0.53706-4.1703-1.5245-6.2376-1.9786-0.86539-0.19006-3.0401-0.395-4.8327-0.45541-3.0074-0.10135-4.3105 0.0135-16.858 1.4858-7.4795 0.87761-13.978 1.6543-14.442 1.726l-0.84291 0.13032v31.449c0 21.587 0.07318 31.449 0.23335 31.449 0.12835 0 6.2732-0.71196 13.655-1.5821zm-9.9997-12.528c-1.0632-0.83546-1.0344-2.6241 0.0536-3.337 0.62241-0.40782 20.705-2.8728 25.636-3.1466 4.5266-0.25131 10.666 0.74392 11.554 1.873 0.89993 1.1441 0.29647 3.0134-1.0685 3.3098-0.33847 0.0735-1.5258-0.0746-2.6384-0.32912-1.2813-0.2931-3.2179-0.50838-5.2823-0.58718-3.0159-0.11514-4.1237-0.0221-14.835 1.2458-6.3669 0.75363-11.88 1.3678-12.25 1.3649-0.37088-3e-3 -0.89673-0.18008-1.1685-0.39368zm0.22782-9.535c-0.7364-0.35594-1.1881-1.444-0.94758-2.2826 0.43654-1.5221 0.0652-1.4343 12.151-2.8749 6.1005-0.72719 12.457-1.3859 14.126-1.4637 4.9983-0.23318 10.616 0.64869 11.628 1.8254 0.5908 0.68684 0.66976 1.8135 0.17646 2.5178-0.58504 0.83527-1.385 0.94838-3.4876 0.4931-1.1639-0.25202-3.3601-0.46648-5.6195-0.54873-3.5657-0.12982-4.153-0.0822-15.219 1.2332-6.3305 0.75252-11.691 1.3614-11.913 1.353-0.22184-8e-3 -0.62436-0.12205-0.8945-0.25262zm0.26638-9.6102c-1.7964-0.73524-1.6397-3.4579 0.22592-3.9261 0.28625-0.0718 5.7282-0.73788 12.093-1.4801 14.199-1.6557 16.548-1.7131 21.917-0.5351 2.1369 0.4689 2.9653 1.129 2.9653 2.3628 0 0.64454-0.15187 1.0412-0.55173 1.4411-0.65396 0.65397-1.5696 0.70741-3.663 0.21382-2.0878-0.49226-6.6021-0.76594-9.0472-0.5485-1.1745 0.10444-6.9162 0.75122-12.76 1.4373-5.8433 0.68606-10.648 1.241-10.677 1.2331-0.0291-8e-3 -0.25518-0.097-0.50244-0.19825zm0.11702-9.7043c-0.98456-0.39203-1.3533-0.8883-1.3533-1.8213 0-1.1201 0.27371-1.6222 1.0591-1.9428 0.3447-0.14074 5.7854-0.86687 12.09-1.6136 14.268-1.6899 17.034-1.7563 22.499-0.54048 2.0907 0.46513 2.789 1.0268 2.789 2.243 0 0.60024-0.17269 0.98692-0.65705 1.4713-0.75024 0.75025-1.2761 0.80372-3.2766 0.33317-2.3074-0.54275-5.9465-0.84864-8.2044-0.68965-1.7888 0.12597-21.594 2.3657-23.714 2.6818-0.37089 0.0553-0.92514 6.7e-4 -1.2317-0.12138zm-0.80157-10.191c-0.88967-0.88967-0.70069-2.7086 0.33923-3.2651 0.40173-0.215 21.038-2.7073 25.106-3.0321 2.9597-0.23632 9.0342 0.45779 11.156 1.2748 1.4176 0.54575 1.7343 2.2359 0.62648 3.3437-0.78752 0.78752-0.99039 0.79596-3.9156 0.1631-3.9607-0.85688-7.7293-0.70895-20.309 0.79724-5.8347 0.69859-11.023 1.2702-11.53 1.2702-0.6787 0-1.0669-0.14538-1.4732-0.55173zm88.461 21.701v-31.449l-0.84292-0.13032c-0.46361-0.0717-6.9625-0.84836-14.442-1.726-12.548-1.4723-13.851-1.5872-16.858-1.4858-1.7926 0.0604-3.9674 0.26535-4.8328 0.45541-2.0673 0.45405-5.1804 1.4415-6.2376 1.9786l-0.84292 0.42819v31.24c0 17.182 0.0316 31.24 0.0702 31.24s0.97188-0.30478 2.0739-0.67729c3.7405-1.2644 6.4729-1.6714 11.005-1.6393 3.5248 0.0249 5.6966 0.23086 16.858 1.5984 7.0468 0.86337 13.091 1.5805 13.431 1.5935l0.61814 0.0238zm-16.634 16.448c-8.9244-1.1082-10.475-1.2435-14.386-1.2552-3.7633-0.0113-4.6784 0.0568-6.4703 0.48125-1.1479 0.27189-2.3268 0.43419-2.6198 0.36065-1.4823-0.37204-2.0502-2.3194-0.98652-3.3831 1.107-1.107 7.0318-2.0436 11.422-1.8055 2.1529 0.11673 21.815 2.319 24.548 2.7496 1.8822 0.29651 2.6055 2.202 1.3229 3.4846-0.55496 0.55496-0.82563 0.65338-1.742 0.63345-0.59674-0.013-5.5862-0.58253-11.088-1.2657zm-0.56195-9.7577c-10.495-1.2694-11.194-1.327-14.835-1.2204-2.6187 0.0767-4.4477 0.25149-5.8119 0.5555-2.0912 0.46601-2.6687 0.40606-3.3161-0.34426-1.0088-1.1691-0.55009-2.7551 0.95692-3.3089 2.2334-0.82072 4.9024-1.1514 9.1826-1.1376 3.5976 0.0116 5.5982 0.18539 14.835 1.2888 5.8723 0.70149 11.053 1.38 11.512 1.5078 1.6161 0.44986 2.0625 2.1892 0.86834 3.3834-0.512 0.512-0.84695 0.65162-1.5173 0.63243-0.47311-0.0135-5.8166-0.62412-11.874-1.3568zm0.44956-9.6628c-12.072-1.4827-15.858-1.6739-19.443-0.98227-3.1912 0.61557-3.976 0.6604-4.5842 0.2619-0.82135-0.53817-1.1505-1.7462-0.70861-2.6007 0.46054-0.8906 0.70149-1.0028 3.4946-1.6278 2.0742-0.46407 2.9185-0.52634 6.9681-0.51384 4.1612 0.0128 5.6324 0.13802 15.173 1.2911 5.8105 0.70227 10.842 1.3358 11.18 1.4079 1.2062 0.25688 1.8999 1.8887 1.2886 3.0311-0.2918 0.54524-1.3838 1.1198-2.0614 1.0846-0.2843-0.0148-5.3721-0.62315-11.306-1.352zm0.33717-9.6473c-15.244-1.8244-15.556-1.8332-22.069-0.62916-1.8394 0.34003-2.5299 0.0998-3.0091-1.0471-0.67081-1.6055 0.12459-2.5661 2.5889-3.1266 5.3882-1.2255 8.1993-1.1589 22.489 0.53288 6.3669 0.75377 11.75 1.4246 11.964 1.4908 1.0339 0.32104 1.6159 2.0026 1.0555 3.0497-0.22253 0.4158-1.5251 1.1284-1.9415 1.0621-0.0967-0.0154-5.0816-0.61509-11.078-1.3327zm-0.56195-9.8053c-12.156-1.4993-16.142-1.6515-20.282-0.77465-2.9642 0.62769-3.7123 0.48685-4.25-0.80006-0.37284-0.89232-0.22309-1.6581 0.44743-2.288 1.0601-0.99588 8.039-2.0069 11.827-1.7134 1.0551 0.0818 7.023 0.74306 13.262 1.4695 9.4025 1.0948 11.441 1.3934 11.913 1.7448 1.0867 0.80887 1.1724 2.2639 0.18736 3.1816-0.69911 0.65133-1.6679 0.59072-13.104-0.81986z" stroke-width="1.5875"/><path d="m216.33 190.89a70.477 70.477 0 0 1-70.477 70.477 70.477 70.477 0 0 1-70.477-70.477 70.477 70.477 0 0 1 70.477-70.477 70.477 70.477 0 0 1 70.477 70.477z" opacity=".99" stroke-linecap="round" stroke-width="4.0461"/><path d="m96.043 140.96 99.869 99.869" stroke-width="4"/></g></svg>
