<svg width="185.71mm" height="120.25mm" version="1.1" viewBox="0 0 185.71 120.25" xmlns="http://www.w3.org/2000/svg"><g transform="translate(-7.2449 -18.171)"><g transform="translate(-173.77 12.554)"><path d="m222.51 67.157c0-18.037 0.0761-18.731 2.0572-18.731 1.3715 0 2.0572-0.69374 2.0572-2.0812 0-1.3875 0.68574-2.0812 2.0572-2.0812s2.0572-0.69372 2.0572-2.0812 0.68574-2.0812 2.0572-2.0812c1.3715 0 2.0572-0.69374 2.0572-2.0812 0-2.0234 0.68574-2.0812 24.687-2.0812h24.687v18.731c0 18.037-0.0761 18.731-2.0572 18.731-1.3715 0-2.0572 0.69374-2.0572 2.0812 0 1.3875-0.68574 2.0812-2.0572 2.0812-1.3715 0-2.0572 0.69374-2.0572 2.0812 0 1.3875-0.68574 2.0812-2.0572 2.0812s-2.0572 0.69373-2.0572 2.0812c0 2.0234-0.68575 2.0812-24.687 2.0812h-24.687zm47.316 4.1624v-12.487h-45.259v24.974h45.259zm-31.476 6.868c-4.7454-4.8007-4.7454-8.9352 0-13.736 4.7454-4.8007 8.8323-4.8007 13.578 0 2.5201 2.5495 3.4973 4.4685 3.4973 6.868 0 2.3995-0.97719 4.3185-3.4973 6.868-4.7454 4.8007-8.8323 4.8007-13.578 0zm12.493-1.0974c5.1021-5.1616 1.4868-14.095-5.7041-14.095-4.2287 0-8.2289 4.0468-8.2289 8.3248 0 4.278 4.0002 8.3248 8.2289 8.3248 2.0041 0 4.1126-0.94415 5.7041-2.5542zm-9.8186-5.7706c0-2.8617 0.21905-5.203 0.48679-5.203 1.0917 0 9.7994 4.6234 9.7994 5.203 0 0.57963-8.7077 5.203-9.7994 5.203-0.26774 0-0.48679-2.3414-0.48679-5.203zm5.1431 1.0247c1.3715-0.91082 1.3715-1.1385 0-2.0493-2.3126-1.5358-3.0858-1.2791-3.0858 1.0247s0.7732 2.5605 3.0858 1.0247zm27.773-9.3495v-16.65h-22.63c-14.401 0-22.63 0.37841-22.63 1.0406 0 0.6607 7.886 1.0406 21.601 1.0406h21.601v15.609c0 9.7123 0.38859 15.609 1.0286 15.609 0.64288 0 1.0286-6.2436 1.0286-16.65zm4.1145-4.1624v-16.65h-22.63c-14.401 0-22.63 0.3784-22.63 1.0406 0 0.6607 7.886 1.0406 21.601 1.0406h21.601v15.609c0 9.7123 0.38859 15.609 1.0286 15.609 0.64289 0 1.0286-6.2436 1.0286-16.65zm4.1144-4.1624v-16.65h-22.63c-14.401 0-22.63 0.3784-22.63 1.0406 0 0.6607 7.886 1.0406 21.601 1.0406h21.601v15.609c0 9.7123 0.38859 15.609 1.0286 15.609 0.64288 0 1.0286-6.2436 1.0286-16.65zm-12.343-1.0406v-3.1218h-45.259v6.2436h45.259zm-43.202 0c0-0.57234 0.46288-1.0406 1.0286-1.0406 0.56573 0 1.0286 0.46826 1.0286 1.0406 0 0.57232-0.46288 1.0406-1.0286 1.0406-0.56574 0-1.0286-0.46827-1.0286-1.0406zm4.1145 0c0-0.57234 0.46288-1.0406 1.0286-1.0406 0.56574 0 1.0286 0.46826 1.0286 1.0406 0 0.57232-0.46288 1.0406-1.0286 1.0406-0.56573 0-1.0286-0.46827-1.0286-1.0406zm4.1144 0c0-0.57234 0.46288-1.0406 1.0286-1.0406 0.56573 0 1.0286 0.46826 1.0286 1.0406 0 0.57232-0.46288 1.0406-1.0286 1.0406-0.56574 0-1.0286-0.46827-1.0286-1.0406zm19.544-20.812c0-0.57232 0.46287-1.0406 1.0286-1.0406s1.0286 0.46827 1.0286 1.0406c0 0.57234-0.46287 1.0406-1.0286 1.0406s-1.0286-0.46827-1.0286-1.0406zm4.1144 0c0-0.57232 0.46287-1.0406 1.0286-1.0406 0.56573 0 1.0286 0.46827 1.0286 1.0406 0 0.57234-0.46288 1.0406-1.0286 1.0406-0.56575 0-1.0286-0.46827-1.0286-1.0406zm4.1145 
0c0-0.57232 0.46287-1.0406 1.0286-1.0406s1.0286 0.46827 1.0286 1.0406c0 0.57234-0.46288 1.0406-1.0286 1.0406s-1.0286-0.46827-1.0286-1.0406z" 
stroke="none" /><g transform="translate(-56.645 -21.204)" fill="none">
<path d="m392.95 128.25c-5.8509-19.319-5.5957-25.033-11.61-44.297-2.9336-9.3972-4.8811-18.384-10.411-28.207-4.0457-7.1876-9.1309-14.266-15.852-18.932-6.2003-4.3043-13.861-6.2907-21.268-7.4519-13.792-2.1621-28.098-1.3282-41.846 1.1077-11.198 1.984-22.51 5.1389-32.394 10.876-6.6165 3.8402-13.62 8.4584-17.231 15.307-2.9239 5.5446-3.2918 12.431-3.3764 18.73-0.11054 8.236 0.9611 16.746 3.4748 24.571 2.3965 7.4604 6.303 14.675 11.619 20.342 5.6411 6.0136 12.716 11.306 20.579 13.494 13.058 3.6336 27.193 0.3458 40.566-1.6112 10.6-1.5511 21.193-3.1578 31.803-4.6322 14.199-1.9731 28.457-3.5048 42.634-5.6393 11.157-1.6798 22.514-3.7612 33.379-6.8498" stroke-width="2.592"/><path d="m388.2 138.14c-5.2287-16.419-9.5591-37.658-14.8-54.07-2.6089-8.1693-4.8254-16.33-9.3036-23.973-3.6031-6.1497-8.16-12.124-14.167-16.09-5.5411-3.6582-12.387-5.3465-19.006-6.3333-12.326-1.8376-25.11-1.1288-37.397 0.94144-10.007 1.6862-20.116 4.3675-28.95 9.2432-5.913 3.2638-12.171 7.1888-15.399 13.009-2.613 4.7124-2.8358 10.565-2.9113 15.919-0.0988 6.9997 0.75281 14.232 2.9993 20.883 2.1417 6.3406 5.6328 12.472 10.383 17.288 5.0413 5.1109 11.364 9.609 18.39 11.468 11.669 3.0882 24.209-0.31053 36.253-1.3694 9.5306-0.83785 18.939-2.6838 28.422-3.9369 12.689-1.6769 25.431-2.9787 38.101-4.7928 9.9705-1.4276 20.12-3.1966 29.83-5.8216" stroke-width="2.5813"/><path d="m384.27 146.67c-4.5678-13.227-14.323-48.854-18.902-62.076-2.2791-6.5813-4.1337-13.231-8.1276-19.313-3.2451-4.9422-7.1286-9.7676-12.376-12.962-4.8406-2.9471-10.821-4.3072-16.604-5.1022-10.768-1.4804-21.936-0.90939-32.67 0.75844-8.7425 1.3584-17.574 3.5185-25.29 7.4465-5.1655 2.6294-10.633 5.7914-13.452 10.48-2.2827 3.7964-2.9738 8.5117-3.0398 12.825-0.0863 5.6391 1.1542 11.466 3.1167 16.824 1.8709 5.1081 4.9208 10.048 9.0707 13.928 4.4041 4.1174 9.9276 7.7412 16.066 9.2392 10.194 2.4879 21.149-0.25017 31.671-1.1032 8.3259-0.67499 16.545-2.1622 24.829-3.1717 11.086-1.351 22.217-2.3997 33.285-3.8612 21.064-2.7468 23.886-3.1846 28.748-5.123" stroke-width="2.491"/></g></g></g></svg>
