<svg width="185.71mm" height="120.25mm" version="1.1" viewBox="0 0 185.71 120.25" xmlns="http://www.w3.org/2000/svg">
<g transform="translate(-12.2 -88.209)"><g transform="translate(-225.46 61.388)" fill="none" >
<path d="m392.95 128.25c-5.8509-19.319-5.5957-25.033-11.61-44.297-2.9336-9.3972-4.8811-18.384-10.411-28.207-4.0457-7.1876-9.1309-14.266-15.852-18.932-6.2003-4.3043-13.861-6.2907-21.268-7.4519-13.792-2.1621-28.098-1.3282-41.846 1.1077-11.198 1.984-22.51 5.1389-32.394 10.876-6.6165 3.8402-13.62 8.4584-17.231 15.307-2.9239 5.5446-3.2918 12.431-3.3764 18.73-0.11054 8.236 0.9611 16.746 3.4748 24.571 2.3965 7.4604 6.303 14.675 11.619 20.342 5.6411 6.0136 12.716 11.306 20.579 13.494 13.058 3.6336 27.193 0.3458 40.566-1.6112 10.6-1.5511 21.193-3.1578 31.803-4.6322 14.199-1.9731 28.457-3.5048 42.634-5.6393 11.157-1.6798 22.514-3.7612 33.379-6.8498" stroke-width="2.592"/><path d="m388.2 138.14c-5.2287-16.419-9.5591-37.658-14.8-54.07-2.6089-8.1693-4.8254-16.33-9.3036-23.973-3.6031-6.1497-8.16-12.124-14.167-16.09-5.5411-3.6582-12.387-5.3465-19.006-6.3333-12.326-1.8376-25.11-1.1288-37.397 0.94144-10.007 1.6862-20.116 4.3675-28.95 9.2432-5.913 3.2638-12.171 7.1888-15.399 13.009-2.613 4.7124-2.8358 10.565-2.9113 15.919-0.0988 6.9997 0.75281 14.232 2.9993 20.883 2.1417 6.3406 5.6328 12.472 10.383 17.288 5.0413 5.1109 11.364 9.609 18.39 11.468 11.669 3.0882 24.209-0.31053 36.253-1.3694 9.5306-0.83785 18.939-2.6838 28.422-3.9369 12.689-1.6769 25.431-2.9787 38.101-4.7928 9.9705-1.4276 20.12-3.1966 29.83-5.8216" stroke-width="2.5813"/><path d="m384.27 146.67c-4.5678-13.227-14.323-48.854-18.902-62.076-2.2791-6.5813-4.1337-13.231-8.1276-19.313-3.2451-4.9422-7.1286-9.7676-12.376-12.962-4.8406-2.9471-10.821-4.3072-16.604-5.1022-10.768-1.4804-21.936-0.90939-32.67 0.75844-8.7425 1.3584-17.574 3.5185-25.29 7.4465-5.1655 2.6294-10.633 5.7914-13.452 10.48-2.2827 3.7964-2.9738 8.5117-3.0398 12.825-0.0863 5.6391 1.1542 11.466 3.1167 16.824 1.8709 5.1081 4.9208 10.048 9.0707 13.928 4.4041 4.1174 9.9276 7.7412 16.066 9.2392 10.194 2.4879 21.149-0.25017 31.671-1.1032 8.3259-0.67499 16.545-2.1622 24.829-3.1717 11.086-1.351 22.217-2.3997 33.285-3.8612 21.064-2.7468 23.886-3.1846 28.748-5.123" stroke-width="2.491"/></g><g transform="translate(-657.66 -54.894)" 
stroke="none" stroke-width="1.262"><path d="m723.59 198.75q0 0.50939-0.0164 1.0352-0.0164 0.50938-0.0493 1.0516l-0.83802 16.892-17.993-18.288-0.73942 15.676-6.6384 0.0493 1.9718-5.3239 3.1878-0.16432 1.3803-22.988 15.824 19.504q0.13146-1.5774 0.27934-3.1385 0.14789-1.561 0.29577-3.1384 0.18075-1.8732 0.26291-3.4506 0.0822-1.5774 0.0822-2.8591 0-2.6784-0.6244-4.798-0.62441-2.1197-1.8896-3.6643l1.0845-0.6737q2.2018 2.4155 3.3028 5.9811 1.1174 3.5657 1.1174 8.298zm-13.868-0.39436q0-0.59154-0.29577-0.88731-0.27934-0.29577-0.87088-0.29577-0.57511 0-0.87088 0.29577t-0.29577 0.88731q0 0.59155 0.29577 0.88731 0.29577 0.27934 0.87088 0.27934 0.59154 0 0.87088-0.27934 0.29577-0.29577 0.29577-0.88731zm4.568 5.0281q0-0.6244-0.44365-1.0845-0.44366-0.46009-1.0516-0.46009-0.65727 0-1.1174 0.46009-0.44365 0.44366-0.44365 1.0845 0 0.64084 0.44365 1.0681 0.46009 0.42722 1.1174 0.42722 0.60797 0 1.0516-0.42722 0.44365-0.44366 0.44365-1.0681zm4.1079 4.9788q0-0.57511-0.27934-0.87088-0.27933-0.29577-0.88731-0.29577-0.59154 0-0.88731 0.29577t-0.29577 0.87088q0 0.59154 0.29577 0.88731t0.88731 0.29577q0.60798 0 0.88731-0.29577 0.27934-0.29577 0.27934-0.88731z"/><path d="m740.74 193.79-0.49295 4.3544-3.8286-0.9366 1.2817-2.6784zm5.6689 1.0845-2.6291 0.75585q-0.13145-1.7418-0.75586-2.8755-0.60797-1.1502-1.7253-1.7089-0.60798-0.29577-1.9718-0.54224-1.3474-0.26291-3.4342-0.42723l-1.2652 10.845 8.3966-0.44366-2.1032 4.7159-6.7041-1.4296-1.4788 10.993 6.1619 0.0822 2.1526-3.1549 3.4342-0.19718 0.0822 5.2417-15.84-0.88731 0.92018-17.155 2.2018 0.11502 0.36149-1.4131-2.5305-0.0329 0.13146-1.9882 2.399 0.18075 0.24648-1.7582h-2.5634l0.0822-1.9389 2.399 0.18075 0.32863-1.5117-2.6455-0.13145 0.16432-2.9906q1.6267 0.13146 3.2699 0.26291 1.6432 0.11502 3.2863 0.21361 1.9554 0.23004 3.4835 0.6737 1.5282 0.42722 2.6126 1.0845 1.4296 0.85445 2.3004 2.169 0.88731 1.3145 1.2324 3.0727z"/><path d="m785.4 188.74-3.0563 4.5351-2.5962-0.92017-6.6384 22.725-1.216 0.55868-6.8356-17.007-8.4788 17.927-0.6737-3.2042-2.2511 0.80515-0.34507-1.4788 2.3497-0.75586-0.59154-2.6784-2.2511 0.70657-0.34506-1.5939 2.3497-0.60797-0.59154-3.0399-2.169 0.92017-0.6737-1.5939 2.514-1.0023-0.59154-2.9577-2.8098 0.6737-0.41079-1.4788 2.892-0.75586-0.59154-3.1549-2.169 0.83801-0.42722-1.3638 2.2676-0.80515-0.6737-3.6807-2.0868 0.69013-0.59154-1.7253 5.3567-1.7582 5.7511 17.237 8.298-17.812 6.2112 15.462 4.9459-15.627zm-12.176 16.777-5.7675-13.72-1.1009 2.1526 5.9483 14.805z"/></g></g></svg>
