<svg width="185.71mm" height="120.25mm" version="1.1" viewBox="0 0 185.71 120.25" xmlns="http://www.w3.org/2000/svg">
<g transform="translate(-12.2 -88.209)"><g transform="translate(-225.46 61.388)">
<path d="m276.53 110.83c0-0.72725 1.3202-1.3223 2.9338-1.3223 3.5716 0 3.6924-1.0196 0.49774-4.2013-3.1231-3.1107-1.2389-4.9668 2.0409-2.0104 
2.3141 2.0858 2.9103 1.602 9.5001-7.7091 3.8672-5.464 7.058-10.964 7.0908-12.221 0.0303-1.2576 2.0124-4.3458 4.3991-6.8627 3.5656-3.76 3.955-4.7702 
2.1834-5.6638-1.4148-0.71369-4.1756 0.11696-8.0301 2.4163-11.807 7.0429-14.377-0.83509-2.7279-8.3629 6.4404-4.162 7.2625-4.3587 12.7-3.0389 3.1978 
0.77614 8.9985 3.7831 12.891 6.6821 3.8921 2.899 7.6153 5.2709 8.2739 5.2709 0.65856 0 2.712-1.5872 4.5633-3.5271 2.2047-2.3104 4.2046-3.237 
5.7974-2.686 3.3771 1.1681 3.0357 5.0113-0.91645 10.315-3.8755 5.2008-9.3278 6.3924-14.709 3.2144-3.3712-1.9911-3.6768-1.9352-5.8627 1.0719-2.1931 
3.0171-2.095 3.3547 2.005 6.8954 5.4766 4.7295 5.4255 7.4224-0.26217 13.802-5.2776 5.9196-8.178 7.2767-11.015 5.1542-2.6847-2.0084-2.5447-5.0747 
0.36391-7.9717 2.3215-2.3122 1.9179-6.4341-0.62991-6.4341-0.70271 0-4.3534 3.5701-8.1127 7.9336-4.4722 5.191-6.0749 7.9336-4.6362 7.9336 1.2094 0 
2.1989 0.59502 2.1989 1.3223 0 0.75557-4.4008 1.3223-10.269 1.3223s-10.269-0.56669-10.269-1.3223zm19.857-9.5385c8.1436-9.6561 8.2238-9.8151 
5.8453-11.594-1.77-1.3241-3.1329-0.17171-8.0353 6.7941-9.1892 13.057-7.6389 16.455 2.19 4.8003zm19.598 0.89777c5.7364-5.8891 5.7384-8.3508 
0.0125-12.595l-4.5688-3.3855 8.3721-13.516-3.5555-3.4115c-1.9556-1.8763-5.8752-3.9888-8.7104-4.6944-4.4793-1.1148-5.983-0.81134-11.475 2.316-3.4761 
1.9794-6.3214 4.3427-6.3228 5.2517-4e-3 2.3988 1.5872 2.0589 7.5993-1.6235 4.6247-2.8326 5.9622-3.0837 9.8756-1.854 2.4896 0.78227 4.5265 1.7383 
4.5265 2.1244 0 0.38615-2.3105 3.0072-5.1343 5.8246-2.8239 2.8174-5.1343 5.9628-5.1343 6.9897 0 1.027 3.034 4.2744 6.7421 7.2166l6.7422 5.3494-3.0748 
3.8924c-6.0672 7.6802-2.9009 9.3111 4.1079 2.1158zm19.877-26.44c2.6113-4.3707 1.9786-8.7257-0.66486-4.5761-4.2228 6.6289-5.1248 7.0944-9.1451 
4.7199-2.6546-1.5678-4.0778-1.79-4.7923-0.74806-1.1949 1.7428-1.2362 1.7022 4.3533 4.2892 5.4581 2.5263 6.8333 2.0318 10.249-3.685zm-14.364-9.6497c-3.1554-3.1429-3.0739-5.9008 
0.25493-8.6162 3.4867-2.8442 6.5464-2.7707 9.5589 0.22973 3.1555 3.1429 3.0738 5.9008-0.25491 8.6162-3.4867 2.8442-6.5464 
2.7707-9.5589-0.22973zm8.5742-4.1932c0-2.4233-0.88271-3.4186-3.3072-3.729-3.6044-0.46136-5.6516 2.3743-4.191 5.8051 0.52983 1.2453 2.2073 1.9067 
4.191 1.6528 2.4245-0.31034 3.3072-1.3056 3.3072-3.729z" stroke="none" stroke-width="1.3927"/>
<path d="m392.95 128.25c-5.8509-19.319-5.5957-25.033-11.61-44.297-2.9336-9.3972-4.8811-18.384-10.411-28.207-4.0457-7.1876-9.1309-14.266-15.852-18.932-6.2003-4.3043-13.861-6.2907-21.268-7.4519-13.792-2.1621-28.098-1.3282-41.846 1.1077-11.198 1.984-22.51 5.1389-32.394 10.876-6.6165 3.8402-13.62 8.4584-17.231 15.307-2.9239 5.5446-3.2918 12.431-3.3764 18.73-0.11054 8.236 0.9611 16.746 3.4748 24.571 2.3965 7.4604 6.303 14.675 11.619 20.342 5.6411 6.0136 12.716 11.306 20.579 13.494 13.058 3.6336 27.193 0.3458 40.566-1.6112 10.6-1.5511 21.193-3.1578 31.803-4.6322 14.199-1.9731 28.457-3.5048 42.634-5.6393 11.157-1.6798 22.514-3.7612 33.379-6.8498" 
fill="none" stroke-width="2.592"/><path d="m388.2 138.14c-5.2287-16.419-9.5591-37.658-14.8-54.07-2.6089-8.1693-4.8254-16.33-9.3036-23.973-3.6031-6.1497-8.16-12.124-14.167-16.09-5.5411-3.6582-12.387-5.3465-19.006-6.3333-12.326-1.8376-25.11-1.1288-37.397 0.94144-10.007 1.6862-20.116 4.3675-28.95 9.2432-5.913 3.2638-12.171 7.1888-15.399 13.009-2.613 4.7124-2.8358 10.565-2.9113 15.919-0.0988 6.9997 0.75281 14.232 2.9993 20.883 2.1417 6.3406 5.6328 12.472 10.383 17.288 5.0413 5.1109 11.364 9.609 18.39 11.468 11.669 3.0882 24.209-0.31053 36.253-1.3694 9.5306-0.83785 18.939-2.6838 28.422-3.9369 12.689-1.6769 25.431-2.9787 38.101-4.7928 9.9705-1.4276 20.12-3.1966 29.83-5.8216" 
fill="none" stroke-width="2.5813"/><path d="m384.27 146.67c-4.5678-13.227-14.323-48.854-18.902-62.076-2.2791-6.5813-4.1337-13.231-8.1276-19.313-3.2451-4.9422-7.1286-9.7676-12.376-12.962-4.8406-2.9471-10.821-4.3072-16.604-5.1022-10.768-1.4804-21.936-0.90939-32.67 0.75844-8.7425 1.3584-17.574 3.5185-25.29 7.4465-5.1655 2.6294-10.633 5.7914-13.452 10.48-2.2827 3.7964-2.9738 8.5117-3.0398 12.825-0.0863 5.6391 1.1542 11.466 3.1167 16.824 1.8709 5.1081 4.9208 10.048 9.0707 13.928 4.4041 4.1174 9.9276 7.7412 16.066 9.2392 10.194 2.4879 21.149-0.25017 31.671-1.1032 8.3259-0.67499 16.545-2.1622 24.829-3.1717 11.086-1.351 22.217-2.3997 33.285-3.8612 21.064-2.7468 23.886-3.1846 28.748-5.123" 
fill="none" stroke-width="2.491"/></g></g></svg>
