<svg viewBox="0 0 266.38 195.77" xmlns="http://www.w3.org/2000/svg"><path d="m202.19 97.886a101.1 97.886 0 0 1-101.1 97.886 101.1 97.886 0 0 1-101.1-97.886 101.1 97.886 0 0 1 101.1-97.886 101.1 97.886 0 0 1 101.1 97.886z" fill="#d3ecec" stroke="transparent"/><path d="m160.02 189.6c-0.37934-0.20618-0.89185-0.68338-1.1389-1.0605-0.48886-0.74609-2.731-10.508-4.2534-18.52-1.2243-6.4421-3.614-18.229-3.7199-18.347-0.1144-0.12797-7.4279 1.015-20.096 3.1407-19.712 3.3076-27.538 4.1977-38.8 4.413-11.142 0.21308-17.199-0.44549-23.539-2.5593-8.6816-2.8949-16.644-8.9067-23.037-17.394-9.2842-12.325-14.287-27.508-14.322-43.469-0.0165-7.4541 0.78509-12.929 2.7631-18.874 3.2139-9.6589 8.3004-15.913 17.798-21.882 22.44-14.104 64.787-19.861 91.31-12.413 7.2044 2.023 12.29 5.0168 17.733 10.438 7.9137 7.8832 14.367 19.448 20.374 36.512 0.40981 1.1642 0.76901 2.1514 0.79823 2.1937 0.10533 0.15281 22.456-8.7052 37.426-14.832 13.009-5.3249 21.488-8.3958 23.181-8.3958 3.1469 0 5.0668 3.3155 3.5168 6.0732-0.70107 1.2474-1.4873 1.7063-4.3397 2.5329-3.6625 1.0614-9.9067 3.5049-24.475 9.5777-10.859 4.5264-29.978 12.282-32.324 13.113-0.40424 0.14303-0.40867 0.26531-0.0519 1.4295 0.21462 0.70022 1.0442 3.6544 1.8436 6.5648 0.79937 2.9104 1.511 5.4863 1.5813 5.7241 0.15038 0.50835 0.61917 0.41767 11.224-2.1711 20.588-5.0258 35.327-10.429 44.872-16.451 2.4055-1.5177 2.7426-1.6538 4.097-1.6538 1.2075 0 1.6518 0.13422 2.4438 0.73836 1.2416 0.947 1.5633 1.5722 1.5813 3.0728 0.0291 2.4249-0.78443 3.2303-6.6398 6.5732-10.651 6.0808-26.974 11.694-49.045 16.867-3.3567 0.78668-6.1587 1.486-6.2267 1.554-0.13058 0.13058 3.4999 14.945 3.7152 15.161 0.18749 0.1875 10.132-1.6303 16.315-2.9823 23.014-5.0325 39.118-11.699 47.625-19.717 1.9791-1.8652 2.8367-2.347 4.1803-2.3481 2.6999-2e-3 4.4174 2.1728 3.8987 4.9378-0.31703 1.6899-4.4997 5.6366-9.5342 8.9964-11.875 7.9248-30.168 14.11-55.415 18.738-2.8294 0.51863-5.1667 0.96953-5.194 1.002-0.12814 0.15278 2.6852 10.034 3.8867 13.651 1.0028 3.0191 1.3126 4.304 1.202 4.9855-0.36002 2.2186-2.8816 3.8973-4.9316 3.2831-2.1644-0.64845-3.1014-2.3477-5.2849-9.5833-0.58673-1.9443-1.502-5.2873-2.0339-7.4289-0.95996-3.865-0.97219-3.8928-1.6554-3.7641-0.37858 0.0713-2.8592 0.40019-5.5126 0.73078-2.6533 0.3306-4.8739 0.65267-4.9347 0.71572-0.1436 0.14909 3.7543 19.62 5.0098 25.025 0.61553 2.6499 0.91962 4.5295 0.83496 5.1607-0.16516 1.2313-1.0295 2.48-2.1 3.0335-0.74422 0.38484-0.8332 0.38451-1.0506-4e-3 -0.13064-0.23345-0.55904-0.42524-0.95199-0.4262-0.79484-2e-3 -2.0169-0.71434-2.5414-1.4815-0.84906-1.2419-2.5068-7.943-5.0378-20.364-1.0993-5.395-1.9988-9.8906-1.9988-9.9903 0-0.0997-0.68461-0.11385-1.5214-0.0315-2.9045 0.28589-8.1216 0.94302-8.2131 1.0345-0.11842 0.11842 3.0912 16.351 5.3774 27.196 2.0137 9.5522 2.021 9.7894 0.35326 11.376-0.98229 0.93443-1.1449 0.99395-2.688 0.98399-0.90338-6e-3 -1.9529-0.17928-2.3322-0.38546zm-56.063-39.539c6.3139-0.68616 14.567-1.8438 21.884-3.0696 7.7116-1.2919 21.767-3.799 22.596-4.0304l0.69209-0.19325-1.2756-5.6547c-0.70158-3.1101-1.3107-5.6876-1.3535-5.7278-0.0429-0.0402-3.2926 0.73922-7.2217 1.7321-24.081 6.0856-38.723 7.2194-51.395 3.9796-12.343-3.1558-21.495-10.99-27.575-23.604-6.2428-12.953-6.2751-25.365-0.0904-34.706 1.6058-2.4251 5.44-6.4055 8.1072-8.4164 8.3568-6.3004 20.469-10.522 34.44-12.003 4.2522-0.45091 14.595-0.52259 18.389-0.12743 8.6186 0.89788 13.863 2.628 19.363 6.3879 2.8694 1.9615 6.977 5.8147 9.3978 8.8158 4.6577 5.7742 9.4286 14.316 12.784 22.89 0.48414 1.2369 0.89554 2.275 0.91423 2.3069 0.0187 0.0319 1.9923-0.66592 4.3858-1.5506 2.3935-0.88472 4.7517-1.7384 5.2404-1.8971s0.94218-0.4281 1.0076-0.59872c0.20761-0.54103-2.4537-7.7704-5.0576-13.739-6.0083-13.771-13.406-23.282-21.584-27.748-3.6009-1.9664-11.102-3.8758-19.044-4.8473-4.8216-0.58986-19.644-0.66581-25.135-0.12881-20.475 2.0023-37.646 7.189-49.371 14.914-3.6486 2.4036-8.269 6.916-9.8633 9.6328-3.6365 6.1967-5.3997 13.651-5.4078 22.862-9e-3 10.369 2.2502 19.966 6.9453 29.501 3.3205 6.7437 7.3182 12.187 11.894 16.194 6.32 5.5354 12.15 8.0805 21.108 9.2144 4.383 0.55482 18.554 0.33662 25.225-0.3884zm58.738-8.7519c1.9645-0.14293 3.7897-0.26016 4.0559-0.26051 0.40636-5.3e-4 0.45531-0.13865 0.30505-0.86054-0.55152-2.6497-2.7685-12.057-2.9529-12.53-0.2169-0.5565-0.22798-0.55533-4.7153 0.4952-2.4739 0.57916-4.5388 1.0894-4.5888 1.1338-0.05 0.0444 0.51557 2.8209 1.2568 6.17 0.74122 3.349 1.3477 6.1611 1.3477 6.249 0 0.0879 0.38696 0.0931 0.8599 0.0115s2.4672-0.26529 4.4318-0.40822zm18.832-1.8549c2.4266-0.28758 4.4699-0.52288 4.5406-0.52288 0.14153 0 9e-3 -0.61474-1.9869-9.1943-0.85645-3.6822-1.4894-5.887-1.69-5.887-0.4081 0-10.486 2.0798-10.593 2.186-0.0435 0.0435 0.268 1.4447 0.69227 3.1138 0.42426 1.6691 1.1398 4.7015 1.5902 6.7388 0.45032 2.0373 0.8678 3.8549 0.92771 4.0391 0.0739 0.22721 0.43021 0.28901 1.1078 0.19216 0.54938-0.0785 2.9843-0.37807 5.4109-0.66566zm-69.55-9.1184c4.5371-0.4815 10.39-1.4618 15.925-2.6673 5.8085-1.265 16.366-3.8432 16.576-4.0478 0.15838-0.15447-2.0093-8.7078-2.2739-8.9724-0.0645-0.0645-1.9396 0.36917-4.1669 0.96367-11.936 3.1858-22.092 4.7911-30.342 4.796-10.958 6e-3 -17.807-2.5741-22.061-8.3109-6.1158-8.2484-6.7609-16.876-1.7984-24.054 4.9571-7.1707 14.675-12.125 26.262-13.389 6.9732-0.76069 14.293 0.2593 19.662 2.7399 6.8621 3.1705 10.816 8.1244 15.012 18.808 0.8001 2.0373 1.722 4.5376 2.0487 5.5563 0.32666 1.0186 0.68782 1.9547 0.80256 2.0802 0.15746 0.1722 8.2496-2.2692 8.6698-2.6157 0.18585-0.15322-2.8136-6.934-4.8658-11-6.2629-12.409-13.681-20.126-21.937-22.821-1.9108-0.62379-8.4309-1.6813-12.573-2.0391-18.733-1.6185-42.411 6.7342-49.301 17.392-2.5059 3.876-3.4439 7.1588-3.4266 11.993 0.0177 4.9419 1.1371 9.2206 3.9447 15.078 3.7095 7.7389 9.2957 13.732 15.861 17.017 3.1516 1.5769 9.2746 3.2768 13.348 3.7057 2.5089 0.26417 11.358 0.13643 14.634-0.21126zm50.291-10.996c0.15573-0.1576-2.6772-9.5251-2.975-9.8372-0.10072-0.10556-2.1446 0.45613-4.542 1.2482-3.6281 1.1987-4.3447 1.5192-4.274 1.9117 0.0858 0.47685 2.1033 8.1581 2.2863 8.7051 0.0668 0.19959 1.6072-0.0589 4.7306-0.79375 2.5473-0.59935 4.6957-1.1547 4.7741-1.234zm14.318-2.7374c3.8422-0.83167 3.9658-0.87925 3.8764-1.4924-0.10757-0.7379-3.2202-11.985-3.3553-12.124-0.0996-0.10242-9.6735 3.3535-10.212 3.6862-0.25335 0.15659-8e-3 1.2904 1.0355 4.7886 0.75211 2.5209 1.4465 4.9801 1.543 5.465l0.17553 0.88154 1.484-0.17307c0.81617-0.0952 3.2699-0.55964 5.4527-1.0321zm-60.911-5.0449c7.2967-0.97769 23.365-4.5832 23.642-5.3049 0.16182-0.4217-2.2083-6.804-3.7694-10.15-2.51-5.3802-5.97-9.436-9.6163-11.272-3.9946-2.0117-9.4404-2.8486-14.707-2.2602-8.5309 0.95314-16.739 4.6326-20.287 9.0939-3.1505 3.9616-3.351 7.8072-0.67612 12.967 2.2766 4.3916 5.5563 6.4428 11.704 7.3202 2.2623 0.32284 10.024 0.0998 13.709-0.3939z" stroke-width=".26458"/></svg>
