<svg width="224.76" height="224.77" version="1.1" viewBox="0 0 59.467 59.47" xmlns="http://www.w3.org/2000/svg"><g transform="translate(-22.458 -19.37)"><path d="m25.603 69.411 3.1444-9.4292 40.614-40.612 12.564 12.572-40.612 40.609-18.855 6.2898zm8.5139 1.8734 2.8162-1.0037-5.9593-5.9424-2.0692 6.3556 0.76367 0.79711c0.42003 0.43841 0.95916 0.79711 1.1981 0.79711 0.23892 0 1.7017-0.45168 3.2506-1.0037zm28.955-28.03-1.256-1.256-24.067 24.062 2.4952 2.5333 24.084-24.084zm-5.0271-5.0271-1.256-1.256-24.067 24.062 2.4952 2.5333 24.084-24.084zm10.128 2.4386 1.1734-1.1956-7.526-7.526-2.5088 2.5088 3.6971 3.7042c2.0334 2.0373 3.7632 3.7042 3.844 3.7042 0.08079 0 0.67493-0.53803 1.3203-1.1956zm6.2834-6.2831 2.4414-2.4516-7.5476-7.5342-5.0098 5.0307 3.6962 3.7033c2.0329 2.0368 3.7597 3.7033 3.8373 3.7033 0.07758 0 1.2397-1.1032 2.5825-2.4516z" stroke-width=".26458"/></g></svg>
