<svg width="300" height="300" version="1.1" viewBox="0 0 79.375 79.375" xmlns="http://www.w3.org/2000/svg"><path d="m76.358 39.688a36.67 35.795 0 0 1-36.67 35.795 36.67 35.795 0 0 1-36.67-35.795 36.67 35.795 0 0 1 36.67-35.795 36.67 35.795 0 0 1 36.67 35.795z" fill="none" opacity=".99" stroke="#000" stroke-linecap="round" stroke-width="3.7479"/><path d="m44.237 44.986v16.16q0 1.0411-0.4074 1.4485-0.36214 0.4074-1.4033 0.4074h-6.4279q-1.0411 0-1.4485-0.4074-0.36214-0.4074-0.36214-1.4485v-16.16h-16.115q-1.0411 0-1.4485-0.4074t-0.4074-1.4938v-5.93q0-1.0864 0.4074-1.4938t1.4485-0.4074h16.115v-16.387q0-1.0411 0.36214-1.4485 0.4074-0.4074 1.4485-0.4074h6.4279q1.0411 0 1.4033 0.4074 0.4074 0.4074 0.4074 1.4485v16.387h16.387q1.0864 0 1.4938 0.4074t0.4074 1.4938v5.93q0 1.0864-0.4074 1.4938t-1.4938 0.4074z" stroke-width="3.4765"/></svg>
