<svg width="799" height="828" version="1.1" viewBox="0 0 211.4 219.08" xmlns="http://www.w3.org/2000/svg"><g transform="translate(3.6474 -22.244)"><path d="m117.6 229.61c6.439-6.4402 11.707-11.777 11.707-11.86 0-0.14395-54.344-54.423-75.835-75.744l-10.351-10.269 18.024-17.897c9.913-9.8432 29.334-29.18 43.159-42.97l25.135-25.074-23.549-23.553-109.54 109.54 109.54 109.54zm78.383-0.33245 11.773-11.776-42.73-42.72c-23.502-23.496-42.73-42.848-42.73-43.003 0-0.15562 19.229-19.505 42.73-43l42.73-42.717-23.724-23.686-33.466 33.602c-58.009 58.244-74.837 75.289-74.837 75.801 0 0.28573 3.9877 4.5123 9.6544 10.233 23.492 23.714 98.543 99.043 98.678 99.043 0.0821 0 5.447-5.2993 11.922-11.776z" stroke-width=".26458"/></g></svg>
