<svg width="340.61" height="234.35" version="1.1" viewBox="0 0 90.119 62.006" xmlns="http://www.w3.org/2000/svg"><g transform="translate(-40.037 -25.917)"><path d="m60.717 87.642c-1.0025-0.32407-2.543-1.7437-10.403-9.5872-5.104-5.0933-9.463-9.6619-9.7562-10.225-0.65234-1.2536-0.69772-3.3997-0.10215-4.8316 0.29852-0.71771 3.1602-3.7664 9.4615-10.08 10.051-10.07 10.388-10.328 13.119-10.047 3.6681 0.37858 5.9712 4.0853 4.6724 7.5201-0.36919 0.97637-1.3681 2.1644-4.455 5.2982l-3.9791 4.0397 55.839-0.1418 1.1028-0.72987c0.60655-0.40142 1.4312-1.2259 1.8327-1.8323l0.72986-1.1024 0.13229-12.984c0.14767-14.493 0.10205-14.142 2.047-15.745 2.7349-2.2544 6.9174-1.4208 8.5218 1.6983l0.67595 1.3141v13.236c0 13.119-5e-3 13.253-0.61689 15.22-0.90315 2.9052-2.2715 5.1806-4.3886 7.2977-2.0533 2.0533-4.3098 3.434-7.1654 4.3845l-1.8521 0.61645-56.83 0.1572 4.1135 4.1643c3.4766 3.5196 4.1627 4.3471 4.4314 5.3449 1.1928 4.4295-2.8444 8.4012-7.1311 7.0154z" stroke-width=".26458"/></g><g><path d="m28.924 0.36719a3.4969 3.4969 0 0 0-2.5371 1.0469 3.4969 3.4969 0 0 0 0.046875 4.9453l55.043 54.016a3.4969 3.4969 0 0 0 4.9453-0.044922 3.4969 3.4969 0 0 0-0.046875-4.9453l-55.043-54.016a3.4969 3.4969 0 0 0-2.4082-1.002z"/></g></svg>
