<svg width="224.26" height="224.42" version="1.1" viewBox="0 0 59.336 59.377" xmlns="http://www.w3.org/2000/svg"><g transform="translate(.96031 -2.8164)"><path d="m0.81265 2.9236c-0.78771 0.29166-1.5826 1.2397-1.7392 2.0741-0.18365 0.9789 0.40444 2.3368 1.1953 2.7601 0.70668 0.3782 56.208 0.3782 56.915 0 1.419-0.75945 1.613-3.0692 0.3569-4.2493l-0.67867-0.63763-27.826-0.04713c-15.304-0.02592-28.005 0.019-28.223 0.09982zm26.855 10.908c-0.29104 0.13014-3.595 3.3183-7.3422 7.0849-6.713 6.7478-6.813 6.8643-6.813 7.9463 0 1.502 0.82275 2.4337 2.3274 2.6355l1.1359 0.15236 8.9721-8.9161 5.3e-4 18.511c2.6e-4 17.093 0.0358 18.582 0.46302 19.436 0.90354 1.8081 3.2199 2.0416 4.406 0.44409 0.54909-0.73953 0.55523-0.93103 0.62756-19.562l0.073-18.815 4.4425 4.4148c4.7607 4.731 4.9992 4.8747 6.6615 4.0151 0.96808-0.50061 1.3176-1.1418 1.3176-2.4171 0-0.95402-0.31545-1.3155-6.9476-7.9612-5.9829-5.9951-7.0759-6.9786-7.8714-7.0833-0.50807-0.06687-1.1619-0.01511-1.4529 0.11505z" stroke-width=".26458"/></g></svg>
