<svg width="61.717mm" height="54.111mm" version="1.1" viewBox="0 0 61.717 54.111" xmlns="http://www.w3.org/2000/svg"><path d="m0 35.38c0-18.037 0.0761-18.731 2.0572-18.731 1.3715 0 2.0572-0.69374 2.0572-2.0812 0-1.3875 0.68574-2.0812 2.0572-2.0812s2.0572-0.69372 2.0572-2.0812 0.68574-2.0812 2.0572-2.0812c1.3715 0 2.0572-0.69374 2.0572-2.0812 0-2.0234 0.68574-2.0812 24.687-2.0812h24.687v18.731c0 18.037-0.0761 18.731-2.0572 18.731-1.3715 0-2.0572 0.69374-2.0572 2.0812 0 1.3875-0.68574 2.0812-2.0572 2.0812-1.3715 0-2.0572 0.69374-2.0572 2.0812 0 1.3875-0.68574 2.0812-2.0572 2.0812s-2.0572 0.69373-2.0572 2.0812c0 2.0234-0.68575 2.0812-24.687 2.0812h-24.687zm47.316 4.1624v-12.487h-45.259v24.974h45.259zm-31.476 6.868c-4.7454-4.8007-4.7454-8.9352 0-13.736 4.7454-4.8007 8.8323-4.8007 13.578 0 2.5201 2.5495 3.4973 4.4685 3.4973 6.868s-0.97719 4.3185-3.4973 6.868c-4.7454 4.8007-8.8323 4.8007-13.578 0zm12.493-1.0974c5.1021-5.1616 1.4868-14.095-5.7041-14.095-4.2287 0-8.2289 4.0468-8.2289 8.3248s4.0002 8.3248 8.2289 8.3248c2.0041 0 4.1126-0.94415 5.7041-2.5542zm-9.8186-5.7706c0-2.8617 0.21905-5.203 0.48679-5.203 1.0917 0 9.7994 4.6234 9.7994 5.203 0 0.57963-8.7077 5.203-9.7994 5.203-0.26774 0-0.48679-2.3414-0.48679-5.203zm5.1431 1.0247c1.3715-0.91082 1.3715-1.1385 0-2.0493-2.3126-1.5358-3.0858-1.2791-3.0858 1.0247s0.7732 2.5605 3.0858 1.0247zm27.773-9.3495v-16.65h-22.63c-14.401 0-22.63 0.37841-22.63 1.0406 0 0.6607 7.886 1.0406 21.601 1.0406h21.601v15.609c0 9.7123 0.38859 15.609 1.0286 15.609 0.64288 0 1.0286-6.2436 1.0286-16.65zm4.1145-4.1624v-16.65h-22.63c-14.401 0-22.63 0.3784-22.63 1.0406 0 0.6607 7.886 1.0406 21.601 1.0406h21.601v15.609c0 9.7123 0.38859 15.609 1.0286 15.609 0.64289 0 1.0286-6.2436 1.0286-16.65zm4.1144-4.1624v-16.65h-22.63c-14.401 0-22.63 0.3784-22.63 1.0406 0 0.6607 7.886 1.0406 21.601 1.0406h21.601v15.609c0 9.7123 0.38859 15.609 1.0286 15.609 0.64288 0 1.0286-6.2436 1.0286-16.65zm-12.343-1.0406v-3.1218h-45.259v6.2436h45.259zm-43.202 0c0-0.57234 0.46288-1.0406 1.0286-1.0406 0.56573 0 1.0286 0.46826 1.0286 1.0406 0 0.57232-0.46288 1.0406-1.0286 1.0406-0.56574 0-1.0286-0.46827-1.0286-1.0406zm4.1145 0c0-0.57234 0.46288-1.0406 1.0286-1.0406 0.56574 0 1.0286 0.46826 1.0286 1.0406 0 0.57232-0.46288 1.0406-1.0286 1.0406-0.56573 0-1.0286-0.46827-1.0286-1.0406zm4.1144 0c0-0.57234 0.46288-1.0406 1.0286-1.0406 0.56573 0 1.0286 0.46826 1.0286 1.0406 0 0.57232-0.46288 1.0406-1.0286 1.0406-0.56574 0-1.0286-0.46827-1.0286-1.0406zm19.544-20.812c0-0.57232 0.46287-1.0406 1.0286-1.0406s1.0286 0.46827 1.0286 1.0406c0 0.57234-0.46287 1.0406-1.0286 1.0406s-1.0286-0.46827-1.0286-1.0406zm4.1144 0c0-0.57232 0.46287-1.0406 1.0286-1.0406s1.0286 0.46827 1.0286 1.0406c0 0.57234-0.46288 1.0406-1.0286 1.0406-0.56575 0-1.0286-0.46827-1.0286-1.0406zm4.1145 0c0-0.57232 0.46287-1.0406 1.0286-1.0406s1.0286 0.46827 1.0286 1.0406c0 0.57234-0.46288 1.0406-1.0286 1.0406s-1.0286-0.46827-1.0286-1.0406z"/></svg>
