<svg version="1.1" viewBox="0 0 60 60" xml:space="preserve" xmlns="http://www.w3.org/2000/svg">
<g transform="translate(.3995 .39988)">
	<path d="m51.062 21.561c-11.889-11.889-31.232-11.889-43.121 0l-7.941 7.94 8.138 8.138c5.944 5.944 13.752 8.917 21.561 8.917s15.616-2.972 21.561-8.917l7.941-7.941zm-1.217 14.664c-11.109 11.108-29.184 11.108-40.293 0l-6.724-6.724 6.527-6.527c11.109-11.108 29.184-11.108 40.293 0l6.724 6.724z"/>
	<path d="m28.572 21.57c-3.86 0-7 3.14-7 7 0 0.552 0.448 1 1 1s1-0.448 1-1c0-2.757 2.243-5 5-5 0.552 0 1-0.448 1-1s-0.447-1-1-1z"/>
	<path d="m29.572 16.57c-7.168 0-13 5.832-13 13s5.832 13 13 13 13-5.832 13-13-5.831-13-13-13zm0 24c-6.065 0-11-4.935-11-11s4.935-11 11-11 11 4.935 11 11-4.934 11-11 11z"/>
</g>
<path d="m7.1838 5.989a0.87434 0.87755 0 0 0-0.58875 0.25628 0.87434 0.87755 0 0 0 0 1.2422l45.989 46.156a0.87434 0.87755 0 0 0 1.236 0 0.87434 0.87755 0 0 0 0-1.2406l-45.988-46.158a0.87434 0.87755 0 0 0-0.64893-0.25628z" color="#000000" color-rendering="auto" dominant-baseline="auto" image-rendering="auto" shape-rendering="auto" solid-color="#000000" stop-color="#000000" style="font-feature-settings:normal;font-variant-alternates:normal;font-variant-caps:normal;font-variant-east-asian:normal;font-variant-ligatures:normal;font-variant-numeric:normal;font-variant-position:normal;font-variation-settings:normal;inline-size:0;isolation:auto;mix-blend-mode:normal;shape-margin:0;shape-padding:0;text-decoration-color:#000000;text-decoration-line:none;text-decoration-style:solid;text-indent:0;text-orientation:mixed;text-transform:none;white-space:normal"/></svg>
