<svg width="548.03" height="548.03" version="1.1" viewBox="0 0 145 145" xmlns="http://www.w3.org/2000/svg"><g stroke-width="1.8558" aria-label="?"><path d="m53.38 100.14q-0.90614-2.356-1.4498-5.2556-0.45307-2.9903-0.45307-5.6181 0-4.1683 0.81553-7.6116 0.81553-3.4433 2.4466-6.4336 1.6311-3.0809 4.0776-5.7993 2.4466-2.809 5.7087-5.5275 3.4433-2.8997 5.9805-5.3462 2.6278-2.5372 4.4401-4.9838 1.8123-2.5372 2.7184-5.165 0.90614-2.7184 0.90614-5.9805 0-2.809-0.99676-5.165-0.99676-2.4466-2.8997-4.1683-1.8123-1.7217-4.5307-2.7184-2.6278-0.99676-5.8899-0.99676-7.0679 0-14.68 2.9903-7.6116 2.8997-14.408 8.8802v-27.275q6.9773-4.1683 15.223-6.2524 8.2459-2.0841 17.035-2.0841 8.4271 0 15.676 1.9029 7.2491 1.8123 12.595 5.7993 5.4369 3.987 8.4271 10.239 3.0809 6.1618 3.0809 14.861 0 5.5275-1.2686 10.058-1.2686 4.4401-3.7152 8.4271-2.4466 3.987-6.0712 7.7022-3.6246 3.6246-8.3365 7.521-3.1715 2.6278-5.6181 4.8932-2.356 2.2654-3.987 4.5307-1.5404 2.1747-2.356 4.7119-0.81553 2.4466-0.81553 5.6181 0 2.1747 0.54368 4.4401 0.6343 2.2654 1.6311 3.8058zm13.23 39.689q-7.2491 0-12.052-4.3495-4.8026-4.5307-4.8026-10.692 0-6.343 4.8026-10.602t12.052-4.2589q7.1585 0 11.87 4.2589 4.7119 4.1682 4.7119 10.602 0 6.5242-4.6213 10.783-4.7119 4.2589-11.961 4.2589z"/></g></svg>
