<?xml version="1.0" encoding="UTF-8" standalone="no"?>
<svg
   xmlns:dc="http://purl.org/dc/elements/1.1/"
   xmlns:cc="http://creativecommons.org/ns#"
   xmlns:rdf="http://www.w3.org/1999/02/22-rdf-syntax-ns#"
   xmlns:svg="http://www.w3.org/2000/svg"
   xmlns="http://www.w3.org/2000/svg"
   xmlns:sodipodi="http://sodipodi.sourceforge.net/DTD/sodipodi-0.dtd"
   xmlns:inkscape="http://www.inkscape.org/namespaces/inkscape"
   xml:space="preserve"
   width="210mm"
   height="220mm"
   style="shape-rendering:geometricPrecision; text-rendering:geometricPrecision; image-rendering:optimizeQuality; fill-rule:evenodd; clip-rule:evenodd"
   viewBox="0 0 210 220"
   version="1.1"
   id="svg10"
   sodipodi:docname="books.svg"
   inkscape:version="1.0.2 (e86c870879, 2021-01-15, custom)"><metadata
   id="metadata14"><rdf:RDF><cc:Work
       rdf:about=""><dc:format>image/svg+xml</dc:format><dc:type
         rdf:resource="http://purl.org/dc/dcmitype/StillImage" /></cc:Work></rdf:RDF></metadata><sodipodi:namedview
   pagecolor="#ffffff"
   bordercolor="#666666"
   borderopacity="1"
   objecttolerance="10"
   gridtolerance="10"
   guidetolerance="10"
   inkscape:pageopacity="0"
   inkscape:pageshadow="2"
   inkscape:window-width="3840"
   inkscape:window-height="2066"
   id="namedview12"
   showgrid="false"
   inkscape:zoom="1.2339205"
   inkscape:cx="396.85039"
   inkscape:cy="415.74803"
   inkscape:window-x="3829"
   inkscape:window-y="-11"
   inkscape:window-maximized="1"
   inkscape:current-layer="svg10" />
 <defs
   id="defs4">
  <style
   type="text/css"
   id="style2">
   <![CDATA[
    .fil0 {fill:#6F525E}
   ]]>
  </style>
 </defs>
 <g
   id="Layer_x0020_1"
   style="opacity:0.99;fill:#afdae6;fill-opacity:1">
  <metadata
   id="CorelCorpID_0Corel-Layer" />
  <path
   class="fil0"
   d="M208.903 82.0552c0,5.265 -1.0531,10.8662 -3.0747,16.763 -2.232,6.3593 -4.8013,10.4871 -7.6651,12.4664l6.907 1.9794 0 7.876 -5.6858 1.853c-0.6318,2.4007 -1.3476,6.4021 -2.1057,12.0033 -0.0846,5.8968 0.6318,11.6243 2.1057,17.142l5.6858 2.5688 0 7.5393 -111.526 56.5207 -72.0624 -61.8275c-8.1705,-6.9915 -12.0456,-18.3209 -11.6243,-34.073 0.0841,-4.9277 1.1794,-8.5073 3.201,-10.6975 1.0949,-1.2635 3.5797,-2.822 7.5388,-4.7173 2.8638,-1.3899 11.7084,-3.4533 26.5338,-6.1489l-19.2477 -9.0132 0 -6.1912 7.4129 -1.9371c1.558,-5.9385 2.3161,-11.9615 2.3161,-18.0264 0,-1.3898 -0.1263,-3.3692 -0.3367,-5.9385l-36.1787 -7.7492 0 -6.1912 4.7173 -0.59c1.7266,-4.5486 2.5693,-9.9394 2.5693,-16.1729 0,-6.3593 -0.8427,-11.8347 -2.5693,-16.4256l-4.7173 0 0 -4.5487 64.439 -7.2861 114.221 7.4125c5.4331,0.379 9.9399,2.7797 13.5196,7.0756 3.5801,4.3383 5.3913,9.94 5.3913,16.847 0,9.3923 -4.591,16.4679 -13.7305,21.227 7.4129,-0.0841 12.3824,0.8004 14.9517,2.6956 2.527,1.8953 4.7173,5.7276 6.528,11.498 1.6425,5.1804 2.4852,9.8554 2.4852,14.0667zm-5.8121 0.3791c0.084,-6.4439 -1.2636,-12.0451 -4.0856,-16.8047 -2.6111,-4.5063 -5.4331,-6.612 -8.5078,-6.2753l-69.3244 8.2551c2.8638,7.4965 4.2959,15.7516 4.2959,24.8066 0,9.6027 -1.4739,19.4163 -4.4223,29.3558l73.2836 -17.2678c2.2321,-0.5055 4.2119,-2.9061 5.9385,-7.2866 1.7267,-4.3377 2.6534,-9.3077 2.8221,-14.7831zm-118.307 -52.9411c0.1263,-7.2438 -1.8112,-12.9296 -5.8962,-17.0992 -4.0433,-4.1696 -9.0133,-5.9385 -14.8677,-5.349l-56.268 5.1804c1.8107,5.1804 2.7374,10.9085 2.7374,17.2678 0,6.2335 -0.9267,12.2983 -2.7374,18.1105l52.2248 8.4232c0.969,0.1687 1.9798,0.2109 2.9483,0.2109 5.9385,0 10.9926,-2.4852 15.2462,-7.4547 4.2119,-4.9699 6.4439,-11.4138 6.6126,-19.2899zm38.6211 62.9228c0,-9.055 -1.5162,-17.3101 -4.4641,-24.8066l-21.2269 -3.9591c-14.1514,1.9793 -24.0067,2.9901 -29.6085,2.9901 -1.3898,0 -2.4847,-0.0841 -3.201,-0.2527l-25.5647 -5.5594c0.2527,2.6956 0.379,4.7595 0.379,6.1494 0,6.1066 -1.0108,12.8455 -3.0747,20.2579l82.2968 34.5362c2.9479,-9.9395 4.4641,-19.7531 4.4641,-29.3558zm75.1371 63.681c-2.0639,-6.6966 -3.0747,-13.435 -2.9906,-20.258 0,-3.0324 0.674,-7.1179 1.9798,-12.2143l-101.797 34.7889c-1.6425,5.4331 -2.4424,11.8347 -2.4424,19.2476 0,8.8864 0.8844,17.6469 2.6951,26.281l102.555 -47.8452zm-105.25 47.8452c-1.7272,-8.6341 -2.6116,-17.3946 -2.6116,-26.281 0,-7.4129 0.8844,-13.8145 2.6116,-19.2476l-64.1864 -42.2013c-1.8952,-1.2212 -3.7487,-1.853 -5.5594,-1.853 -4.8436,0 -7.1602,3.9169 -7.0339,11.7507 0.2527,10.9925 2.6116,18.2786 7.0339,21.8164l69.7458 56.0158z"
   id="path7"
   style="fill:#afdae6;fill-opacity:1" />
 </g>
</svg>
