<svg version="1.1" viewBox="0 0 100.55 98.448" xmlns="http://www.w3.org/2000/svg"><g transform="translate(-.13092)" fill-rule="evenodd"><path transform="translate(-4.4464 -5.8516)" d="m7.513 62.193c-2.73 4.3788-1.9396 7.4375-0.97227 10.43l44.283 30.406 41.101-17.324-3.182-2.1213-0.70711-3.5355c1.1314-1.0925 2.1975-2.1719 2.9168-3.182 0.19776-1.2037 1.1075-2.7634-0.44194-3.0936l-46.934-22.981-32.085 10.165-1.5026 1.4142z" fill="#fff" stroke="#f60" stroke-width=".29055"/><path transform="translate(-4.4464 -5.8516)" d="m43.818 49.809-33.457 10.297s-0.42223 1.0774-0.90235 1.2871c-0.70042 0.306-2.2715-0.31055-2.2715-0.31055-1.3952 0.64589-2.4229 3.4556-2.582 6.0469-0.15912 2.5913 0.36948 5.1443 1.2227 6.0996l44.248 30.814c0.66242 0.37448 0.9988 0.25991 1.3359 0.14648l41.467-17.113c0.82061-0.37091 0.86191-1.2502 0.16601-2.1973l-4.0664-2.8223c0.32776 1.4767 0.56975 2.8704 0.39843 3.6816-8.0988 3.2448-26.941 10.879-37.668 15.457-0.83446-1.1623-0.92786-2.9451-1.0918-4.5176-0.18248-1.7504-0.0091-4.096 0.67969-5.1348 0.68881-1.0387 1.5227-0.0117 2.0664-0.26563 0.43849-0.20479 1.1134-0.67161 1.4785-1.2168 8.3321-2.7891 26.692-10.205 37.889-14.562 0.80476-0.82668 0.36365-1.3419-0.13867-1.8418zm-0.16406 2.082 45.609 22.76-35.646 13.613s-0.48828 0.81641-0.92578 0.97266c-0.37877 0.13527-0.95847-0.3899-1.373-0.5332-0.51012-0.17634-1.3599 0.14642-1.7246 0.71484-0.86812 1.3532-1.3931 3.0081-1.6699 4.5859-0.33319 1.8988-0.06808 3.7438 0.43555 5.418l-39.834-27.408c-0.90928-0.61828-1.8027-2.4593-1.6836-4.3984 0.12073-1.9661 0.60256-3.9927 1.8926-4.6152 0 0 1.4561 0.51505 1.9082 0.37891 0.50889-0.15326 1.125-1.2441 1.125-1.2441zm-32.101 12.572c-0.77273 0.32355 12.161 7.8854 18.955 11.949 6.5417 3.913 20.551 12.169 20.963 11.516 0.41208-0.65349-13.664-8.4307-20.18-12.342-6.5946-3.9586-18.965-11.446-19.738-11.123z" stroke-width="1.7716"/><path transform="translate(-4.4464 -5.8516)" d="m91.771 75.869-36.898 14.16c-0.28282 0.23543-1.0856 1.1255-1.6035 1.2344-0.60914 0.12804-1.2524-0.67842-2.0117 0.23828-0.63766 1.8202-0.71374 3.0698-0.5039 4.7676 0.27512 2.226 0.40889 2.8611 1.1426 4.834l37.422-15.18c0.51558-1.6188-0.24435-3.2098-0.48828-4.6504-0.08122-0.53612-0.06839-1.0095 0.18164-1.6074 0.25003-0.59794 1.1207-0.98421 2.041-1.9961 0.54596-0.60026 0.66656-1.2005 0.71875-1.8008zm-2.1348 1.9082c0.12971 0.70884-1.1541 0.60808-1.7793 1.3945-0.13121 0.16504-0.23152 0.3541-0.31445 0.55078-0.47681 0.16218-2.3072 0.78244-3.2812 1.1426-4.0542 1.4989-12.144 4.5672-12.043 4.8106 0.10062 0.24334 8.0442-3.1067 12.088-4.4258 1.037-0.33826 2.6329-0.83405 3.0703-0.9707-0.12398 0.5357-0.14191 1.045-0.10937 1.2598 0.19865 1.3112 0.38954 2.2254 0.36914 3.1445l-34.941 14.523c-0.50919-1.2322-0.86374-2.399-0.9375-3.6562 0.39389-0.14773 9.344-3.5059 14.045-5.4961 4.1303-1.7486 12.739-4.7896 12.572-5.0371s-8.7134 2.7661-12.832 4.6387c-4.4195 2.0094-12.726 5.0629-13.803 5.3613 0.0066-0.78936 0.12394-1.6194 0.4004-2.5332 0.25878 0.03288 1.2443 0.08277 1.5078 0.04102 0.58833-0.09324 1.0032-0.60561 1.5918-1.1875 1.3125-0.5 34.396-13.561 34.396-13.561zm-17.363 11.66c-4.3684 1.7608-15.816 6.5459-15.836 6.7676s11.681-4.5655 16.006-6.3262c3.9774-1.6192 13.974-5.3372 13.229-5.3745-0.74478-0.03734-9.6998 3.4421-13.399 4.9331z" stroke-width="1.7716"/><path transform="translate(-4.4464 -5.8516)" d="m9.104 44.869 3.2704-0.88389 34.825-0.26516 38.802 23.688-1.591 0.88388-1.591 4.6846c0.45667 1.2669 0.41906 3.5224 1.5026 3.5355l-48.437 11.932-28.991-34.118c0.42907-3.255-0.75811-7.0488 2.2097-9.4576z" fill="#fff" stroke="#f00" stroke-width=".29055"/><path transform="translate(-4.4464 -5.8516)" d="m47.486 42.789-35.639 0.34571c-0.23161 0.32998-0.78472 0.81626-1.0547 0.87695-0.28391 0.06383-1.0536-0.56073-1.5254-0.37891-2.1398 0.82459-2.3591 3.336-2.7266 4.7285-0.66074 2.5036-0.07168 6.3102 0.68164 7.4414 1.125 1.3125 26.792 31.698 27.771 32.664 1.1314 1.1159 2.1679 1.2682 4.0547 0.77539 8.4253-2.2005 32.944-7.542 48.434-11.758 0.91349-0.47787 0.53794-1.2682-0.13086-1.9024l-3.7148-2.2559c0.01724 1.0157 0.16176 1.9414 0.46094 2.8945-14.394 3.3198-31.538 7.0544-46.137 10.34-1.2699-0.4468-2.5564-2.4397-2.7031-3.4785-0.40598-2.8742 0.13524-4.2374 0.6875-5.0371 0.54998-0.79641 0.97305-1.2784 1.4766-1.5918 0.55642 0.05723 1.3794 0.29469 1.8691 0.11132 0.51899-0.19431 0.88223-0.5733 1.2637-0.92773l46.328-7.2305c0.7198-0.54389 0.2569-1.3057-0.10156-1.6309zm-0.41797 2.082 36.238 22.145-43.861 6.7441c-0.48295 0.24661-0.65235 0.80823-0.86718 0.88867-0.21484 0.08043-0.9057-0.08245-1.4883-0.13867-1.2098 0.35582-2.7767 2.5498-3.1582 4.1074-0.87254 3.5624-0.20128 5.3987 1.3828 7.9336l-26.359-31.67c-0.63659-0.96918-0.99732-2.5941-0.57422-5.2363 0.20991-1.3108 0.6539-2.5788 1.3281-3.6582 0.42636 0.03262 0.80618 0.33484 1.5176 0.10547 0.91606-0.29536 0.9001-0.99274 1.1191-1.0762zm-35.207 2.3542c-0.4918 0.44787 8.2364 8.8096 12.541 13.29 4.3556 4.5341 12.492 13.936 13.139 13.438 0.64659-0.49882-7.9944-9.6477-12.332-14.16-4.1916-4.3606-12.856-13.016-13.347-12.568z" stroke-width="1.7716"/><path transform="translate(-4.4464 -5.8516)" d="m85.621 68.604c-15.169 2.179-37.081 5.4866-45.057 6.9883-0.31979 0.4392-0.85766 0.8202-1.5391 0.97851-0.25779 0.05989-0.8873-0.06006-1.5977-0.12304-1.6791 1.0933-2.3958 3.3425-2.1699 5.4199 0.28921 2.6594 1.3744 3.6836 2.8057 4.707 15.36-3.4074 30.719-6.2108 46.079-10.35-1.1104-3.4523-0.06768-5.4947 1.4785-7.6211zm-3.2578 1.9043c-0.58068 1.127-0.67621 1.8733-0.51172 3.1387-0.32558 0.06119-3.9699 0.74379-5.9199 1.125-2.3708 0.46347-6.981 1.1332-6.9883 1.4766-0.0073 0.34338 4.7965-0.4427 7.1504-0.92969 1.7377-0.35953 4.9758-0.74919 5.8047-1.373 0.04398 0.29463 0.08441 0.57533 0.15039 0.9375l-43.518 10.242c-0.56058-0.33969-1.0429-1.0054-1.3906-1.7109 0.74643-0.1452 7.7394-1.5031 11.43-2.0781 4.2487-0.66209 12.711-2.4872 12.594-2.791-0.11699-0.30379-8.0759 1.7401-12.662 2.2188-3.8154 0.39823-10.95 1.8838-11.629 2.0254-0.1331-0.37406-0.23126-0.73796-0.25196-1.0469-0.1075-1.6047-0.14845-2.6888 1.2578-4.1074 0.30362 0.24703 0.97449 0.4085 1.5117 0.29296 0.78102-0.16796 1.1393-0.3692 1.623-0.90429zm-5.543 2.5137c-0.7664-0.13863-11.032 1.8048-16.334 2.6445-7.2898 1.1545-21.942 3.0722-21.773 3.498s14.789-1.8587 22.139-3.0742c5.5808-0.92291 16.735-2.9297 15.969-3.0684z" stroke-width="1.7716"/><path transform="translate(-4.4464 -5.8516)" d="m46.05 29.667-38.007 5.3917c-1.2853 3.3162-3.3196 6.2205-0.08839 12.021l39.775 30.229 44.901-13.347-3.3588-1.8562c0.08092-3.4835 0.96134-6.5305 2.8284-10.253z" fill="#fff" stroke="#f60" stroke-width=".29055"/><path transform="translate(-4.4464 -5.8516)" d="m46.084 29.062-37.715 5.0078c-1.937 0.55403-3.0426 4.7878-2.959 7.3477 0.06539 2.0023 1.1686 5.1723 2.4219 6.5586l40.16 30.543 46.559-13.525c0.58576-0.7623 0.29875-1.1755 0.07813-1.6152l-4.3828-2.6602s0.10351 1.9121-0.02148 3.1621c-11.97 3.1417-30.898 8.3305-42.09 11.482-0.68931-0.69239-1.6288-3.3659-1.6816-5.0801-0.09013-2.9259 0.35446-4.7783 1.4902-5.8047l46.787-10.535c0.54299-0.35184 0.60692-1.2186-0.18554-1.9844zm-0.12695 1.6133 44.457 21.727-44.49 9.8984c-1.5685 1.9145-1.962 4.0135-1.9258 6.1152 0.03025 1.7563 0.50777 4.3446 1.3476 5.7168l-36.232-27.943c-0.89862-0.80993-1.5521-3.3771-1.5547-4.5234-0.00404-1.7676 0.59971-3.5081 1.6328-5.7266zm-34.779 6.5424c-0.92648 0.40486 14.931 11.706 14.931 11.706s18.415 13.411 18.639 12.787c0.22357-0.62403-17.334-14.025-17.334-14.025s-15.31-10.872-16.236-10.467z" stroke-width="1.7716"/><path transform="translate(-4.4464 -5.8516)" d="m92.596 54.408-2.0176 0.45313-42.121 9.3555c-0.77248 0.83366-2.0673 2.4882-1.6641 6.0859 0.20658 1.843 0.67467 3.4994 1.8027 4.9727l41.635-11.375c0.17088-1.069 0.01681-3.2126 0.15039-4.7598 0.13359-1.5472 0.63843-2.1062 1.1504-2.959zm-3.2832 2.2266c-0.21501 0.76866-0.5359 1.4849-0.68555 2.2852-0.50567-0.01762-1.2533-0.03268-1.6914 0.05859-2.575 0.53649-7.7104 1.9635-7.5606 2.2598s4.8037-1.3944 7.748-1.5781c0.42595-0.02657 0.98372 3e-3 1.4082 0.03125-0.04004 0.4814-0.06099 0.87426-0.07813 1.2598-4.5746 1.1523-9.6638 2.3894-14.225 3.5117-5.8726 1.4451-14.612 3.3424-14.5 3.8301 0.11239 0.48764 8.8441-1.8913 14.674-3.3262 4.5578-1.1218 9.4585-2.1866 14.033-3.3301 0.0053 0.31092 0.02348 0.59269 0.07422 0.8164l-38.838 10.557c-1.2221-0.49078-1.2302-1.8001-1.3633-2.8047-0.20119-1.5186-0.20359-3.2696 0.80274-4.082zm-22.281 6.793c-6.4068 1.5816-18.136 4.6854-18.031 4.9961 0.10431 0.31074 11.793-2.8482 18.123-4.5664 3.3472-0.90863 10.211-2.5921 9.5992-2.7546-0.61139-0.16245-6.5575 1.5514-9.691 2.3249z" stroke-width="1.7716"/><path transform="translate(-4.4464 -5.8516)" d="m51.972 18.53-36.681 10.43s-0.44194 1.4142-0.97227 1.3258-2.74-0.08839-2.74-0.08839c-1.9665 2.5078-2.0103 4.8874-0.44194 7.1595l52.326 25.633 39.068-14.142-1.7678-1.5026 1.8562-2.74 0.0884-4.331z" fill="#fff" stroke="#f60" stroke-width=".29055"/><path transform="translate(-4.4464 -5.8516)" d="m52.002 17.885c-12.332 3.4319-26.273 7.1208-37.496 10.08-0.2188 0.13889-0.29897 0.67871-0.77734 1.168-0.20848 0.21322-1.0825-0.23648-1.3926-0.20117-0.48568 0.05531-1.0458 0.46327-1.4375 0.80859-0.53424 0.47096-0.69443 0.93277-0.93164 1.5879-0.24497 0.67654-0.23828 1.4295-0.29297 2.2734-0.10938 1.6879 0.20375 3.6655 0.91015 4.5938 17.318 8.5665 35.859 18.102 52.436 26.17 0.3485 0.26983 1.1276 0.31141 1.5703 0.23633 0.44273-0.07508 0.82048-0.22313 0.95899-0.51953 0.08798-0.18827 0.35116-0.54824 0.63867-0.73633 0.29253-0.19137 0.56988 0.29465 1.2285 0.28321l36.213-13.855c0.40371-0.15448 0.66901-0.74011 2e-3 -1.2774l-2.3086-1.4844-1.1562 1.7324c-10.755 3.6959-22.901 8.1527-34.273 12.318-0.86826-0.18559-1.873-2.0148-1.9258-2.877-0.05894-0.96169 0.42794-2.0674 0.72656-2.543 12.623-4.7015 26.366-9.3733 40.027-14.217 0.64138-0.36157 0.45604-0.93096-0.0996-1.5918zm-0.06055 1.5976 49.111 21.418-36.631 12.627c-0.8395 0.31676-1.3591 0.99502-1.8008 1.6406-0.57452 0.83972-0.96887 2.092-0.87695 3.5918 0.085 1.387 0.42999 2.3214 0.89843 3.0723l-50.51-25.021c-0.66647-0.98039-0.63924-1.8734-0.57422-3.0488 0.05115-0.92462 0.304-1.7349 0.84571-2.4199 0.06394-0.08086 0.78477-0.63042 1.5352-0.20508 0.31041 0.17595 0.61212 0.18191 1.1406-0.19727 0.65079-0.4669 0.42377-0.89446 0.87305-1.2559l35.988-10.201zm-36.311 11.398c-0.12624-0.02363-0.20125-0.01833-0.22266 0.01563-0.34243 0.5432 14.42 7.5634 21.736 11.133 8.0861 3.9447 24.197 11.813 24.484 11.359 0.28698-0.4539-16.036-8.3719-24.172-12.32-6.8271-3.3132-19.933-9.833-21.826-10.188z" stroke-width="2.4803"/><path transform="translate(-4.4464 -5.8516)" d="m103.46 41.895c-13.361 4.3705-31.857 11.296-38.65 13.633-0.76858 0.84464-0.71224 1.9197-0.45703 2.9102 0.2552 0.9905 1.0702 2.3687 1.6621 2.6074l34.459-12.35c0.26244-0.36298 1.366-1.3848 2.1035-2.5195 0.36877-0.56734 0.6543-1.5007 0.79883-2.1191s0.38241-1.7155 0.084-2.1621zm-1.2852 1.2715c0.25532 0.81069-0.3075 1.4457-0.68945 2.0703-0.60792 0.99417-1.4168 1.989-1.9512 2.7012l-33.066 11.857c-0.53268-0.27937-0.96061-0.88601-1.1465-1.6074-0.19082-0.74059-0.1274-1.5326 0.08594-1.8711zm-17.527 7.0508c-5.7447 2.0967-17.307 5.8307-17.141 6.4512s11.654-3.8999 17.451-6.0234c5.4543-1.9978 15.827-5.7952 15.621-6.0497s-10.767 3.7371-15.931 5.622zm14.895-3.4024c-0.1253-0.1546-4.2908 1.2975-6.3398 2.0781-1.9287 0.73478-26.881 9.6635-26.766 9.9707s25.142-8.8006 27.094-9.5352c2.0324-0.76504 6.137-2.3591 6.0117-2.5137z" stroke-width="1px"/><path transform="translate(-4.4464 -5.8516)" d="m54.978 6.4204-41.012 8.1317c-2.9989 2.8982-4.0667 6.532-2.1213 11.314l41.631 27.754 48.348-12.198-4.2426-3.0052-0.35356-4.5962 3.8891-5.3033z" fill="#fff" stroke="#f60" stroke-width=".29055"/><path transform="translate(-4.4464 -5.8516)" d="m55.152 5.8516-42.176 8.2051s-2.7762 3.1451-2.7324 6.3828c0.04252 3.1478 0.41311 5.0176 1.3144 5.9199 1.3138 0.91567 41.91 28.377 41.91 28.377l48.922-12.873c0.5045-0.61966 0.13287-1.0933-0.24218-1.5664l-3.7441-1.6816 0.32617 1.7109c-14.414 3.8257-29.634 7.7742-44.27 11.406-0.19903-0.84807-0.89184-3.2196-0.95703-4.0488-0.24892-3.1658 1.856-6.0602 2.1328-6.4277l46.244-10.955c0.50623-0.68115 0.36172-1.5821-0.18164-2.1133zm-0.11914 1.4707 44.002 21.391-44.33 11.088s-3.3447 3.3447-3.0527 7.8184c0.10706 1.6403 0.97302 3.9406 1.1328 4.5644l-39.549-26.375c-0.80751-0.83822-1.0658-2.5371-1.1055-5.4766-0.0257-1.9023 1.4715-4.4616 1.6973-4.6602zm-40.463 8.6035c-0.23217 0.47077 12.561 8.0626 18.969 11.879 6.7833 4.0398 19.998 12.201 20.605 11.689 0.60705-0.51149-13.192-8.4387-19.916-12.443-6.4672-3.8515-19.426-11.596-19.658-11.125z" stroke-width="2.126"/><path transform="translate(-4.4464 -5.8516)" d="m100.97 30.199c-0.13862 0.01613-0.289 0.08418-0.36719 0.10351l-44.611 10.857c-1.0348 1.7182-2.0658 3.4191-2.2617 5.2637-0.18401 1.7328 0.68087 4.012 0.99218 5.5449l44.016-11.562c-0.33462-1.7092-0.55903-3.2723-0.57813-4.6582-0.02325-1.6869 0.75018-2.931 1.5098-3.8027 0.37979-0.43584 0.67002-0.5354 0.96875-0.75 0.24957-0.17928 0.53941-0.32377 0.64062-0.49609 0.0474-0.08069 0.0294-0.14334-2e-3 -0.29688-0.0373-0.18441-0.16733-0.21933-0.30664-0.20312zm-3.8809 2.1875c-0.67616 0.82655-0.85377 1.4378-0.89453 2.0801-2.9492 0.43033-12.367 2.4751-17.479 3.6445-5.9443 1.3599-17.812 4.2627-17.723 4.5684 0.08981 0.30567 12.009-2.4817 17.979-3.8477 5.1016-1.1674 14.285-3.2076 17.213-4.0664-0.0013 0.38349 0.01774 0.78548 0.01953 1.2715 0.0078 2.1192 0.31123 2.856 0.39454 3.2363l-41.057 10.268c-0.14144-0.38037-0.22676-0.68849-0.29102-0.97852 0.87353 0.0075 3.5458-0.49981 4.9707-0.84961 1.8499-0.45413 8.0053-2.194 7.9785-2.4453s-6.3182 1.4039-8.2227 1.8711c-1.3992 0.34324-3.967 0.84717-4.7695 1.1816-0.09457-0.56917-0.08183-1.0964-0.0293-1.9238 0.12662-1.9945 1.0386-3.1983 1.1894-3.4258zm-24.48 9.6953c-5.1818 1.1384-15.462 3.2177-15.438 3.6641 0.02415 0.44637 10.469-1.7875 15.65-2.9258 5.7538-1.2641 17.264-3.9797 16.446-4.1224-0.81792-0.14268-11.266 2.1992-16.659 3.3841z" stroke-width="1px"/></g></svg>
