<?xml version="1.0" encoding="utf-8"?>

<!DOCTYPE svg PUBLIC "-//W3C//DTD SVG 1.1//EN" "http://www.w3.org/Graphics/SVG/1.1/DTD/svg11.dtd">
<svg version="1.1"
	 id="svg4805" xmlns:cc="http://creativecommons.org/ns#" xmlns:dc="http://purl.org/dc/elements/1.1/" xmlns:rdf="http://www.w3.org/1999/02/22-rdf-syntax-ns#" xmlns:svg="http://www.w3.org/2000/svg"
	 xmlns="http://www.w3.org/2000/svg" xmlns:xlink="http://www.w3.org/1999/xlink" x="0px" y="0px" viewBox="0 0 2560 697.857"
	 enable-background="new 0 0 2560 697.857" xml:space="preserve">
<g id="layer1" transform="translate(-3.9233808e-5,-324.7383)">
	<g id="g6331" transform="matrix(10.178432,0,0,10.178432,-2.7845684e-4,324.73834)">
		<g id="layer1-1" transform="translate(-2543.2665,-764.1814)">
			<g id="g5907" transform="matrix(0.10907796,0,0,0.10907796,2396.6525,752.38119)">
				<path id="path5310" fill="#101010" d="M2082.274,733.799c-392.751,0.826-676.988,0.092-681.755-1.761
					c-1.927-0.749-3.445-2.143-3.719-3.415c-0.255-1.182-0.609-10.025-0.788-19.65c-0.52-27.915-0.695-14.655-14.413-42.136
					c-4.966-9.948-7.015-15.87-7.733-22.344c-0.799-7.211-2.449-9.967-7.353-12.275c-3.818-1.798-8.543-8.888-8.092-12.142
					c0.309-2.23-1.171-8.346-2.385-9.852c-1.515-1.88-5.472-0.385-8.901-3.16c-2.308-1.867-2.368-2.336-2.687-20.883l-0.326-18.973
					c6.767-4.543,4.494-3.017,8.653-5.809c1.845-140.231,0.394-199.827,0.329-198.926c1.598-22.108,0.653-44.547,0.155-66.678
					c-0.323-14.357-0.168-141.176,0.553-143.057c2.182-5.686,30.259-14.858,61.463-9.312c10.741,1.909,16.08,1.913,23,0.017
					c12.763-3.497,52.422-2.736,60.639,1.164c3.711,1.761,9.473,9.693,10.757,14.809c0.405,1.615,1.607,4.158,2.67,5.651
					c3.033,4.26,0.864,3.921,4.568,6.834c2.29,1.802,4.023,2.072,13.25,2.07c24.592-0.004,33.833,4.467,52.396,1.91
					c21.642-2.981,48.669,0.215,80.719-1.318c13.495-0.646,17.852-0.501,23.924,0.793c8.858,1.888,14.293,5.205,16.018,9.776
					c26.377,69.891,24.11,55.788,24.872,67.621c1.031,16.038,2.481,173.962,1.692,183.22c-0.46,5.399-0.235,6.904,1.327,8.887
					c0,0,1.881,2.387,1.881,2.387c1.461-2.133,3.244-4.214,4.454-6.451c2.633-4.868,4.427-10.432,6.592-15.529
					c48.644-114.564,6.123-17.63,81.086-189.4c2.844-6.515,5.824-12.971,8.615-19.509c1.478-3.463,12.043-33.384,18.729-33.384
					c0.901,0,24.599,3.619,36.182,10.634c1.834,1.111,4.165,3.366,6.474,3.366c2.233,0,6.405-4.406,8.532-9.009
					c4.502-9.746-16.753-7.704,416.382-9.321c23.842,13.941,22.835,17.357,20.006,23.389c-1.812,3.863-2.06,6.131-1.91,17.441
					c0.406,30.584,7.44,41.136,10.057,32.401c1.155-3.855,0.139-9.433,0.129-13.469c-0.208-83.812,0.557-82.841,1.885-86.736
					c4.221-12.382,21.921-10.031,31.799-10.15c24.914-0.299,122.956-0.541,131.686,0.497c13.927,1.657,14.559,3.128,14.672,34.174
					c0.088,24.177,0.792,34.059,2.554,35.821c1.58,1.58,36.547,1.144,43.361,2.944c3.492,0.922,8.472,0.911,22.23-0.05
					c19.21-1.342,40.775-0.799,45.017,1.134c5.355,2.44,5.188-0.942,5.833,117.933c0.33,60.775,0.948,111.968,1.378,113.774
					c1.71,7.169,4.529,1.031,6.765-2.547c0.536-0.753,71.955-117.079,72.401-117.806c27.655-45.105,37.732-70.696,79.427-107.021
					c4.792-4.175,9.31-8.705,10.039-10.067c1.486-2.776,16.301-15.056,25.295-20.967c13.395-8.803,11.037-8.872,21.762-8.844
					l8.646,0.022c5.863,2.892,30.82,15.043,34.381,17.578c2.706,1.927,6.828,1.867,6.828-0.099c0-1.085,13.42-16.925,15.171-19.024
					l6.164,0.013c8.662,0.018,23.008,3.225,30.562,6.832c5.972,2.851,6.586,2.957,9.233,1.588c1.56-0.807,3.569-2.921,4.465-4.7
					c2.048-4.064,7.102-9.483,10.513-11.27c3.868-2.028,21.053-5.303,36.014-6.865c14.606-1.525,12.192-0.321,23.878-11.91
					c6.411-6.358,8.295-4.898,11-7.201c7.155-6.094,46.408-8.237,71.5-3.904c24.578,4.244,19.977-3.223,61.309-1.046
					c9.765,0.514,24.926,1.217,30.813,10.403c3.668,5.724,1.932,8.529,4.565,53.061c9.207,0,46.52-0.517,58.313,3.581
					c5.293,1.84,6.777,1.782,16.09-0.626c11.524-2.979,31.065-3.583,51.037-1.576c44.415,4.463,48.337-1.635,54.402-12.529
					c6.432-11.553,6.499-11.664,8.167-13.593c0.835-0.966,3.155-5.132,5.154-9.257c5.272-10.878,8.397-13.181,11.317-18.751
					c6.493-12.385,55.475-14.757,79.907-8.62c9.54,2.396,10.925,4.724,10.93,18.371c0,11.053,1.14,15,4.316,15
					c0.963,0,6.909-0.99,13.215-2.201c15.344-2.946,45.83-3.19,59.328-0.475c14.927,3.002,15.766,3.541,21.677,13.937
					c2.604,4.581,4.378,5.772,4.28,11.254c-1.605,90.269,1.573,188.206-0.499,257.776c-1.09,36.608,0.246,101.069,0.282,101.977
					c0.21,5.216,0.091,5.133,8.723,6.085c8.015,0.884,9.374,3.695,11.063,22.892c0.568,6.46,1.525,12.664,2.127,13.788
					s0.811,2.933,0.465,4.022c-0.827,2.605-7.284,5.827-13.229,6.603c-2.614,0.341-5.525,1.015-6.471,1.499
					c-2.235,1.147-3.153,5.627-3.422,7.833c-0.492,4.031-0.146,6.958-2.805,10.451c-1.822,2.394-4.103,4.421-5.809,6.9
					c-2.693,3.913-2.003,8.609-3.214,13.039c-1.295,4.74-3.151,9.335-5.234,13.778c-8.301,17.705-14.741,23.125-21.971,30.355
					c-1.11,32.309-0.971,35.576-3.129,37.733C3575.515,742.176,3269.365,731.304,2082.274,733.799z M3566.619,720.101
					c2.296-1.906,2.235-10.2-0.096-13.034l-1.75-2.128c-2284.763-2.957-2155.053-7.084-2154.961,5.705
					c0.046,6.444,1.324,7.952,7.89,9.315c8.117,1.685,849.171,0.105,850.072,0.041
					C2294.575,718.103,3561.147,724.643,3566.619,720.101L3566.619,720.101z M3029.189,682.079c3.685-4.652,3.83-6.703,0.794-11.208
					c-7.852-11.65-12.68,11.608-8.71,14.122C3024.045,686.748,3026.087,685.996,3029.189,682.079z M3381.716,683.751
					c1.998-2.852,1.964-3.614-0.444-10.05c-2.92-7.806-4.167-9.244-6.793-7.838c-5.242,2.806-4.938,13.817,0.501,18.095
					C3378.271,686.547,3379.79,686.5,3381.716,683.751z M2594.563,678.084c5.519-5.348,12.71-16.483,12.71-19.681
					c0-0.825,0.725-2.607,1.61-3.958c1.154-1.761,1.417-3.523,0.93-6.215c-1.061-5.861-0.711-10.828-2.182-12.299
					c-1.525-1.525-26.249-3.191-35.628-2.401c-10.535,0.888-12.256,2.325-12.085,10.098c0.123,5.609,0.76,7.423,6.961,19.845
					c0.824,1.65,1.918,3.675,2.431,4.5c1.565,2.516,3.542,8,4.751,8c0.49,0,1.373,1.058,1.962,2.351
					c1.257,2.759,8.733,6.756,11.107,5.937C2588.034,683.95,2591.379,681.17,2594.563,678.084z M2795.093,679.753l2.67-4.721
					c-4.846-8.87-5.905-11.735-10.046-7.594C2781.773,673.382,2786.987,694.082,2795.093,679.753L2795.093,679.753z
					 M2941.196,683.513c4.092-2.116,10.25-9.921,14.628-18.54c3.398-6.689,3.853-8.473,4.212-16.5
					c0.56-12.537,0.46-12.635-13.875-13.639c-14.964-1.049-31.531-0.075-33.58,1.973c-5.369,5.369,7.307,27.331,10.704,33.497
					c2.067,3.752,12.697,14.669,14.283,14.669C2938.011,684.973,2939.643,684.316,2941.196,683.513L2941.196,683.513z
					 M3001.53,682.308c8.709-10.346,16.412-16.544,17.418-34.55c0.78-13.952,1.87-13.313-22.436-13.156
					c-13.175,0.085-20.667,0.529-22.127,1.311c-8.503,4.551-1.223,26.135,14.945,44.31
					C2994.392,685.913,2997.979,686.526,3001.53,682.308L3001.53,682.308z M3322.958,682.799c2.564-2.409,3.074-6.95,0.976-8.691
					c-0.736-0.611-1.879-2.916-2.54-5.122c-0.988-3.297-1.649-4.012-3.711-4.012c-1.982,0-2.914,0.892-4.438,4.25
					c-2.751,6.061-2.475,8.448,1.427,12.35C3318.655,685.556,3319.838,685.731,3322.958,682.799z M1764.568,682.624
					c11.159-4.662,33.88-41.783,15.992-49.317c-3.172-1.336-6.736-1.509-21.963-1.068c-9.997,0.29-18.66,0.825-19.25,1.19
					c-0.643,0.398-1.073,4.505-1.073,10.257c0,8.668,0.292,10.182,3.026,15.691c5.012,10.099,9.65,17.071,13.927,20.936
					C1759.783,684.428,1760.076,684.501,1764.568,682.624z M1853.698,682.826c5.51-2.511,5.58-12.682,0.122-17.809
					c-2.113-1.985-2.728-2.138-4.083-1.013c-4.953,4.111-5.848,12.171-1.875,16.893
					C1850.847,684.443,1850.443,684.309,1853.698,682.826z M1976.371,676.228l-2.248-4.627c-4.313-8.878-7.664-3.248-11.909,2.318
					c1.514,2.398,5.695,9.625,8.796,10.025C1971.321,683.983,1976.198,676.489,1976.371,676.228z M2021.366,646.815
					c1.275-8.22,0.395-11.325-3.645-12.861c-3.293-1.252-35.566-0.98-41.538-0.98c-2.589,2.588-5.237,4.738-4.37,6.794
					c1.385,3.282,2.304,14.815,5.664,19.402c4.277,5.839,12.955,24.69,20.633,24.787
					C1999.011,683.967,2017.439,672.128,2021.366,646.815z M2118.874,681.139c8.583-6.239,16.353-17.878,17.996-26.958
					c1.061-5.865,3.404-7.362,3.404-13.134c0-6.756-2.162-7.507-22.791-7.923c-21.592-0.435-25.916,0.112-27.448,3.476
					c-1.436,3.152,0.691,13.184,4.373,20.625c1.077,2.177,2.983,5.891,3.771,7.35c3.463,6.409,14.282,19.4,16.157,19.4
					C2114.687,683.973,2116.729,682.698,2118.874,681.139L2118.874,681.139z M2325.702,682.402
					c2.551-2.551,2.044-10.269-0.965-14.696c-1.395-2.053-2.925-3.732-3.401-3.732c-0.883,0-4.859,5.934-6.329,9.446
					c-1.133,2.708,0.99,7.335,4.154,9.055C2322.564,684.323,2323.795,684.309,2325.702,682.402L2325.702,682.402z M2443.197,681.384
					c3.719-3.13,3.763-3.881,0.592-10.194c-4.177-8.316-6.263-8.843-10.265-2.593c-3.204,5.005-2.761,7.844,2.049,13.126
					C2438.202,684.61,2439.428,684.555,2443.197,681.384L2443.197,681.384z M2559.17,680.438c1.707-1.944,3.104-3.786,3.104-4.092
					c0-0.307-0.9-1.702-2-3.1c-1.1-1.398-2-3.355-2-4.349c0-3.303-2.246-3.333-5.163-0.068c-3.341,3.74-3.923,10.287-1.182,13.315
					C2554.295,684.76,2555.657,684.439,2559.17,680.438L2559.17,680.438z M2677.114,682.372c3.859-2.703,4.519-6.063,2.013-10.256
					c-4.546-7.607-8.257-10.103-9.506-6.393c-0.723,2.147-3.512,8.06-4.523,10.242
					C2670.673,683.004,2672.19,685.821,2677.114,682.372L2677.114,682.372z M2885.608,678.723
					c5.846-6.217,11.665-14.591,11.665-16.787c0-0.86,0.518-2.081,1.151-2.714c1.491-1.491,3.078-9.337,3.23-15.964
					c0.201-8.782,0.184-8.788-24.782-8.769c-23.534,0.018-24.07,0.148-25.193,6.136c-1.194,6.364,8.188,26.094,14.929,31.396
					c1.466,1.153,2.666,2.704,2.666,3.446c0,1.727,7.874,8.505,9.879,8.505C2879.988,683.973,2882.893,681.611,2885.608,678.723
					L2885.608,678.723z M2973.073,682.773c2.064-2.064,1.321-6.242-1.886-10.603c-3.488-4.743-5.112-5.179-7.357-1.974
					c-2.343,3.345-1.893,6.325,1.547,10.243C2968.594,684.103,2971.01,684.836,2973.073,682.773L2973.073,682.773z
					 M3059.032,681.842c3.339-4.089,9.24-10.721,9.24-11.939c0-0.521,1.354-2.818,3.01-5.103c3.871-5.344,5.99-12.574,5.99-20.438
					c0-9.577,0.466-9.39-23.349-9.39c-25.25,0-25.195-0.023-24.333,10.249c0.32,3.822,1.28,8.014,2.133,9.315
					c0.852,1.301,1.55,2.908,1.55,3.572c0,1.664,2.435,3.364,5.466,8.334c4.484,7.351,10.9,14.783,13.881,16.081
					C3056.798,684.341,3057.01,684.318,3059.032,681.842L3059.032,681.842z M3088.522,680.82c2.565-3.032,2.172-5.504-1.837-11.543
					c-4.216-6.351-5.529-6.019-7.91,1.998c-1.988,6.693-1.901,8.301,0.583,10.785
					C3081.849,684.549,3085.822,684.012,3088.522,680.82z M3176.908,681.575c3.438-2.336,6.867-6.909,12.811-17.085
					c2.348-4.02,2.998-6.488,3.362-12.771c0.248-4.283,0.843-8.03,1.321-8.326c1.747-1.08,0.802-4.328-1.869-6.43
					c-2.651-2.085-3.42-2.141-23.84-1.731c-11.605,0.233-21.622,0.747-22.26,1.141c-0.653,0.403-1.16,3.121-1.16,6.21
					c0,4.595,0.882,7.323,5.396,16.691c5.796,12.028,10.075,18.127,15.548,22.16C3170.498,684.59,3172.433,684.615,3176.908,681.575
					L3176.908,681.575z M3239.029,676.832c15.721-23.667,9.09-19.205,12.75-26.223c1.697-3.254,1.971-9.876,0.521-12.585
					c-1.395-2.606-5.398-3.08-26.61-3.15c-18.249-0.06-18.926,0.01-20.642,2.129c-2.153,2.659-2.296,9.434-0.275,12.97
					c0.786,1.375,1.445,3.407,1.465,4.515c0.041,2.307,3.296,8.728,6.415,12.654c1.166,1.468,3.245,4.546,4.62,6.841
					c3.302,5.51,9.447,9.99,13.704,9.99C3233.97,683.973,3234.738,683.293,3239.029,676.832z M3263.905,681.892
					c4.199-2.595,4.219-4.419,0.118-10.555c-3.981-5.957-6.92-6.782-8.715-2.447c-0.688,1.66-1.877,3.538-2.642,4.173
					c-2.094,1.738-1.686,4.408,1.197,7.834C3256.9,684.507,3259.289,684.744,3263.905,681.892L3263.905,681.892z M3291.619,681.096
					c8.434-6.702,18.961-25.101,20.097-35.122c1.093-9.648-0.492-10.329-25.212-10.826c-14.868-0.299-19.63-0.088-20.847,0.922
					c-1.251,1.038-1.499,2.872-1.197,8.856c0.325,6.455,1.006,8.813,4.702,16.297c2.377,4.813,4.712,8.75,5.191,8.75
					c0.478,0,1.514,1.237,2.302,2.75c1.791,3.438,8.963,11.25,10.327,11.25C3287.54,683.973,3289.627,682.678,3291.619,681.096
					L3291.619,681.096z M3413.172,678.393c2.805-3.069,5.1-6.141,5.1-6.826s1.12-2.298,2.49-3.584
					c5.084-4.777,11.685-27.099,5.198-31.224c-1.762-1.12-39.135-0.946-42.14,0.196c-7.156,2.72-3.138,15.139,0.15,20.238
					c1.518,2.354,3.921,6.53,5.34,9.28c2.819,5.462,9.177,14.268,11.733,16.25C3404.508,685.41,3407.849,684.217,3413.172,678.393
					L3413.172,678.393z M3441.091,680.183c1.336-4.459,0.237-9.597-2.906-13.594c-2.668-3.392-4.16-3.298-7.323,0.461
					c-3.857,4.583-3.278,8.278,2.22,14.173C3436.826,685.238,3439.688,684.867,3441.091,680.183L3441.091,680.183z
					 M3580.132,680.881c5.755-3.155,13.238-11.358,15.231-16.696c1.944-5.207,4.22-8.699,5.932-15.712
					c1.376-5.636,0.789-6.03-1.921-12.5c-5.958,0-35.11,0-41.062,0c-6.164,12.083-3.262,6.031-1.496,21.5
					c1.077,9.433,11.769,26.5,16.6,26.5C3574.008,683.973,3577.03,682.582,3580.132,680.881L3580.132,680.881z M1619.351,680.05
					c3.575-3.575,3.915-8.546,0.85-12.442c-2.746-3.491-4.527-3.323-6.522,0.615c-2.944,5.811-4.933,5.509-3.943,9.454
					C1611.263,683.762,1614.773,684.628,1619.351,680.05L1619.351,680.05z M1708.074,681.551c2.491-1.312,6.335-5.737,12.663-14.578
					c8.96-12.517,11.122-31.306,3.918-34.045c-2.824-1.074-31.485-1.172-38.319-0.131c-4.006,0.61-4.524,1.009-5.323,4.096
					c-1.463,5.657,0.592,16.893,4.565,24.958C1694.615,680.196,1700.636,685.468,1708.074,681.551L1708.074,681.551z
					 M1738.205,678.601c1.094-2.043,1.116-3.097,0.119-5.505c-1.625-3.924-4.373-6.32-6.368-5.554
					c-3.567,1.369-4.05,10.906-0.69,13.627C1733.859,683.268,1736.164,682.415,1738.205,678.601z M1796.085,680.934
					c2.895-2.697,2.972-8.743,0.15-11.772c-2.531-2.717-6.539-2.846-7.926-0.254c-1.143,2.136-1.424,12.344-0.369,13.399
					C1789.318,683.684,1793.976,682.899,1796.085,680.934z M1905.294,644.458c0.553-8.415-2.737-10.9-10.14-11.694
					c-9.518-1.022-19.141-1.053-28.666-0.093c-14.331,1.445-11.934,8.993-6.816,22.521c2.931,7.748,12.723,26.934,20.968,27.061
					C1887.394,682.357,1903.859,666.296,1905.294,644.458z M1914.902,680.617l2.74-2.356c-3.131-7.654-3.634-9.743-6.629-10.098
					c-2.064-0.244-2.958,0.333-4.182,2.7c-2.087,4.035-1.962,6.326,0.515,9.476C1909.9,683.586,1911.387,683.64,1914.902,680.617
					L1914.902,680.617z M1947.357,677.791c5.601-5.781,10.357-12.425,11.434-15.973c1.945-6.408,4.887-5.615,4.795-15.323
					c-0.121-12.899-1.321-13.521-26.089-13.521c-18.992,0-19.37,0.087-22.543,5.215c-4.061,6.563,0.316,13.61,2.991,19.7
					c3.089,7.036,7.754,13.606,12.77,19.388c4.168,4.805,5.463,5.696,8.281,5.696
					C1941.706,682.973,1943.281,681.997,1947.357,677.791z M2031.205,680.069c2.511-3.526,2.601-6.217,0.376-11.26
					c-2.107-4.777-4.64-4.979-7.318-0.586c-2.753,4.515-2.573,9.257,0.466,12.295
					C2027.872,683.663,2028.686,683.607,2031.205,680.069L2031.205,680.069z M2062.495,679.53
					c5.149-3.932,11.408-12.156,12.382-16.27c0.363-1.533,1.534-3.752,2.602-4.93c1.53-1.687,2.054-4.132,2.466-11.5
					c0.778-13.919,1.793-13.285-21.912-13.681c-28.555-0.477-26.281,0.578-26.13,6.53c0.133,5.242,2.781,13.944,6.316,20.756
					c1.131,2.179,2.056,4.472,2.056,5.095c0,1.664,4,4.175,4,6.032c0,2.044,9.679,11.412,11.791,11.412
					C2057.121,682.973,2060.015,681.424,2062.495,679.53L2062.495,679.53z M2090.445,681.318c2.561-2.317,2.277-6.724-0.766-11.917
					c-2.934-5.007-4.188-5.393-7.082-2.178c-3.371,3.745-3.461,5.498-0.555,10.769
					C2084.981,683.32,2087.243,684.216,2090.445,681.318L2090.445,681.318z M2148.445,681.318c3.7-3.348,1.216-15.345-3.177-15.345
					c-2.148,0-5.995,6.421-5.995,10.006c0,2.258,4.149,6.994,6.126,6.994C2146.068,682.973,2147.439,682.229,2148.445,681.318
					L2148.445,681.318z M2177.073,681.552c4.925-2.593,17.2-17.061,17.2-20.273c0-0.598,0.89-3.049,1.978-5.446
					c2.601-5.732,2.747-15.772,0.272-18.728c-1.554-1.856-3.523-2.216-17.587-3.211c-8.71-0.617-17.831-0.822-20.269-0.457
					c-5,0.75-9.466,4.044-9.54,7.036c-0.138,5.551,3.454,17.342,6.853,22.5c1.994,3.025,4.742,7.195,6.107,9.267
					c2.758,4.185,9.614,10.733,11.239,10.733C2173.901,682.973,2175.588,682.334,2177.073,681.552L2177.073,681.552z
					 M2206.062,681.723c0.568-0.688,1.349-2.94,1.735-5.004c1.297-6.941-4.404-11.609-7.966-6.523
					c-2.965,4.233-1.014,12.777,2.919,12.777C2204.003,682.973,2205.493,682.411,2206.062,681.723L2206.062,681.723z
					 M2266.638,680.901c3.116-2.451,3.23-3.856,0.826-10.185c-2.778-7.315-3.505-7.549-7.069-2.269
					c-4.296,6.366-4.172,10.752,0.377,13.332C2263.462,683.303,2263.613,683.28,2266.638,680.901z M2295.073,681.552
					c4.416-2.325,11.833-10.657,15.201-17.078c2.503-4.772,3.309-7.827,3.935-14.922c0.433-4.907,0.567-9.857,0.298-11
					c-1.008-4.281-2.577-4.577-24.234-4.577c-24.95,0-24.612-0.129-23.654,9.033c0.364,3.481,1.335,7.357,2.158,8.613
					c2.265,3.456,0.616,4.28,3.344,8.2c1.016,1.46,2.368,4.191,3.005,6.069c1.668,4.917,9.106,14.157,12.633,15.693
					C2291.602,683.256,2291.837,683.255,2295.073,681.552L2295.073,681.552z M2383.819,681.285
					c3.109-3.109-0.281-17.207-3.859-16.053c-0.653,0.21-2.397,2.754-3.877,5.652c-2.045,4.005-2.479,5.828-1.805,7.599
					C2375.917,682.798,2380.855,684.248,2383.819,681.285L2383.819,681.285z M2411.654,682.381
					c2.142-0.822,12.161-13.24,14.956-18.538c4.36-8.264,7.029-18.163,6.033-22.375c-1.652-6.984-8.645-9.91-20.144-8.427
					c-10.301,1.328-26.193,0.565-29.055,3.429c-1.035,1.035-0.61,9.265,0.553,10.714c0.569,0.709,1.754,3.799,2.633,6.867
					c2.305,8.043,5.636,10.577,8.204,16.723C2398.209,678.851,2406.301,684.435,2411.654,682.381L2411.654,682.381z
					 M2500.731,680.397c1.479-2.258,1.532-3.185,0.426-7.5c-1.523-5.943-3.977-6.524-8.338-1.972
					c-2.64,2.755-2.742,3.161-1.531,6.085C2493.936,683.402,2497.844,684.804,2500.731,680.397L2500.731,680.397z M2533.147,678.495
					c2.634-2.463,5.642-6.063,6.685-8c3.044-5.652,2.112-0.701,6.481-9.949c2.806-5.94,3.015-7.135,2.749-15.723
					c-0.272-8.778-0.427-9.365-2.789-10.557c-4.31-2.176-41.36-1.265-43.699,1.074c-0.423,0.423-0.924,4.001-1.114,7.952
					c-0.314,6.547-0.028,7.847,3.238,14.683c4.809,10.066,7.336,14.146,12.41,20.037
					C2522.915,684.751,2526.347,684.855,2533.147,678.495L2533.147,678.495z M2619.27,680.25c1.672-2.126,1.999-3.496,1.488-6.25
					c-1.426-7.688-6.301-9.267-9.465-3.067c-2.472,4.846-2.472,4.787-0.031,8.79C2613.693,683.711,2616.407,683.889,2619.27,680.25z
					 M2651.589,678.429c2.771-1.888,12.804-19.396,13.415-23.41c0.297-1.95,1.266-4.381,2.154-5.401
					c2.279-2.618,2.169-11.02-0.174-13.359c-1.602-1.599-3.954-1.786-22.546-1.786c-18.188,0-21.092,0.219-23.461,1.773
					c-3.147,2.063-3.523,5.522-1.204,11.073c2.229,5.334,0.927,7.921,2.784,9.833c0.706,0.727,2.562,3.955,4.123,7.173
					c2.91,5.997,12.06,16.116,15.929,17.615C2644.697,682.75,2645.985,682.246,2651.589,678.429L2651.589,678.429z
					 M2707.857,680.223c13.664-15.963,11.124-12.965,16.543-24.859c2.496-5.477,2.697-19.86,0.291-20.783
					c-2.294-0.88-42.698-0.717-44.106,0.179c-6.168,3.922,0.11,20.981,1.232,22.582c0.8,1.143,1.455,2.82,1.455,3.728
					c0,1.894,13.224,19.35,15.794,20.849C2702.126,683.702,2705.424,683.066,2707.857,680.223L2707.857,680.223z M2736.2,680.339
					c2.525-3.21,2.615-5.583,0.346-9.15c-3.027-4.758-4.332-5.156-7.273-2.215c-2.295,2.295-2.825,10.775-0.8,12.8
					C2730.478,683.778,2734.01,683.122,2736.2,680.339L2736.2,680.339z M2766.873,680.119c4.83-3.536,6.729-7.706,13.15-17.863
					c4.206-6.652,4.25-6.818,4.25-15.931c0-7.038-0.37-9.579-1.571-10.78c-1.323-1.323-4.68-1.569-21.25-1.557
					c-23.821,0.018-24.546,0.243-24.98,7.748c-0.209,3.619,0.326,6.634,1.75,9.853c1.129,2.551,2.052,5.344,2.052,6.207
					c0,2.263,3.695,4.526,7.211,11.178c3.158,5.974,10.758,13.894,13.389,13.953
					C2762.028,682.952,2764.728,681.689,2766.873,680.119L2766.873,680.119z M2826.62,677.723
					c7.287-7.73,14.771-23.538,15.371-32.471c0.662-9.847,0.196-10.234-13.768-11.426c-12.067-1.03-29.131-0.362-32.158,1.258
					c-5.123,2.742,2.301,23.213,4.406,25.608c0.861,0.98,1.905,2.906,2.32,4.281c1.957,6.479,12.636,18,16.683,18
					C2820.829,682.973,2823.568,680.961,2826.62,677.723L2826.62,677.723z M2853.2,680.339c4.88-6.204-0.606-11.264-2.308-16.615
					c-0.899-2.826-3.262-2.021-5.576,1.901c-3.555,6.026-3.668,8.841-0.535,13.362
					C2848.002,683.634,2850.316,684.005,2853.2,680.339L2853.2,680.339z M2911.392,680.854c1.754-1.754,2.016-2.877,1.518-6.508
					c-1.489-10.864-7.896-10.905-8.434-6.373c-0.726,6.122-3.384,6.225-0.56,10.658
					C2907.065,683.575,2908.303,683.943,2911.392,680.854z M3117.183,681.52c3.518-1.819,12.203-11.756,14.906-17.056
					c2.261-4.432,3.809-17.341,2.753-22.966c-1.102-5.876-3.594-6.525-25.087-6.525c-10.92,0-19.415,0.428-20.55,1.035
					c-2.705,1.448-2.51,6.646,0.586,15.618c2.92,8.461,5.094,12.375,11.853,21.347c4.843,6.428,8.905,9.981,11.426,9.993
					C3113.787,682.971,3115.637,682.319,3117.183,681.52L3117.183,681.52z M3146.283,679.723c2.502-4.103,2.483-4.724-0.261-8.775
					c-3.071-4.533-4.341-4.683-6.759-0.798c-2.314,3.717-2.052,7.994,0.676,11.008
					C3142.323,683.791,3144.04,683.403,3146.283,679.723z M3204.073,681.773c0.66-0.66,1.2-2.849,1.2-4.865
					c0-6.074-6.144-11.875-7.61-7.185c-0.301,0.963-1.215,2.992-2.031,4.509c-1.365,2.538-1.313,2.999,0.646,5.75
					C3198.513,683.12,3201.938,683.907,3204.073,681.773L3204.073,681.773z M3354.957,676.242
					c8.147-8.516,14.315-20.753,15.065-29.892c0.64-7.788-1.053-9.836-8.869-10.727c-8.863-1.01-36.677-0.512-38.625,0.691
					c-1.673,1.034-0.481,12.914,1.922,19.159c6.999,18.188,13.139,21.406,16.61,25.849c0.709,0.908,2.677,1.651,4.373,1.651
					C3347.936,682.973,3349.734,681.703,3354.957,676.242L3354.957,676.242z M3472.915,677.75c3.1-2.932,6.878-7.867,8.612-11.25
					c2.773-5.411,3.132-7.154,3.518-17.07c0.356-9.153,0.163-11.265-1.132-12.339c-1.198-0.995-6.361-1.217-22.191-0.957
					c-20.12,0.331-20.675,0.396-22.49,2.638c-1.023,1.264-1.605,3.064-1.293,4c4.909,14.714,9.318,20.15,13.206,27.226
					c2.632,4.789,11.555,12.975,14.143,12.975C3466.453,682.973,3469.859,680.641,3472.915,677.75L3472.915,677.75z
					 M3525.956,681.688c2.287-1.272,8.267-9.422,8.298-11.31c0.01-0.602,0.918-1.909,2.018-2.905
					c2.798-2.532,0.746-2.058,4.578-9.197c2.229-4.152,2.531-5.781,2.232-12.021c-0.196-4.096-0.9-7.772-1.629-8.5
					c-0.958-0.957-6.334-1.282-21.205-1.282c-18.774,0-20.041,0.119-21.979,2.057c-1.94,1.941-1.97,2.265-0.527,5.718
					c0.841,2.013,1.53,4.529,1.53,5.591c0,2.509,4.792,10.645,8.049,17.134c2.555,5.089,8.335,9.1,11.248,13.367
					C3520.522,683.203,3522.563,683.575,3525.956,681.688L3525.956,681.688z M3550.772,677.043c0-6.54-1.678-7.604-4.063-2.578
					c-1.38,2.909-1.49,4.098-0.564,6.13c0.717,1.573,1.802,2.395,2.888,2.186C3550.429,682.512,3550.772,681.381,3550.772,677.043z
					 M1532.816,678.802c4.066-3.57,11.517-14.258,15.828-22.705c1.88-3.684,3.048-7.771,3.385-11.847
					c0.587-7.11,0.562-6.178-5.967-12.277c-11.083,0.042-39.591-0.378-41.905,3.059c-3.014,4.478,3.231,25.609,10.327,34.94
					c1.046,1.375,3.471,4.638,5.391,7.25C1524.221,683.138,1527.431,683.53,1532.816,678.802L1532.816,678.802z M1561.197,679.385
					c3.772-3.174,3.845-5.058,0.399-10.321c-4.644-7.093-9.322-4.694-9.322,4.782
					C1552.274,682.337,1555.39,684.271,1561.197,679.385z M1590.59,680.835c3.678-1.916,12.644-12.076,15.321-17.362
					c2.016-3.979,2.713-7.348,3.417-16.5c1.03-13.384,0.98-13.477-7.809-14.575c-8.801-1.1-33.368,0.042-36.791,1.709
					c-2.899,1.412-2.951,1.575-2.754,8.649c0.174,6.259,0.669,8.009,3.75,13.267c5.721,9.761,1.478,4.798,8.05,14.396
					c2.475,3.615,4.5,6.993,4.5,7.506c0,1.635,4.344,4.047,7.288,4.047C1587.126,681.973,1589.388,681.461,1590.59,680.835
					L1590.59,680.835z M1647.782,680.108c10.007-4.546,19.384-23.979,19.496-28.135c0.106-3.946,2.909-5.357,2.96-12.193
					c0.055-7.351-1.195-7.824-20.437-7.722c-20.215,0.106-27.343,0.943-29.157,3.424c-1.942,2.656-1.698,8.71,0.553,13.715
					c7.331,16.301,9.137,19.776,11.933,22.961c1.729,1.969,3.143,4.051,3.143,4.625c0,1.279,4.843,5.199,6.385,5.169
					C1643.272,681.939,1645.578,681.11,1647.782,680.108L1647.782,680.108z M1680.287,677.924c1.229-4.565,0.803-6.644-2.127-10.368
					c-2.826-3.593-5.774-3.395-6.54,0.438c-0.332,1.661-0.996,3.263-1.475,3.559c-1.765,1.091-0.79,4.655,2.052,7.497
					C1676.422,683.276,1678.941,682.925,1680.287,677.924z M1829.37,677.223c5.761-6.052,9.08-11.162,12.321-18.97
					c2.122-5.112,2.582-7.818,2.582-15.191c0-4.934-0.411-9.225-0.913-9.535c-0.502-0.31-10.447-0.668-22.1-0.795
					c-21.152-0.23-21.19-0.227-23.087,2.116c-2.493,3.079-2.45,9.127,0.1,14.125c1.1,2.156,2,4.901,2,6.101
					c0,2.679,3.655,10.409,6.726,14.226c3.626,4.506,0.677,3.47,5.846,8.923c3.015,3.181,4.196,3.75,7.779,3.75
					C1824.363,681.973,1825.369,681.427,1829.37,677.223L1829.37,677.223z M2239.075,679.838
					c8.764-5.06,16.625-20.093,17.749-33.937c0.602-7.419,0.466-8.669-1.083-9.956c-1.414-1.175-6.246-1.536-23.981-1.789
					c-29.145-0.417-26.249-1.009-23.612,13.817c1.092,6.141,3.325,8.465,5.195,13c1.102,2.67,3.742,7.13,8.167,13.798
					C2226.286,681.965,2232.358,683.716,2239.075,679.838L2239.075,679.838z M2368.387,665.542
					c5.823-10.623,6.08-12.104,4.179-24.042c-1.169-7.337-2.101-7.614-24.517-7.294c-17.754,0.254-18.838,0.381-20.914,2.459
					c-2.576,2.578-2.764,8.18-0.39,11.57c2.374,3.389,0.353,4.726,4.051,10.176c1.387,2.044,3.655,5.952,5.039,8.683
					c3.326,6.563,11.366,14.879,14.387,14.879C2356.809,681.973,2365.74,670.371,2368.387,665.542z M2473.073,680.577
					c4.813-2.49,9.391-9.275,16.607-24.618c1.986-4.223,2.594-7.086,2.594-12.227c0-10.175-0.334-10.306-25.666-10.07
					c-12.253,0.114-21.035,0.616-22.262,1.273c-7.609,4.072-0.072,10.741-0.072,15.579c0,2.164,2.057,4.997,4.507,10.459
					c3.088,6.885,5.066,9.892,10.131,15.406C2464.501,682.465,2467.63,683.392,2473.073,680.577L2473.073,680.577z
					 M3496.701,680.402c3.403-3.403,0.9-13.429-3.352-13.429c-1.586,0-7.076,6.729-7.076,8.674c0,1.485,5.446,6.326,7.116,6.326
					C3494.346,681.973,3495.837,681.266,3496.701,680.402L3496.701,680.402z M1477.35,675.138
					c10.838-11.144,19.473-35.643,14.235-40.383c-4.241-3.838-41.096-3.164-43.997,0.804c-0.821,1.122-1.314,4.741-1.314,9.639
					c0,6.315,0.472,8.773,2.422,12.622c1.332,2.629,3.132,5.369,4,6.089s1.578,1.685,1.578,2.143c0,0.786,2.92,5.563,6.565,10.741
					c0.898,1.275,2.6,2.709,3.784,3.187C1469.416,681.912,1471.553,681.099,1477.35,675.138L1477.35,675.138z M1502.201,678.339
					c2.593-3.296,2.615-5.963,0.083-10.115c-2.733-4.482-5.667-4.317-7.651,0.431
					C1491.042,677.251,1497.029,684.913,1502.201,678.339L1502.201,678.339z M1443.292,677.224c2.714-3.45,2.17-8.004-1.535-12.862
					c-5.592-7.331-3.749,1.928-7.047,4.665c-1.943,1.612-1.816,6.869,0.219,9.118
					C1437.324,680.791,1440.786,680.41,1443.292,677.224z M1412.843,676.931c4.025-2.488,9.516-9.948,14.65-19.903
					c3.039-5.892,3.97-8.988,4.465-14.845c0.489-5.782,0.318-7.595-0.779-8.29c-0.773-0.489-10.71-0.896-22.083-0.905
					c-17.952-0.013-20.897,0.204-22.34,1.646c-2.069,2.069-1.607,6.216,1.767,15.853c2.787,7.962,4.215,10.676,12.244,23.271
					C1404.186,679.122,1407.773,680.064,1412.843,676.931L1412.843,676.931z M3605.351,621.318c4.214-2.1,5.607-9.009-4.864-9.379
					c-49.829-1.763-99.705-2.193-149.557-1.288c-59.36,1.077-58.944-0.396-113.684,0.877c-19.469,0.453-39.069-1.167-58.564-1.367
					c-24.983-0.256-49.937,0.447-74.909,1.022c0,0-772.183-6.301-1746.999-2.013c-78.782,0.347-81.427,0.575-81.485,7.03
					c-0.01,0.95,1.202,2.525,2.691,3.5c4.628,3.032,656.319,1.758,631.793,2.801
					C2130.087,617.385,3595.827,626.064,3605.351,621.318z M3630.304,597.339c0.625-0.624,1.382-3.838,1.681-7.142
					c1.44-15.887,68.357-5.93-1050.713-12.136c-308.179-1.709-184.217,1.34-503.5,0.907c-488.121-0.662-714.983-0.395-717.249,0.845
					c-1.994,1.091-2.25,2.009-2.25,8.073c0,5.145,0.41,7.183,1.654,8.215C1362.243,598.022,3627.381,600.256,3630.304,597.339z
					 M1838.483,563.918c2.972-2.972,3.037-3.236,2.378-9.664c-0.372-3.635-1.557-9.221-2.632-12.413
					c-2.829-8.398-1.395-8.555-3.324-13.95c-1.118-3.126-1.048-4.016,0.544-6.984c2.724-5.079,0.95-6.708,3.393-12.813
					c2.206-5.514,0.849-11.153,0.173-32.12l-0.242-7.5c31.789-21.091,34.123-19.974,35.076-25.052
					c0.714-3.807-1.109-24.928-2.65-30.693c-1.398-5.23,0.11-2.555,2.574-16.755c2.285-13.172,5.239-16.829,14.5-17.953
					c5.262-0.638,5.125,0.168,2.989-17.546c-1.593-13.209-1.589-14.133,0.106-22.802c1.463-7.481,0.779-9.963-2.895-10.511
					c-6.298-0.939-10.85,16.366-12.586,20.239c-8.308,18.543-12.26,23.189-28.62,61.435c-3.505,8.194-6.411,16.88-10.428,24.808
					c-2.497,4.928-23.277,49.605-38.202,95.331c-2.256,6.913-3.976,8.271-5.929,15c-2.229,7.684-4.333,11.011-4.391,17.25
					c-0.112,12.01,8.802-3.16,37.456,4.069C1834.246,567.429,1835.06,567.341,1838.483,563.918z M3361.722,563.849
					c0.594-0.547,0.482-1.344-0.298-2.125c-0.917-0.918-8.087-1.332-27.027-1.56c-23.088-0.278-25.924-0.136-27.164,1.358
					c-1.196,1.441-1.138,1.849,0.426,2.992C3310.507,566.596,3360.721,564.772,3361.722,563.849z M3422.522,565.322
					c4.648-0.439,6.75-1.054,6.75-1.974c0-2.192-4.224-2.648-25.582-2.764c-17.957-0.098-20.535,0.09-22.054,1.603
					c-2.104,2.096-1.28,1.823,2.636,3.129C3386.49,566.055,3414.709,566.06,3422.522,565.322L3422.522,565.322z M3508.058,564.521
					c2.352-2.377,2.983-403.362,2.984-402.457c-4.255-4.971-2.627-3.069-7.053-8.24c-29.388,0.38-49.778,0.398-52.431,1.915
					c-4.162,2.38-4.476,6.282-4.121,51.242c1.097,138.887,1.144-30.676-0.509,270.732c0,1.594,0.217,84.153,1.322,86.218
					c0.917,1.714,2.771,1.81,30.037,1.564C3494.27,565.35,3507.667,564.912,3508.058,564.521z M3461.272,542.973
					c-1.1-1.1-2-2.884-2-3.965c0-3.797,3.483-4.496,22.5-4.516c19.417-0.021,21.974,0.535,23.1,5.023
					c1.283,5.11-0.102,5.458-21.722,5.458C3464.606,544.973,3463.138,544.839,3461.272,542.973L3461.272,542.973z M3462.239,525.104
					c-1.944-0.41-4.081-1.084-4.75-1.497c-2.088-1.29-1.334-4.51,1.488-6.36c2.363-1.55,5.249-1.773,22.893-1.773
					c18.449,0,20.37,0.164,22.296,1.905c2.738,2.475,2.68,5.207-0.143,6.773C3501.452,525.579,3468.093,526.339,3462.239,525.104
					L3462.239,525.104z M3468.816,232.629c-2.422-1.771-1.408-6.043,1.958-8.248c2.175-1.425,3.513-1.474,11.234-0.411
					c10.342,1.424,13.809,3.118,12.27,5.994C3491.438,235.272,3471.209,234.379,3468.816,232.629z M3466.522,213.943
					c-1.623-0.652-2.25-1.729-2.25-3.865c0-6.241,3.469-7.02,22.9-5.14c11.023,1.066,13.873,2.708,10.519,6.061
					C3494.568,214.123,3472.221,216.233,3466.522,213.943z M3461.472,196.774c-1.681-1.681-1.496-6.309,0.312-7.81
					c2.082-1.728,22.134-2.468,31.391-1.158c9.427,1.333,11.091,3.265,6.642,7.714c-2.417,2.417-2.717,2.455-19.8,2.455
					C3467.86,197.974,3462.313,197.615,3461.472,196.774L3461.472,196.774z M2430.886,562.26c3.187-1.826,4.698-6.527,4.165-12.958
					c-0.649-7.83-2.155-8.855-14.158-9.643c-10.616-0.697-44.317,0.787-50.766,2.236c-2.28,0.512-4.522,1.527-4.984,2.255
					c-1.405,2.216-1.043,17.507,0.449,19.002C2367.379,564.942,2427.643,564.119,2430.886,562.26L2430.886,562.26z
					 M3210.503,562.981c3.213-1.542,4.293-4.16,2.838-6.878c-2.486-4.645,3.012-393.396-1.51-396.707
					c-7.345-5.378-28.036-8.461-45.325-6.753c-13.372,1.321-18.837,3.695-19.752,8.578c-0.813,4.341,0.284,47.052,0.599,180.753
					c0.093,40.016-2.526,219.399-1.667,221.637c0.553,1.442,3.776,1.559,31.351,1.144
					C3199.51,564.416,3208.507,563.939,3210.503,562.981z M3166.397,543.098c-2.695-2.695-2.671-3.72,0.126-5.551
					c2.649-1.733,6.498-2.296,20.936-3.062c10.119-0.536,10.795-0.449,12.75,1.649c5.229,5.613,0.163,8.035-18.061,8.637
					C3169.273,545.197,3168.404,545.105,3166.397,543.098z M3163.836,524.394c-2.079-2.079-1.976-4.737,0.261-6.762
					c1.398-1.265,5.483-1.913,17.472-2.77c17.925-1.282,20.396-0.96,21.335,2.782c1.512,6.023-1.635,7.101-22.819,7.817
					C3167.647,525.881,3165.16,525.718,3163.836,524.394z M3165.272,242.766c-1.482-0.793-2.623-2.39-2.802-3.922
					c-0.5-4.273,3.899-5.409,19.917-5.147c15.492,0.254,19.186,1.146,18.705,4.519c-0.516,3.619-4.633,4.747-19.487,5.338
					C3171.1,243.972,3167.171,243.782,3165.272,242.766L3165.272,242.766z M3164.022,221.274c-1.968-2.202-2.622-6.92,0-7.658
					c0.962-0.271,8.725-0.768,17.25-1.105c17.302-0.684,20.264-0.019,20.81,4.668c0.487,4.179-2.339,4.953-20.195,5.53
					C3166.789,223.199,3165.662,223.108,3164.022,221.274z M3162.627,200.312c-3.054-0.641-5.572-3.781-5.185-6.469
					c0.469-3.26,4.732-3.939,20.83-3.316c20.661,0.8,23.829,1.259,25.104,3.641c0.893,1.669,0.703,2.444-1.029,4.178
					c-1.996,1.999-3.204,2.137-19.85,2.272C3172.749,200.697,3163.807,200.56,3162.627,200.312z M3290.842,563.862
					c1.371-2.218-2.341-2.858-16.661-2.873c-28.625-0.03-49.455,1.709-39.158,3.268
					C3241.766,565.279,3290.178,564.936,3290.842,563.862z M1564.524,562.504c3.699-1.573,0.426-98.803,1.304-132.431
					c1.527-58.479,0.536-148.22,0.048-205.838c-0.305-35.986-0.091-34.915-7.473-37.414c-5.118-1.733-30.166-1.608-37,0.185
					c-10.675,2.8-9.314-18.678-8.55,261.132c0.05,18.323-0.441,37.155-0.152,55.647c0.729,46.647-1.045,33.066,0.196,50.39
					c0.488,6.806,0.978,8.808,2.25,9.196C1517.655,564.133,1562.544,563.346,1564.524,562.504z M1528.524,552.488
					c-3.017-2.183-2.985-6.113,0.057-6.877c5.189-1.302,24.252-1.825,27.016-0.74c3.871,1.519,3.148,4.125-1.823,6.566
					C1548.211,554.17,1531.793,554.853,1528.524,552.488L1528.524,552.488z M1530.673,538.116c-3.906-0.353-7.843-1.26-8.75-2.015
					c-1.828-1.521-2.22-5.657-0.629-6.64c1.298-0.802,31.213-0.722,35.57,0.096c4.256,0.798,4.894,2.742,2.004,6.102
					c-2.2,2.557-2.865,2.722-11.714,2.906C1541.995,538.671,1534.578,538.469,1530.673,538.116L1530.673,538.116z M1536.309,434.039
					c-1.63-3.046-0.33-4.629-2.615-7.154c-1.168-1.291-1.318-2.234-0.576-3.62c1.053-1.967-1.013-10.965-4.249-18.51
					c-3.707-8.642-1.986-7.782,11.124-7.782c0.83-2.528,4.281-12.707,4.281-14.375c0-2.559-4.797-6.625-7.815-6.625
					c-4.03,0-7.732-4.255-13.09-7.203c-3.339-1.838-3.932-4.206-1.681-6.718c0.778-0.868,1.83-3.154,2.337-5.079
					c0.873-3.314,1.137-3.491,4.955-3.324c5.517,0.241,12.317,2.173,12.767,3.626c0.949,3.068,0.45,7.134,5.067,13.183
					c3.268,4.282,3.457,4.958,3.424,12.273c-0.022,4.817-0.575,8.686-1.465,10.241c-3.524,6.165,0.122,8.108,5.795,12.658
					c-1.218,0.82-16.375,10.49-14.668,14.223c0.407,0.89,0.922,3.938,1.144,6.772
					C1541.63,434.101,1538.752,438.605,1536.309,434.039L1536.309,434.039z M1530.37,267.667c-4.28-1.501-6.021-4.015-4.463-6.444
					c0.975-1.521,2.655-1.727,12.806-1.575c9.03,0.135,12.264,0.556,14.242,1.852c2.523,1.653,2.532,1.705,0.642,3.595
					C1551.256,267.435,1538.389,270.479,1530.37,267.667z M1525.404,247.322l-2.37-1.552c4.187-4.179,2.745-4.3,17.156-4.266
					c13.443,0.032,16.085,0.777,16.085,4.535C1556.274,254.437,1529.216,249.818,1525.404,247.322z M1531.125,235.064
					c-5.182-0.548-9.851-3.001-9.851-5.174c0-4.191,17.009-6.093,28.5-3.187c5.727,1.448,7.056,2.162,7.307,3.924
					c0.24,1.681-0.418,2.374-3,3.16C1549.603,235.151,1538.024,235.795,1531.125,235.064L1531.125,235.064z M1632.012,556.684
					c0.644-5.784,0.282-11.831-0.006-17.621c-2.14-42.914-0.622-345.989-0.628-344.589c-6.895-6.335-7.828-8.487-26.4-8.575
					c-27.666-0.132-24.948,4.876-25.217,28.844c-0.273,24.302-0.431,80.597-0.111,124.923
					c1.562,216.342-2.328,207.057,0.483,223.637c0.077,0.456,10.894,0.681,24.037,0.5
					C1629.422,563.455,1631.2,563.975,1632.012,556.684z M1592.972,553.306c-3.415-0.58-5.452-4.72-3.487-7.088
					c1.058-1.274,3.814-1.434,17.584-1.016c10.47,0.318,16.748,0.913,17.495,1.661c2.085,2.085-0.614,4.55-5.894,5.38
					C1612.22,553.258,1596.514,553.908,1592.972,553.306z M1587.033,532.786c0.831-3.177,4.439-3.813,21.651-3.813
					c14.502,0,16.461,0.2,17.935,1.829c2.146,2.372,2.107,4.864-0.095,6.018c-2.37,1.242-29.79,2.212-34.604,1.225
					C1591.019,537.595,1585.798,537.508,1587.033,532.786z M1599.28,433.49c-0.553-1.456-1-3.855-0.992-5.331
					c0.033-6.042-6.209-22.797-10.211-27.412c-2.712-3.127-2.091-8.162,1.062-8.608c1.301-0.184,2.854,0.153,3.45,0.75
					c2.013,2.013,4.334,1.104,7.619-2.983c2.595-3.229,3.299-5.067,3.417-8.915c0.082-2.666-0.175-5.171-0.569-5.567
					c-0.395-0.396-2.094-0.15-3.776,0.547c-5.874,2.433-3.508-2.642-10.659-2.16c-3.763,0.253-6.348-1.165-6.348-3.484
					c0-2.039,8-13.258,8-15.989c0-2.821,2.821-6.364,5.067-6.364c2.776,0,3.693,3.262,9.04,6.028
					c4.377,2.264,4.875,4.729,4.928,24.361c0.026,9.477,0.432,13.803,1.465,15.61c3.964,6.934-0.551,9.536-7,14.891
					c-0.547,14.482-0.734,26.361-2.244,26.861C1600.846,435.951,1599.833,434.945,1599.28,433.49L1599.28,433.49z M1603.274,270.051
					c-2.042-0.545-2.5-1.286-2.5-4.05c0-2.899,0.429-3.507,3-4.252c3.668-1.062,12.201-0.268,14.106,1.313
					c3.496,2.902-0.165,6.351-7.606,7.165C1607.799,270.497,1604.649,270.418,1603.274,270.051L1603.274,270.051z M1594.524,247.992
					c-2.864-1.213-2.875-3.466-0.028-5.461c3.796-2.659,38.919-2.734,30.125,4.571
					C1622.627,248.758,1598.047,249.485,1594.524,247.992L1594.524,247.992z M1595.774,229.3c-6.562-0.819-7.5-1.295-7.5-3.81
					c0-4.224,3.079-5.037,18.228-4.813c7.55,0.112,14.638,0.69,15.75,1.285c1.297,0.694,2.022,2.095,2.022,3.908
					c0,2.662-0.304,2.862-5.25,3.456C1613.617,229.975,1601.074,229.961,1595.774,229.3L1595.774,229.3z M1693.469,562.18
					c0.76-0.761,1.208-3.232,1.089-6c-1.354-31.374-0.214-226.306-1.248-292.495c-1.046-67.024-1.219-60.967-0.521-66.211
					c0.447-3.359,0.087-4.521-2.242-7.251c-2.217-2.598-3.978-3.475-8.774-4.368c-5.967-1.112-30.368-0.684-33.601,0.588
					c-7.066,2.781-0.429,298.144-2.733,341.03c-0.048,0.902,0.207,34.463,2.096,35.723
					C1649.662,564.614,1691.973,563.677,1693.469,562.18z M1656.432,551.665c-1.759-2.119-0.635-5.33,2.125-6.069
					c3.778-1.013,27.739-0.68,29.783,0.414c2.522,1.35,2.464,3.611-0.127,4.997c-1.134,0.607-8.45,1.362-16.259,1.678
					C1659.712,553.18,1657.574,553.04,1656.432,551.665z M1656.523,538.311c-1.433-0.578-1.647-5.162-0.338-7.23
					c1.147-1.812,28.429-2.167,30.203-0.393c1.985,1.985,0.169,5.991-3.258,7.185C1680.031,538.954,1658.974,539.3,1656.523,538.311
					L1656.523,538.311z M1667.47,424.224c-4.188-11.761-0.345-12.081-7.186-25.465c-2.791-5.461-4.02-9.057-3.814-11.162
					c0.393-4.021,2.845-4.49,6.158-1.177c4.089,4.089,6.373,3.389,9.217-2.821c1.425-3.113,2.18-6.108,1.793-7.116
					c-0.687-1.79-9.649-6.481-12.415-6.498c-3.114-0.02-3.95-2.317-3.95-10.85c0-9.485,2.753-17.159,6.155-17.159
					c2.093,0,11.825,14.355,11.864,17.5c0.014,1.1,0.915,3.962,2.003,6.359c2.306,5.081,2.511,11.585,0.478,15.141
					c-1.897,3.318-1.861,7.039,0.095,9.832c2.119,3.025,1.303,5.782-3.64,12.305c-5.116,6.752-3.636,5.925-2.292,15.119
					c0.302,2.066,0.952,4.005,1.443,4.309c1.295,0.8,1.098,4.831-0.306,6.235C1670.818,431.029,1669.517,429.972,1667.47,424.224
					L1667.47,424.224z M1658.523,257.38c-1.912-0.876-1.487-4.209,0.684-5.371c2.527-1.352,20.605-1.352,23.131,0
					c2.409,1.289,2.501,3.522,0.184,4.458C1680.283,257.373,1660.177,258.137,1658.523,257.38z M1657.273,241.152
					c-1.423-0.433-2.629-1.642-2.798-2.807c-0.563-3.863,1.745-4.446,16.436-4.15c13.387,0.269,13.873,0.354,14.173,2.461
					c0.194,1.364-0.42,2.574-1.638,3.225C1681.003,241.189,1660.643,242.177,1657.273,241.152z M1659.487,227.05
					c-2.358-0.396-5.007-1.44-5.887-2.32c-8.563-8.563,31.49-5.104,33.646-3.772c2.216,1.369,0.34,3.858-3.672,4.872
					C1678.133,227.205,1664.516,227.894,1659.487,227.05L1659.487,227.05z M1863.734,563.037c0.318-0.515,4.057-1.702,8.309-2.638
					c7.289-1.604,24.328-9.157,25.713-11.398c2.236-3.617-21.646,3.222-25.197,5.531c-1.218,0.792-3.693,1.45-5.5,1.462
					c-4.985,0.033-11.785,3.455-11.785,5.929c0,1.719,0.635,2.049,3.941,2.049C1861.382,563.974,1863.415,563.552,1863.734,563.037
					L1863.734,563.037z M1897.646,561.751c1.999-3.182-0.357-4.013-7.733-2.729c-3.658,0.637-6.9,1.562-7.204,2.055
					c-1.298,2.1,1.061,2.969,7.296,2.69C1894.905,563.548,1896.838,563.038,1897.646,561.751L1897.646,561.751z M2575.464,562.454
					c3.677-1.411,2.699-161.936,2.641-182.58c-0.412-146.775,1.514-147.604-5.614-150.582c-4.524-1.89-26.302-3.832-32.521-2.9
					c-5.544,0.831-7.808,3.374-12.003,7.057c3.481,94.328,2.648,93.709,1.857,207.794c-0.851,122.754-1.44,120.162,4.769,121.194
					C2543.123,563.854,2571.788,563.866,2575.464,562.454z M2539.522,548.993c-2.559-1.087-2.905-3.743-0.852-6.55
					c1.188-1.625,2.953-1.964,11.75-2.257c5.694-0.19,12.827,0.027,15.852,0.481c4.579,0.688,5.552,1.192,5.812,3.009
					c0.569,3.981-4.656,5.694-18.312,6.002C2547.172,549.827,2540.76,549.519,2539.522,548.993z M2552.479,469.288
					c-0.513-0.998-1.224-3.721-1.579-6.051c-1.867-12.232-12.528-23.011-4.617-24.11c3.365-0.467,4.99-1.961,4.99-4.589
					c0-2.418-8.19-14.041-10.526-14.937c-0.904-0.347-1.474-1.899-1.474-4.015c0-6.868,1.504-7.918,6.969-4.863
					c3.028,1.692,3.181,1.684,4.656-0.25c1.129-1.481,1.362-3.297,0.896-7c-0.677-5.391-1.667-7.566-8.411-18.482
					c-3.848-6.23-4.252-7.41-3.271-9.562c0.628-1.379,1.969-2.456,3.059-2.456c4.533,0,5.103-0.903,5.103-8.084
					c0-7.176-1.702-11.515-8.356-21.305c-1.454-2.139-2.644-4.718-2.644-5.731c0-2.317,4.586-3.619,7.137-2.026
					c2.76,1.723,3.344,1.458,5.156-2.344c1.133-2.376,1.395-4.212,0.819-5.75c-1.268-3.392-1.816-12.953-3.365-16.695
					c-1.408-3.404-1.076-5.716,1.555-10.815c2.432-4.714,4.434-5.302,7.291-2.144c1.67,1.846,1.905,3.729,1.905,15.25
					c0,8.873-0.417,13.875-1.285,15.394c-1.721,3.013-0.17,5.824,4.225,7.66c4.933,2.061,5.121,4.25,1.115,13.039
					c-6.047,13.269-6.039,21.615,0.024,24.148c3.968,1.658,5.266,3.914,3.621,6.288c-0.615,0.888-2.733,4.426-4.707,7.862
					c-3.229,5.623-3.559,6.873-3.291,12.5c0.297,6.24,0.303,6.252,3.238,6.038c3.467-0.253,5.56,1.207,5.56,3.879
					c0,2.283-5.539,14.433-6.989,15.329c-1.626,1.005-1.126,4.804,0.989,7.507c2.645,3.381,2.491,6.726-0.581,12.581
					c-2.031,3.873-2.699,6.885-3.136,14.16C2555.984,469.23,2554.382,472.992,2552.479,469.288L2552.479,469.288z M2543.034,280.97
					c-2.806-1.748-4.101-4.883-2.709-6.56c1.664-2.005,26.692-2.074,29.418-0.081C2578.734,280.904,2546.293,283,2543.034,280.97
					L2543.034,280.97z M2540.272,258.95c0-4.655,2.565-5.358,16.907-4.631c14.836,0.752,17.267,1.935,12.916,6.286
					c-4.181,4.182-8.395,2.091-14.341,3.585c-1.09,0.274-4.505,0.178-7.589-0.212
					C2541.101,263.095,2540.272,262.519,2540.272,258.95z M2633.69,561.955c2.764-2.769-0.744-286.217-0.819-273.201
					c0.167-29.263,2.766-40.887-0.208-51.631c-1.28-4.625-7.555-5.855-11.742-6.804c-7.061-1.601-22.787-4.938-29.002,0.521
					c-2.838,2.493-4.035,5.016-3.555,8.721c1.769,13.666,0.204,28.524,0.217,42.312c0,124.065,0.249,147.733,1.36,186.678
					c0.602,21.111,1.703,42.382,0.553,63.492c-0.164,3.016-2.1,6.509,0.944,8.343c4.109,2.475,13.004,0.978,17.466,1.007
					c9.831,0.063,18.662,0.493,19.625,0.954c2.21,1.059,2.256,3.961,0.092,5.752c-1.271,1.053-5.826,1.367-19.541,1.347
					l-17.883-0.025c0.21,4.722,0.371,8.328,0.581,13.05l10.5,0.622C2616.034,563.91,2632.335,563.318,2633.69,561.955z
					 M2609.939,467.307c-0.367-0.367-0.669-3.179-0.672-6.25c-0.01-7.319-1.294-11.678-5.519-18.695
					c-4.523-7.511-4.518-9.926,0.025-11.824c5.577-2.33,4.964-4.238-6.933-20.796c1.526-1.236,4.402-3.911,6.322-3.315
					c2.53,0.786,4.182-0.836,5.129-5.035c1.113-4.935-1.353-10.888-7.088-17.11c-3.267-3.544-3.991-5.015-3.74-7.602
					c0.301-3.111,0.474-3.222,5.802-3.707c7.425-0.676,7.56-1.702,1.907-14.5c-0.913-2.067-2.151-4.198-4.937-8.5
					c-3.776-5.831-2.83-9.629,2.539-10.188c2.872-0.299,3.013-0.539,3.304-5.612c0.56-9.759-6.957-26.905-2.233-31.629
					c0.864-0.864,1.96-1.571,2.435-1.571c2.677,0,6.105,2.315,7.542,5.094c2.182,4.219,2.177,14.944-0.01,21.557
					c-0.937,2.833-1.554,6.208-1.371,7.5c0.298,2.107,0.916,2.38,5.994,2.647c3.837,0.201,5.842,0.769,6.223,1.761
					c1.091,2.844-0.667,7.591-3.617,9.765c-1.624,1.197-4.319,4.197-5.989,6.667c-2.754,4.074-2.923,4.769-1.821,7.5
					c3.608,8.942,1.262,10.151,6.543,7.945c4.475-1.87,5.5-1.263,5.5,3.255c0,2.801-0.771,4.3-3.571,6.941
					c-1.964,1.852-3.917,3.368-4.34,3.368c-1.715,0-6.026,11.387-2.234,16.07c1.717,2.12,2.098,2.192,5.072,0.96
					c3.654-1.513,3.48-1.067,7.29,2.743c-1.863,3.18-4.9,8.927-8.227,10.892c-3.325,1.964-4.997,5.2-4.975,9.632
					c0.053,11.334,8.994,0.765,8.979,8.953c0,2.212-1.44,5.327-4.494,9.75c-4.011,5.809-4.489,7.098-4.494,12.125
					C2614.267,465.819,2612.644,470.012,2609.939,467.307L2609.939,467.307z M2604.022,277.426c-0.94-0.984-0.75-6.957-0.75-8.452
					c4.464,0,22.446-0.15,24.418,0.607c2.276,0.873,1.97,5.115-0.462,6.416C2624.755,277.321,2605.078,278.532,2604.022,277.426z
					 M2602.272,259.085c-1.753-0.484-2.594-1.499-2.816-3.4c-0.44-3.771,2.597-4.714,15.132-4.697
					c13.12,0.018,14.685,0.444,14.685,4.005c0,2.225-0.633,3.006-3.149,3.883C2622.715,260.064,2606.34,260.207,2602.272,259.085
					L2602.272,259.085z M2952.429,562.216c1.892-1.891,2.573-33.232,3.419-157.257c0.793-116.292,0.824-115.34-3.702-112.918
					c-1.124,0.601-2.673,2.601-3.445,4.449c-3.305,7.906-3.74,7.025-31.121,51.102c-13.594,18.692-24.654,39.235-36.8,58.868
					c-55.62,90.038-93.553,148.615-94.279,152.314c-1.624,8.278,9.338,4.509,13.45,4.507c0,0,23.176,0.192,69.189,0.192
					C2933.685,563.474,2951.439,563.206,2952.429,562.216z M3049.814,561.549c2.002-3.055,2.946-52.11,4.456-231.575
					c0.945-112.306,0.834-140.751-0.576-147.732c-1.071-5.298-12.188-7.181-31.922-5.407c-15.076,1.355-19.064,2.503-23.253,6.692
					c-2.953,2.953-3.347,3.971-3.35,8.647c0,213.591-2.733,367.25,1.724,370.509c1.33,0.972,7.882,1.291,26.552,1.291h24.786
					C3048.23,563.973,3049.819,561.549,3049.814,561.549z M3011.022,546.846c-3.717-1.405-3.827-5.513-0.185-6.898
					c1.411-0.536,9.036-0.975,16.944-0.975c13.805,0,14.491,0.097,17.185,2.437c2.695,2.341,2.736,2.508,1.023,4.25
					c-1.547,1.573-3.799,1.84-17,2.019C3020.339,547.797,3012.585,547.437,3011.022,546.846L3011.022,546.846z M3019.272,395.393
					c-7.373-3.112-13.339-17.06-13.44-31.419c-0.058-8.232,0.071-8.72,4.105-15.5c9.665-16.242,21.857-17.332,32.673,1.678
					c2.345,4.121,2.662,5.762,2.662,13.782c0,5.83-0.539,10.395-1.5,12.694c-0.825,1.975-1.502,4.323-1.506,5.218
					c-0.029,8.34-6.773,15.167-14.894,15.076C3024.842,396.894,3021.197,396.206,3019.272,395.393L3019.272,395.393z
					 M3021.21,366.504c1.772-5.497,3.648-7.102,7.247-6.198c1.722,0.432,2.984,1.871,4.074,4.647c2.235,5.69,3.74,5.081,3.74-1.511
					c0-7.241-1.963-11.691-6.527-14.792c-4.114-2.796-5.62-2.609-9.847,1.221c-5.417,4.908-6.973,11.945-4.141,18.724
					C3017.667,373.165,3019.259,372.554,3021.21,366.504L3021.21,366.504z M3008.472,247.774c-2.015-2.015-1.365-4.787,1.365-5.825
					c3.658-1.391,14.067-0.705,22.435-1.919c4.029-0.585,6.483-0.41,9.173,0.651c4.738,1.869,5.373,3.719,2.147,6.257
					c-2.354,1.852-4.009,2.037-18.254,2.037C3014.486,248.974,3009.303,248.605,3008.472,247.774z M3015.624,227.98
					c-3.644-1.47-3.884-3.153-0.826-5.783c2.762-2.376,3.229-2.437,15.661-2.049c10.604,0.33,13.116,0.706,14.563,2.175
					c1.667,1.693,1.618,1.89-1.057,4.213c-2.64,2.293-3.495,2.433-14.5,2.374C3023.034,228.875,3016.805,228.457,3015.624,227.98z
					 M3009.494,209.417c-2.452-1.718-2.909-4.639-0.972-6.216c1.938-1.578,29.995-2.702,32.604-1.306
					c2.691,1.44,2.754,4.471,0.146,7.078c-1.806,1.806-3.333,2-15.778,2C3014.643,210.974,3011.245,210.643,3009.494,209.417z
					 M3129.473,562.174c3.331-3.345,0.873-181.704,0.795-227.851c-0.077-46.112,1.718-92.222,1.599-138.277
					c0,0-0.097-37.428-0.097-37.428c-4.046-2.415-6.955-4.152-11-6.566c-27.232-0.062-33.111-0.336-40.882,1.819
					c-3.761,1.043-7.473,2.531-8.248,3.306c-2.872,2.872-2.794-2.166-3.135,203.798c-0.314,189.508-0.192,162.933-0.838,183.35
					c-0.293,9.268-0.282,17.505,0.025,18.305c0.475,1.238,5.027,1.409,30.52,1.15
					C3121.128,563.545,3128.479,563.168,3129.473,562.174z M3088.022,544.893c-0.962-0.561-1.75-2.087-1.75-3.392
					c0-3.592,5.144-4.788,21.14-4.917c11.517-0.093,14.036,0.157,15.416,1.528c2.173,2.159,1.05,5.68-2.207,6.919
					C3117.296,546.295,3090.233,546.181,3088.022,544.893L3088.022,544.893z M3078.249,517.958c-1.004-1.6-0.294-5.106,1.232-6.089
					c1.573-1.013,28.469-2.031,34.784-1.317c9.941,1.125,11.818,6.11,3.141,8.341
					C3112.577,520.135,3080.856,522.116,3078.249,517.958z M3092.368,242.721c-4.969-1.82-6.114-4.173-3.367-6.92
					c1.882-1.882,3.933-2.343,14.161-3.178c10.591-0.865,12.254-0.784,14.535,0.71c2.987,1.957,3.239,4.253,0.803,7.307
					c-1.51,1.893-3.051,2.239-12.228,2.747C3099.038,243.787,3094.713,243.58,3092.368,242.721L3092.368,242.721z M3088.958,220.887
					c-6.043-1.663-7.77-6.17-3.051-7.964c1.449-0.551,9.477-1.102,17.839-1.225c15.916-0.234,18.526,0.364,18.526,4.244
					c0,3.859-2.939,4.767-17,5.253C3097.847,221.451,3090.505,221.313,3088.958,220.887L3088.958,220.887z M3085.772,200.028
					c-3.007-1.231-5.625-4.565-4.955-6.311c0.884-2.304,3.622-2.811,18.455-3.419c13.346-0.546,24.294,0.57,26.417,2.693
					c1.56,1.56-3.473,5.976-8.01,7.029C3112.848,201.14,3088.505,201.147,3085.772,200.028L3085.772,200.028z M3612.888,551.035
					c0.172-9.453-1.2-14.586-13.068-17.489c-17.731-4.338-36.383-2.643-54.36,0.526c-5.992,1.056-12.225,2.397-16.91,6.279
					c-3.148,2.609-5.417,6.752-5.392,10.899c0.018,2.971,0.375,9.725,3.09,11.361c2.631,1.586-0.246,1.109,73.83,1.649
					C3609.299,564.328,3612.69,561.913,3612.888,551.035z M1423.089,562.109c3.359-2.13,2.338-326.214,2.951-351.447
					c0.245-10.062,1.324-20.186-0.141-30.188c-2.756-18.805-0.019-22.372-5.866-24.466c-2.514-0.9-28.014-3.494-42.254-0.505
					c-7.437,1.561-8.818,2.171-9.606,4.244c-1.099,2.89-1.601,46.279-0.555,47.971c0.526,0.851,6.451,1.121,21.443,0.976
					c19.879-0.193,20.908-0.107,25.466,2.129c6.019,2.952,6.354,5.581,1,7.828c-6.955,2.919-44.522,2.388-47.124,4.845
					c-2.593,2.45-1.151,124.069-1.301,119.479c0,0-0.524,96.219-0.044,111.362c0.408,12.895,1.084,25.688,0.24,38.531
					c-0.6,9.134-1.038,17.056-0.975,17.606c0.046,0.402,1.645,49.999,1.8,50.282
					C1369.253,562.825,1419.993,564.074,1423.089,562.109z M1386.431,491.045c-6.126-1.569-6.814-5.04-1.433-7.231
					c3.648-1.486,26.326-1.418,29.138,0.086c2.841,1.521,2.702,3.658-0.371,5.671
					C1410.868,491.469,1392.047,492.483,1386.431,491.045z M1390.493,473.074c-8.144-0.82-11.494-2.857-9.609-5.844
					c1.657-2.627,7.559-3.389,23.678-3.059c11.403,0.233,14.988,0.626,15.658,1.713c1.113,1.805-0.607,4.614-3.684,6.016
					C1413.365,473.345,1399.42,473.974,1390.493,473.074L1390.493,473.074z M1400.773,452.751c-1.65-0.478-6.397-0.6-10.55-0.272
					c-6.708,0.53-7.851,0.36-10.25-1.527c-3.368-2.65-3.416-4.463-0.174-6.588c2.887-1.892,10.077-1.896,34.247-2.667l1.579,2.411
					c1.823,2.783,1.199,6.557-1.21,7.318C1409.712,452.912,1403.435,453.522,1400.773,452.751L1400.773,452.751z M1387.523,270.873
					c-1.725-1.794-1.566-5.441,0.321-7.328c1.637-1.637,10.746-2.012,16.929-0.697c4.364,0.928,4.626,4.492,0.487,6.632
					C1401.01,271.679,1389.191,272.607,1387.523,270.873L1387.523,270.873z M1381.536,248.317c-3.884-0.561-6.263-3.612-6.263-8.03
					c0-5.132,2.248-5.784,20-5.799c16.39-0.014,19.277,0.633,20.538,4.606c1.037,3.266-2.49,7.247-7.146,8.065
					C1403.205,248.118,1385.421,248.878,1381.536,248.317L1381.536,248.317z M1498.507,557.474
					c0.797-5.262,1.49-103.864,0.951-135.5c-2.587-151.935,0.807-136.434-0.842-256.5c-4.591-8.963-5.804-12.104-9.569-13.512
					c-1.843-0.689-10.568-1.447-19.954-1.733c-14.502-0.442-17.345-0.268-21.785,1.328c-13.991,5.031-7.211-8.923-7.694,248.736
					c-0.032,17.019-0.427,150.041-0.442,154.783c1.372,2.22,3.76,6.685,6.391,7.205c2.843,0.562,45.761,0.223,52.184,0.192
					C1497.748,562.474,1498.506,557.474,1498.507,557.474z M1452.928,490.737c-2.621-1.954-1.83-5.995,1.345-6.873
					c4.54-1.255,30.488-1.003,31.8,0.309c1.69,1.69,1.49,4.314-0.452,5.928C1483.198,492.115,1455.499,492.654,1452.928,490.737z
					 M1458.273,473.097c-9.041-1.439-12.144-6.2-5.25-8.056c5.938-1.599,28.32-2.451,31.5-1.199c3.706,1.458,3.75,5.43,0.088,7.83
					C1481.667,473.601,1466.57,474.417,1458.273,473.097z M1454.878,452.405c-5.376-1.97-6.755-3.337-6.406-6.346
					c0.289-2.488,0.62-2.613,8.801-3.307c10.901-0.926,32.484,0.124,34.616,1.683c2.258,1.651,0.994,5.045-2.399,6.442
					c-2.252,0.927-24.049,3.168-29.217,3.003C1459.448,453.854,1457.021,453.19,1454.878,452.405L1454.878,452.405z
					 M1450.274,241.908c-3.182-1.342-7-4.907-7-6.536c0-0.689,1.186-2.186,2.635-3.326c2.453-1.929,3.93-2.073,21.393-2.073
					c19.958,0,19.972,0.003,19.972,4.927c0,6.436-10.965,5.45-29.5,7.507C1455.023,242.712,1451.648,242.488,1450.274,241.908
					L1450.274,241.908z M1443.946,217.165c-2.035-2.248-2.166-5.538-0.283-7.1c3.28-2.722,31.973-4.048,38.61-1.785
					c4.004,1.365,3.5,1.385,3.5,10.194C1447.736,218.986,1445.86,219.279,1443.946,217.165L1443.946,217.165z M2309.103,562.05
					c2.382-0.46,4.769-1.275,5.305-1.812c1.951-1.951,4.023-19.159,2.966-24.633c-2.518-13.036-0.774-15.741-5.094-22.549
					c-358.029-0.009-342.632-0.104-403.507-0.582l0.197,7.203c0.298,10.894,3.259,14.103,3.39,24.728
					c0.048,3.888,0.386,9.299,0.75,12.026c0.557,4.17,1.06,5.068,3.162,5.65C1919.879,563.081,2303.929,563.049,2309.103,562.05z
					 M1944.156,557.224c-1.527-3.935-0.712-27.546,1.022-29.636c1.716-2.068,5.699-2.087,6.487-0.032
					c0.991,2.584,0.689,27.071-0.368,29.853C1949.903,561.076,1945.608,560.965,1944.156,557.224L1944.156,557.224z
					 M1988.308,558.039c-0.569-1.064-1.062-5.901-1.095-10.75c-0.148-21.939-5.698-21.649-0.522-26.825c4-4,5.752-2.961,8.379,4.971
					c1.981,5.983,2.17,7.77,1.371,12.988c-1.635,10.679,1.302,9.687-2.68,16.8C1990.841,560.439,1989.863,560.944,1988.308,558.039
					L1988.308,558.039z M1967.257,554.945c-1.685-3.149-2.338-17.802-1.09-24.452c1.31-6.977,4.088-10.608,6.551-8.564
					c1.279,1.062,1.554,3.938,1.554,16.233c0,8.388-0.454,15.792-1.035,16.878C1971.885,557.566,1968.633,557.515,1967.257,554.945
					L1967.257,554.945z M2280.472,555.774c-1.449-1.449-1.671-22.431-0.277-26.099c1.057-2.78,3.933-4.245,5.418-2.76
					c1.12,1.12,1.29,24.494,0.203,27.918C2285.072,557.181,2282.357,557.658,2280.472,555.774z M2297.916,555.487
					c-0.93-2.424-1.332-19.764-2.865-23.811c-0.933-2.461-0.72-3.154,1.768-5.75c6-6.262,7.964-2.77,7.014,12.467
					c-0.38,6.095-1.017,12.653-1.415,14.575C2301.649,556.674,2298.951,558.184,2297.916,555.487z M2346.251,560.008
					c0.973-1.574,2.408-159.271,1.505-165.296c-0.385-2.571-1.329-5.195-2.097-5.833c-1.679-1.393-10.987-0.704-12.626,0.935
					c-1.471,1.471-3.948,18.738-3.967,27.66c-0.01,4.609,1.921,15.974,3.603,21.2c0.821,2.551-1.504,7.702-4.145,9.181
					c-2.243,1.256-2.025,10.522,0.396,16.862c2.071,5.424,1.323,19.146-1.647,30.189c-4.658,17.323,0.332,13.164,3.572,29.848
					c2.246,11.568,2.977,11.521,1.392,23.501c-1.433,10.828-0.994,12.758,3.132,13.753
					C2338.521,562.769,2345.317,561.52,2346.251,560.008L2346.251,560.008z M2514.701,561.402c1.517-1.517,1.726-2.79,2.026-12.343
					c0.346-11.025-10.004-14.259-39.129-12.227c-18.02,1.257-24.983,2.633-26.361,5.208c-1.538,2.874-2.863,18.203-1.701,19.684
					c0.747,0.953,8.432,1.25,32.287,1.25C2508.95,562.974,2513.339,562.764,2514.701,561.402L2514.701,561.402z M2767.242,558.724
					c4.553-5.429,9.059-11.823,10.394-14.75c1.705-3.738,2.188-4.553,7.625-12.877c26.427-40.452,51.271-81.913,76.848-122.9
					c123.321-197.623,125.008-192.687,113.413-201.368c-2.613-1.956-9.2-5.938-14.639-8.849c-8.438-4.516-10.888-5.364-16.696-5.78
					c-12.467-0.892-6.934-3.929-66.251,93.196c-66.888,109.458-55.875,87.453-91.032,146.249
					c-18.538,31.001-39.563,61.125-56.196,93.131c-2.087,4.016-4.164,7.53-4.615,7.809c-3.114,1.924,3.613,11.838,11.902,17.541
					C2748.872,557.611,2764.357,562.163,2767.242,558.724z M2756.999,536.729c-13.741-7.542-17.56-12.535-11.787-15.413
					c4.86-2.423,9.944,3.826,19.561,9.965c4.18,2.668,5,3.684,5,6.192C2769.772,542.013,2766.253,541.808,2756.999,536.729z
					 M2839.643,392.987c-2.54-1.025-3.86-6.557-6.479-15.18c2.734-11.106,6.444-34.247,30.494-36.481
					c5.688-0.528,11.143,1.623,13.039,5.143c0.591,1.098,1.862,3.192,2.825,4.654c7.469,11.348-12.431,33.85-13.332,33.85
					c-0.466,0-2.387,1.351-4.269,3.003s-5.032,3.677-7.003,4.5C2851.036,394.099,2843.058,394.366,2839.643,392.987
					L2839.643,392.987z M2868.425,367.569c4.528-6.95,4.753-9.365,1.258-13.518c-3.879-4.61-8.68-4.303-15.365,0.981
					c-5.101,4.032-9.132,10.221-7.608,11.68c0.438,0.419,1.306-0.098,1.929-1.15c2.401-4.053,4.685-5.705,6.934-5.017
					c4.43,1.357,4.969,2.482,4.305,8.971c-0.344,3.358-0.32,6.41,0.053,6.784C2860.985,377.353,2864.21,374.038,2868.425,367.569
					L2868.425,367.569z M2922.572,277.504c-4.792-2.084-12.144-7.767-12.894-9.968c-0.457-1.34,0.03-2.497,1.578-3.75
					c4.352-3.524,4.635-1.544,18.234,8.301c1.968,1.425,2.088,1.922,1.027,4.25C2929.176,279.28,2927.292,279.557,2922.572,277.504
					L2922.572,277.504z M2938.266,264.04c-5.354-1.628-12.041-5.727-21.056-12.905c-7.421-5.909,1.426-12.205,10.925-3.693
					c2.001,1.793,5.033,3.973,6.739,4.845c3.56,1.82,9.398,8.103,9.398,10.115c0,1.061-2.488,2.917-3.332,2.486
					C2940.849,264.841,2939.645,264.459,2938.266,264.04L2938.266,264.04z M2942.772,243.894
					c-10.576-3.996-14.504-14.921-5.365-14.921c2.859,0,15.865,10.663,15.865,13.007c0,1.783-2.805,4.117-4.684,3.897
					C2948.14,245.826,2945.522,244.933,2942.772,243.894z M1748.6,544.351c3.278-6.2,5.567-12.83,8.761-19.047
					c5.209-10.127,8.994-21.102,13.305-31.64c6.141-15.011,10.644-25.426,27.841-65.885c20.486-48.196,41.061-100.936,60.77-142.306
					c1.05-2.198,2.446-5.795,3.105-7.995c4.305-14.381,24.092-53.783,24.636-60.882c0.799-10.436-17.215-17.943-25.582-19.16
					c-4.232-0.615-5.25-0.074-7.592,4.039c-20.433,35.882-31.986,70.639-42.893,95.717
					c-51.961,119.468-13.472,28.042-64.533,148.254c0,0-34.955,82.057-35.051,82.247c-2.724,5.401-3.714,16.516-1.655,18.576
					c2.656,2.657,16.813,10.068,21.524,11.269C1742.828,560.493,1744.136,552.795,1748.6,544.351z M1718.593,531.22
					c-1.521-1.856-0.603-4.247,1.63-4.247c2.418,0,21.221,7.882,23.051,9.662c1.331,1.295,1.281,1.622-0.441,2.899
					C1735.775,544.767,1719.535,532.37,1718.593,531.22z M1735.684,525.542c-7.866-3.935-10.952-6.714-10.054-9.054
					c1.058-2.758,3.568-2.809,9.592-0.196c8.909,3.864,14.052,7.412,14.052,9.694c0,1.093-0.563,1.994-1.25,2.001
					C1744.681,528.026,1745.037,530.222,1735.684,525.542L1735.684,525.542z M1781.961,418.328
					c-1.567-1.566-0.622-15.849,1.313-19.854c1.089-2.254,1.949-6.182,1.972-9c0.062-7.864,1.672-12.373,4.69-13.13
					c2.094-0.526,3.028-0.062,5.028,2.492c3.012,3.849,4.413,3.914,8.348,0.388c3.505-3.141,5.317-9.189,3.882-12.961
					c-0.778-2.046-1.391-2.344-3.759-1.824c-2.467,0.542-3.177,0.119-5.546-3.299c-2.369-3.418-2.678-4.723-2.416-10.189
					c0.391-8.145,1.562-8.946,9.337-6.387c7.248,2.385,8.285,3.894,6.465,9.406c-2.404,7.286,0.999,2.994,0.999,14.39
					c0,5.94-0.297,6.808-4.034,11.764c-2.219,2.943-4.26,6.475-4.537,7.85c-1.528,7.6-1.873,7.976-9.34,10.191
					c-5.872,1.742-7.9,4.781-8.829,13.227C1784.832,417.784,1783.671,420.037,1781.961,418.328L1781.961,418.328z M1849.087,268.048
					c-9.018-3.526-13.872-7.551-12.257-10.164c1.102-1.784,5.287-0.853,13.752,3.057
					C1868.195,269.078,1860.388,272.466,1849.087,268.048L1849.087,268.048z M1856.274,253.352
					c-8.87-3.96-10.208-4.762-11.687-7.012c-1.222-1.859-1.195-2.342,0.214-3.751c1.845-1.845,5.474-1.328,9.473,1.352
					c1.375,0.921,4.616,2.46,7.203,3.419c4.985,1.848,6.844,4.647,4.757,7.162C1864.616,256.472,1862.779,256.256,1856.274,253.352
					L1856.274,253.352z M1855.516,239.331c-8.075-3.913-10.157-6.299-7.669-8.788c2.134-2.134,3.131-2.021,12.555,1.418
					c8.787,3.207,11.871,5.301,11.871,8.06C1872.274,244.176,1864.887,243.872,1855.516,239.331L1855.516,239.331z
					 M2709.474,536.096c8.727-16.601,6.064-11.939,22.352-38.258c31.077-50.218,76.762-123.629,76.762-123.629
					c15.196-24.925,29.36-51.033,46.057-74.982c1.72-2.467,4.071-6.119,5.225-8.118c12.994-22.506,27.195-44.185,40.554-66.909
					c2.227-3.789,3.49-5.216,1.049-9.101c-6.702-10.668-14.717-13.48-39.572-22.508c-8.637,11.799-19.788,24.483-27.01,37.783
					c-5.702,10.502-6.813,9.945-11.615,19.101c-4.724,9.009-11.15,17.478-16.649,26.076
					c-30.418,47.557-79.987,132.007-111.855,182.231c-5.29,8.333-11.377,17.472-13.559,22.192
					c-2.927,6.335-27.941,42.139-27.941,47.956c0,2.422,10.903,13.563,14.333,14.647c1.191,0.377,3.672,1.831,5.511,3.232
					c5.216,3.972,15.387,9.082,18.152,9.12C2698.507,555.028,2706.128,542.461,2709.474,536.096z M2689.676,534.678
					c-5.592-3.009-7.286-5.004-14.153-9.769c-4.509-3.128-5.594-6.576-2.798-8.896c2.043-1.696,4.848-0.547,11.106,4.55
					c2.978,2.425,5.623,4.41,5.878,4.41c0.883,0,9.28,5.953,10.542,7.473c1.012,1.219,1.016,1.829,0.022,3.027
					C2698.531,537.572,2694.49,537.269,2689.676,534.678L2689.676,534.678z M2765.378,395.256c-2.465-1.214-4.073-3.154-5.872-7.084
					c-2.136-4.666-2.417-6.467-2.034-13.068c0.374-6.453,1.047-8.804,4.284-14.964c4.292-8.168,11.244-16.456,15.764-18.793
					c1.643-0.849,6.196-1.781,10.12-2.07c8.594-0.634,10.712,0.631,15.621,9.33c3.539,6.27,3.525,9.483-0.071,16.531
					c-3.01,5.901-0.904,6.28-3.917,10.109c-3.452,4.389,0.331,1.265-7.23,9.993c-3.7,4.271-6.991,6.87-11.25,8.885
					C2773.93,397.371,2770.225,397.643,2765.378,395.256L2765.378,395.256z M2788.401,376.224
					c3.952-4.342,7.872-13.003,7.872-17.392c0-11.677-9.384-14.213-19.751-5.339c-4.592,3.931-10.522,14.42-9.284,16.423
					c1.282,2.074,4.32,0.76,6.816-2.949c3.336-4.958,6.281-6.339,9.183-4.306c2.358,1.652,2.419,3.432,0.451,13.063
					C2782.837,379.885,2784.873,380.101,2788.401,376.224z M2863.996,260.551c-8.499-3.495-16.723-10.133-16.723-13.498
					c0-2.85,1.598-5.078,3.641-5.078c1.35,0,16.466,10.004,20.109,13.308c2.605,2.363,2.967,6.203,0.668,7.085
					C2869.764,263.106,2870.812,263.353,2863.996,260.551z M2874.037,242.978c-6.679-2.011-17.764-10.855-17.764-14.172
					c0-0.969,0.872-2.228,1.937-2.798c1.556-0.833,3.7-0.135,10.894,3.542c10.398,5.315,13.169,7.599,13.169,10.857
					C2882.273,243.793,2879.56,244.641,2874.037,242.978z M1862.274,551.492c19.437-4.985,33.331-10.282,33.835-12.898
					c0.321-1.669-0.07-1.801-3.486-1.177c-5.776,1.054-37.204,11.514-37.879,12.607c-0.644,1.043,0.242,2.971,1.34,2.915
					C1856.463,552.918,1859.249,552.267,1862.274,551.492L1862.274,551.492z M3293.165,549.415
					c2.334-2.334,2.642-85.131,0.332-89.174c-0.702-1.228-3.67-3.366-6.596-4.75c-4.838-2.289-6.49-2.515-18.224-2.497
					c-19.621,0.03-35.248,2.825-39.484,7.061c-1.946,1.946-1.998,3.223-1.862,45.211c0.077,23.765,0.507,43.658,0.956,44.209
					C3229.123,550.5,3292.137,550.443,3293.165,549.415L3293.165,549.415z M3363.326,548.92c5.807-0.006,1.908-72.952,1.571-79.807
					c-0.224-4.555,0.964-12.887-5.381-13.422c-5.213-0.439-10.834,0.438-16.069,0.65c-26.965,1.09-34.265,2.7-35.985,7.935
					c-0.963,2.932-0.688,86.099-0.688,85.198c8.501,0.195,44.89,0.999,50.25,1.278
					C3360.179,550.916,3361.801,550.445,3363.326,548.92z M3431.211,548.087c0.6-1.121,1.277-18.67,1.667-43.25
					c0.74-46.482,0.526-48.721-4.863-50.995c-6.329-2.67-45.531-0.95-49.281,2.163c-2.815,2.336-2.334,91.178,0.538,92.991
					c0.837,0.529,12.417,0.954,26.215,0.962C3428.691,549.973,3430.264,549.858,3431.211,548.087L3431.211,548.087z
					 M1867.35,539.977c19.134-6.155,26.423-9.355,26.423-11.602c0-3.026-4.371-2.849-14.643,0.592
					c-10.499,3.518-25.224,10.172-26.276,11.875c-0.751,1.215,0.048,3.13,1.305,3.13
					C1854.582,543.974,1860.518,542.175,1867.35,539.977L1867.35,539.977z M1859.831,530.555c1.067-0.78,1.605-1.753,1.195-2.162
					c-1.054-1.054-5.995,1.379-5.25,2.585C1856.611,532.328,1857.539,532.231,1859.831,530.555z M2412.523,529.29
					c1.31-0.759,0.808-5.023-0.742-6.31c-0.932-0.774-6.336-1.435-14.399-1.762c-12.155-0.493-13.088-0.395-16.008,1.684
					c-3.211,2.286-4.235,6.411-1.851,7.449C2380.913,530.955,2411.337,529.977,2412.523,529.29z M2484.114,527.176
					c7.285-3.78,2.676-9.32-8.338-10.022c-9.146-0.582-14.986,0.513-18.498,3.468c-3.667,3.085-3.704,3.742-0.405,7.041
					c2.558,2.558,2.767,2.59,13.091,2.005C2477.393,529.249,2481.522,528.521,2484.114,527.176L2484.114,527.176z M3552.054,522.395
					c8.309-3.527,32.218,1.273,32.218-4.938c0-2.361-3.999-2.702-18.79-1.603c-15.088,1.121-22.494,2.551-24.266,4.687
					C3538.333,524.016,3545.392,525.223,3552.054,522.395L3552.054,522.395z M1873.344,510.215
					c14.899-5.632,20.373-8.435,20.782-10.639c1.187-6.402-25.916,9.397-30.076,9.397c-2.74,0-7.776,3.139-7.776,4.846
					C1856.274,515.881,1860.992,514.884,1873.344,510.215z M2389.273,512.89c32.959-2.433,40.273,3.935,44.185-0.896
					c2.541-3.138,2.337-8.187-0.435-10.762c-3.336-3.1-12.016-4.266-31.184-4.192c-19.065,0.074-34.22,1.776-35.629,4.001
					c-0.822,1.299-3.13,15.287,4.97,13.55C2372.607,514.285,2380.749,513.519,2389.273,512.89L2389.273,512.89z M3536.103,512.059
					c10.78-5.442,16.101-6.456,34.169-6.515c13.623-0.044,18.388,0.351,27.325,2.266c5.954,1.276,11.488,2.065,12.298,1.755
					c1.126-0.432,1.403-2.034,1.175-6.813c-0.293-6.149-0.361-6.283-4.3-8.451c-2.201-1.212-6.926-2.678-10.5-3.257
					c-8.081-1.311-34.94-1.318-40.998-0.011c-15.953,3.443-16.348,1.291-26.5,7.258c-3.689,2.168-4.024,2.728-4.312,7.201
					C3523.791,515.889,3526.022,517.148,3536.103,512.059z M2491.773,508.473h23c0.995-13.684,4.284-11.885-58.149-12.666
					c-2.502,2.105-9.24,6.767-6.271,12.315C2452.296,511.752,2451.703,508.473,2491.773,508.473L2491.773,508.473z
					 M1864.833,503.017c7.656-4.382,25.063-8.811,28.865-14.239c2.46-3.512,0.377-4.252-5.581-1.983
					c-11.006,4.19-30.388,13.333-31.576,14.895c-0.918,1.206-0.946,1.966-0.109,2.975
					C1857.689,506.179,1860.154,505.695,1864.833,503.017L1864.833,503.017z M1984.892,495.174
					c-0.33-1.949-2.625-29.072-0.409-33.191c1.748-3.249,4.166-3.633,6.729-1.07c3.296,3.296,2.749,20.025-1.071,32.78
					c-0.695,2.32-1.062,4.406-0.815,4.636c0.594,0.553,310.576,1.358,320.994,1.39c6.503-9.133,6.159-14.944,5.454-42.913
					c-2.494-2.226-4.155-3.709-6.647-5.934c-48.978,0.452-137.742,1.223-186.353,1.972c-51.836,0.798-216.114-2.129-220.246,0.463
					c-2.182,1.369,1.746,4.733,1.746,8.173c0,0.882,0.903,3.586,2.006,6.008c1.477,3.242,2.177,7.587,2.655,16.466
					c0.357,6.634,1.141,12.733,1.744,13.553s3.035,1.823,5.406,2.229c4.782,0.819,63.307,0.541,67.062-0.319
					C1985.606,499.109,1985.309,497.633,1984.892,495.174z M1942.98,492.816c-2.305-3.037-2.536-4.211-2.528-12.843
					c0.01-11.758,0.252-12.654,3.922-14.552c3.422-1.769,4.359-1.395,6.403,2.559c2.414,4.669-0.484,4.324-0.528,12.808
					c-0.031,6.071-1.449,12.086-3.281,13.918C1945.7,495.976,1945.198,495.738,1942.98,492.816L1942.98,492.816z M2293.673,494.207
					c-2.419-1.613-3.399-5.489-3.394-13.418c0.01-9.851,1.342-15.396,4.059-16.85c2.429-1.3,3.512-0.685,5.473,3.107
					c2.461,4.76-0.528,1.896-0.552,14.612C2299.241,491.43,2297.013,496.434,2293.673,494.207L2293.673,494.207z M1961.127,491.723
					c-0.744-1.374-1.222-6.53-1.23-13.25c-0.01-8.95,0.324-11.512,1.797-13.75c3.305-5.022,4.583-2.353,9.915,5.341
					c-1.139,3.499-4.364,12.737-4.363,16.409C1967.246,496.659,1962.554,494.361,1961.127,491.723z M2274.722,490.917
					c-2.682-2.963-3.432-19.794-1.045-23.437c1.773-2.705,5.643-3.364,7.384-1.256c1.147,1.388,0.16,23.406-1.144,25.517
					C2278.795,493.557,2276.83,493.245,2274.722,490.917z M2395.588,488.124l13.185-0.651c0-5.772,0.658-5.832-5-7.274
					c-5.208-1.327-16.685-0.894-23.733,0.894c-4.254,1.08-6.579,4.196-4.764,6.383c1.175,1.416,4.866,2.409,6.312,1.698
					C2382.036,488.955,2388.336,488.482,2395.588,488.124L2395.588,488.124z M1872.596,487.379c7.099-2.419,2.435-2.417,8.856-4.341
					c6.707-2.01,11.621-6.065,7.349-6.065c-2.012,0-10.527,4.206-10.527,5.199c0,0.44-1.184,0.801-2.632,0.801
					c-2.814,0-9.368,3.555-9.368,5.082C1866.274,489.318,1867.194,489.22,1872.596,487.379z M2488.374,484.273
					c2.527-2.526-3.964-7.135-12.864-9.135c-6.833-1.535-18.375,2.546-19.787,6.997c-0.948,2.987,2.31,6.12,5.507,5.298
					C2465.107,486.434,2487.009,485.638,2488.374,484.273z M3555.772,480.922c13.498-1.971,30.96-3.351,21.135-7.457
					c-11.22-4.688-38.635-1.141-38.635,4.999c0,2.071,5.056,4.594,8,3.991C3547.647,482.174,3551.922,481.484,3555.772,480.922
					L3555.772,480.922z M1872.392,477.625c8.702-4.566,11.966-6.637,14.01-6.645c2.05-0.008,4.255-2.578,3.4-3.962
					c-1.375-2.224-5.392-0.795-14.657,5.212c-14.397,9.335-14.027,8.608-11.252,8.685
					C1865.057,480.947,1868.882,479.467,1872.392,477.625L1872.392,477.625z M2385.773,470.025c6.383-0.861,18.188-0.408,38,1.456
					c3.299,0.31,6.625,0.145,7.393-0.369c6.602-4.419,3.039-21.871,2.959-28.214c0-12.353-0.314-24.714-0.47-37.065
					c-0.154-12.131,0.692-24.294,0.477-36.472c-0.671-38.056-0.087-72.32-0.566-103.429c-0.048-3.131,1.514-14.547-1.091-17.157
					c-1.014-1.016-8.427-1.302-33.714-1.302c-27.652,0-32.637,0.223-33.933,1.518c-1.338,1.338-1.522,14.147-1.553,108
					c-0.038,115.795-0.74,111.099,1.697,113.536C2366.765,472.322,2369.171,472.264,2385.773,470.025z M2392.273,386.061
					c-2.827-0.766-2.5-1.711-2.5-8.587c28.602-1.436,32.195-2.222,29.928,4.225c-0.807,2.296-1.718,2.859-5.448,3.372
					C2405.737,386.242,2394.764,386.736,2392.273,386.061L2392.273,386.061z M2381.394,367.024c-3.618-0.91-5.275-2.632-4.862-5.05
					c0.35-2.046,5.739-2.794,27.241-3.784c19.738-0.909,24.5-0.188,24.5,3.708c0,1.262-1.224,2.679-3.25,3.761
					C2419.731,368.484,2384.381,367.775,2381.394,367.024L2381.394,367.024z M2392.273,349.349
					c-12.226-2.381-14.162-7.639-3.837-10.419c5.373-1.447,25.038-1.455,27.736-0.011c2.789,1.492,2.682,5.161-0.229,7.896
					c-1.973,1.854-3.777,2.254-11.75,2.605C2401.276,349.549,2395.238,349.72,2392.273,349.349z M3550.272,461.751
					c10.71-2.775,12.393-2.944,24.5-2.46c10.049,0.402,14.913,1.106,21.426,3.101c9.916,3.038,13.6,3.259,14.516,0.872
					c0.636-1.658,2.464-67.072,2.558-151.113c-5.057-4.255-8.091-8.726-39-8.614c-21.83,0.079-34.067,2.04-41.764,6.693
					c-3.979,2.406-5.531,4.044-6.36,6.713c-0.731,2.356-1.265,27.832-1.605,76.59c-0.588,84.343-1.303,78.13,8.49,73.758
					C3536.191,465.883,3543.948,463.389,3550.272,461.751L3550.272,461.751z M3562.522,403.012c-2.717-1.176-2.916-4.126-0.43-6.375
					c2.158-1.953,10.395-3.663,17.643-3.663c4.213,0,5.622,0.461,7.49,2.449C3596.652,405.457,3564.351,403.804,3562.522,403.012
					L3562.522,403.012z M3553.661,385.995c-3.797-1.536-3.611-7.898,0.278-9.497c2.534-1.042,36.017-0.595,38.951,0.521
					c2.969,1.129,3.261,5.415,0.472,6.907C3590.325,385.551,3556.872,387.294,3553.661,385.995L3553.661,385.995z M3554.772,370.122
					c-3.458-0.77-3-0.72-3-11.648c41.722,0.153,47.5-0.302,47.5,4.512c0,2.679-3.651,4.821-10.078,5.914
					C3581.961,370.129,3558.542,370.961,3554.772,370.122z M2515.569,465.473c1.423-4.599,2.215-203.677,0.821-206.282
					c-0.815-1.524-3.102-2.523-8.537-3.732c-6.545-1.456-9.829-1.521-27.751-0.547c-23.927,1.3-29.475,1.921-30.7,3.438
					c-1.119,1.386-3.74,197.231-2.729,203.873c0.398,2.612,1.259,4.793,1.913,4.845c2.619,0.21,46.007-0.457,53.688,0.801
					c3.025,0.495,7.045,0.834,8.934,0.752C2514.094,468.497,2514.789,467.996,2515.569,465.473L2515.569,465.473z M2478.303,384.029
					c-1.743-3.256,0.812-6.603,5.65-7.402c9.434-1.559,19.689,0.135,19.131,3.161c-0.527,2.854-7.564,5.503-15.908,5.986
					C2480.043,386.186,2479.389,386.057,2478.303,384.029z M2459.273,363.022c0-1.913,0.601-3.09,1.75-3.426
					c3.386-0.992,37.827-1.708,44.25-0.92c5.633,0.691,6.542,1.09,6.812,2.99c0.231,1.621-0.551,2.652-3,3.957
					c-2.765,1.473-6.286,1.797-21.312,1.96C2459.551,367.89,2459.273,366.76,2459.273,363.022z M2466.023,347.974
					c-2.176-1.368-2.271-5.337-0.179-7.429c1.911-1.911-0.964-1.575,18.739-2.191c18.027-0.564,19.69-0.207,19.69,4.219
					c0,4.347-3.206,5.27-20.512,5.91C2472.886,348.885,2467.214,348.723,2466.023,347.974L2466.023,347.974z M3318.06,448.269
					c6.264-1.906,29.577-2.502,38.47-0.983c4.031,0.688,4.857,0.552,5.413-0.895c1.784-4.65-8.083-6.146-30.372-4.605
					c-17.301,1.196-23.298,2.733-23.298,5.969c0,2.391,1.021,3.423,2.735,2.766C3311.744,450.239,3314.918,449.225,3318.06,448.269
					L3318.06,448.269z M3286.655,443.973c-4.758,0-3.332,2,1.236,2C3292.649,445.973,3291.222,443.973,3286.655,443.973z
					 M3425.206,442.318c1.469-1.281-3.007-2.707-11.029-3.511c-14.925-1.497-31.294,2.741-32.619,3.741
					c-1.507,1.137,1.725,1.253,20.714,0.748C3414.648,442.966,3424.968,442.526,3425.206,442.318L3425.206,442.318z
					 M2276.354,439.479c16.835,0.998,16.937,0.939,16.862-9.791c-0.093-13.174-2.027-13.989-0.313-21.5
					c2.14-9.373,2.74-19.666,1.219-20.908c-2.14-1.748-318.039-1.959-390.915-2.506c-19.307-0.145-13.698,15.044-17.575,25.732
					c-2.839,7.824,1.624,3.306,1.636,17.026c0,4.081,0.533,7.763,1.256,8.728c3.645,4.868,1.393,2.701,211.25,2.573
					C2104.687,438.834,2264.575,438.781,2276.354,439.479z M2228.623,428.442c-0.323-0.843-0.262-8.051,0.136-16.019
					c0.592-11.849,1.058-14.893,2.557-16.718c1.484-1.807,2.177-2.021,3.645-1.124c1.604,0.98,1.844,2.894,2.087,16.654
					c0.233,13.151,0.029,15.792-1.321,17.142C2233.697,430.407,2229.392,430.446,2228.623,428.442L2228.623,428.442z
					 M1906.899,427.455c-1.343-1.343-1.625-4.021-1.625-15.431c0-14.86,0.548-16.537,5.188-15.878
					c2.859,0.406,3.559,3.276,3.619,14.827c0.066,12.711-0.845,17.434-3.433,17.803
					C1909.48,428.944,1907.792,428.349,1906.899,427.455z M1922.249,426.409c-1.06-2.787-1.133-22.077-0.102-26.935
					c0.49-2.311,1.252-3.071,3.319-3.31c4.692-0.543,5.937,2.863,5.649,15.453c-0.222,9.699-0.506,11.204-2.663,14.107
					C1925.543,429.638,1923.56,429.857,1922.249,426.409L1922.249,426.409z M2206.854,411.465
					c0.084-13.628,1.284-18.649,4.61-19.289c3.039-0.585,4.173,3.675,4.108,15.425c-0.066,11.969-1.365,17.803-4.312,19.381
					C2207.618,428.93,2206.745,429.186,2206.854,411.465z M2248.09,425.724c-1.95-3.498-1.63-23.332,0.45-27.879
					c1.813-3.964,3.643-5.163,5.825-3.817c1.832,1.129,2.65,28.693,0.947,31.876C2253.807,428.713,2249.699,428.61,2248.09,425.724z
					 M3240.272,434.863c6.753-1.636,13.021-2.165,30.5-2.575c12.1-0.284,22.434-0.927,22.965-1.43
					c1.915-1.815,2.352-13.137,0.786-20.359c-1.397-6.441-1.377-7.372,0.262-12.194c2.562-7.538,0.634-7.562-0.095-22.832
					c-0.462-9.697-1.445-11.757-6.749-14.15c-3.561-1.607-6.8-1.85-24.634-1.85c-22.11,0-31.222,0.83-33.438,3.045
					c-2.007,2.007-2.811,17.448-2.424,46.553c0.252,19.001,0.639,24.974,1.699,26.25
					C3230.811,437.326,3229.96,437.361,3240.272,434.863L3240.272,434.863z M3256.458,412.455c-3.756-1.632-3.254-2.073-2.685-7.982
					c22.388,0,26.991-0.522,26.301,5.41c-0.228,1.956-1.027,2.735-3.301,3.217C3271.186,414.286,3259.842,413.926,3256.458,412.455
					L3256.458,412.455z M3255.272,396.122c-5.738-0.893-7-1.72-7-4.585c0-4.384,1.883-4.843,18.019-4.384
					c12.031,0.342,15.334,0.745,16.617,2.028C3289.381,395.653,3264.115,397.499,3255.272,396.122z M3245.798,379.166
					c-0.289-0.289-0.526-2.01-0.526-3.824c0-4.801,2.427-5.649,17.673-6.172c14.757-0.506,18.327,0,18.327,2.6
					c0,4.061-2.753,6.023-9.251,6.594C3261.832,379.259,3246.365,379.733,3245.798,379.166L3245.798,379.166z M3318.457,433.388
					c8.42-1.825,17.57-1.404,45.315-0.915c1.374-57.59,2.903-71.082-1.894-73.76c-2.989-1.669-30.57-2.196-41.272-0.789
					c-13.128,1.726-12.622,0.767-13.616,25.806c-1.099,27.693-0.639,47.43,1.155,49.59
					C3309.818,435.335,3309.483,435.333,3318.457,433.388L3318.457,433.388z M3333.522,418.548
					c-7.498-3.409-1.937-7.782,10.661-8.384c6.956-0.333,8.91-0.11,9.942,1.134c1.55,1.867,0.177,5.054-2.882,6.691
					C3347.775,419.845,3337.116,420.182,3333.522,418.548z M3329.926,391.846c2.36-1.959,22.371-1.926,24.741,0.04
					c2.71,2.25,1.59,5.422-2.395,6.781c-4.104,1.4-18.499,1.582-21.75,0.275C3328.627,398.706,3326.914,394.346,3329.926,391.846z
					 M3324.722,375.658c-2.42-2.103-2.753-2.883-1.857-4.348c1.627-2.658,7.591-3.556,20.243-3.048
					c8.753,0.351,11.711,0.83,12.983,2.102c1.243,1.243,1.387,2.059,0.587,3.327c-1.465,2.323-4.776,3.038-17.776,3.838
					C3327.826,378.211,3327.631,378.186,3324.722,375.658L3324.722,375.658z M3409.771,429.464l20.998-0.04
					c1.802-3.761,2.49-1.849,2.761-34.636c0.222-26.863,0.088-29.617-1.56-32.143c-2.999-4.595-5.22-4.889-29.115-3.854
					c-18.171,0.787-22.14,1.224-23.105,2.544c-1.444,1.975-2.827,44.164-1.874,57.138c0.806,10.962,2.134,13.094,7.385,11.858
					C3387.192,429.876,3398.221,429.486,3409.771,429.464L3409.771,429.464z M3400.614,415.373
					c-2.563-3.911-0.828-5.749,6.263-6.638c12.191-1.528,20.688,0.954,18.332,5.356c-1.57,2.933-5.112,3.883-14.479,3.883
					C3402.774,417.974,3402.226,417.833,3400.614,415.373L3400.614,415.373z M3396.022,398.397c-1.218-1.229-0.857-6.09,0.538-7.248
					c1.654-1.373,24.374-1.571,29.212-1.676c0.309,2.65,0.935,4.796-1.557,7.052c-1.843,1.669-3.963,1.997-14.797,2.288
					C3402.463,399.001,3396.435,398.814,3396.022,398.397L3396.022,398.397z M3403.945,377.066
					c-4.666-0.979-8.644-4.522-6.964-6.201c2.408-2.409,19.042-3.741,25.197-2.019c3.892,1.089,4.95,3.717,2.488,6.179
					c-1.638,1.638-3.65,2.16-9.486,2.462C3411.105,377.697,3406.05,377.508,3403.945,377.066L3403.945,377.066z M2310.214,421.974
					c-1.131,0-1.557,2,0.618,2C2312.973,423.974,2311.37,421.974,2310.214,421.974z M2312.096,414.331
					c-0.596-3.032-6.596-5.537-3.869-0.443C2309.556,416.371,2312.566,416.716,2312.096,414.331z M2314.571,405.342
					c0.97-0.97-1.188-4.369-2.774-4.369c-1.821,0-2.851,1.705-2.144,3.548C2310.214,405.984,2313.398,406.515,2314.571,405.342
					L2314.571,405.342z M2317.09,391.716c0.244-2.124-0.215-2.958-2-3.632c-3.078-1.162-5.817,0.372-5.817,3.258
					c0,3.103,0.881,3.78,4.464,3.429C2316.218,394.528,2316.831,393.97,2317.09,391.716z M2346.938,373.724
					c1.269-3.571,0.723-32.765-0.637-34.105c-1.72-1.695-3.711,1.517-5.107,8.237c-1.362,6.56-0.762,22.677,0.964,25.903
					C2343.684,376.609,2345.918,376.593,2346.938,373.724L2346.938,373.724z M2298.273,373.125l5.5-0.651
					c0.796-13.301,1.299-26.868,3.588-33.754c1.893-5.694,2.611-16.231,1.162-17.054c-0.413-0.234-8.175,0.152-17.25,0.859
					c-25.182,1.961-372.744,1.08-373.646,1.065c-10.273-0.166-11.182,0.944-13.01,15.885c-1.295,10.581,0.25,27.521,2.736,30.008
					c3.347,3.347,17.118,3.45,169.7,3.388c83.263-0.034,151.65,0.201,151.971,0.522
					C2229.812,374.18,2291.358,373.943,2298.273,373.125L2298.273,373.125z M1929.249,364.409
					c-1.229-3.234-0.975-27.681-0.975-33.397c7.97-2,8.551-3.323,8.301,16.307c-0.114,8.906-0.665,16.465-1.285,17.625
					C1933.75,367.82,1930.434,367.527,1929.249,364.409L1929.249,364.409z M2260.513,365.703
					c-0.846-1.073-2.434-10.972-2.322-14.479c0.057-1.775,0.049-6.024-0.013-7.5c-0.071-1.693,3.002-9.934,4.278-11.471
					c1.583-1.908,4.479,0.17,5.796,4.158c2.115,6.407-1.303,0.933-2.495,18.336c-0.574,8.381-1.032,10.449-2.489,11.229
					C2262.042,366.632,2261.178,366.546,2260.513,365.703L2260.513,365.703z M1946.156,361.224c-1.407-3.622-0.666-26.025,0.959-29
					c1.342-2.458,4.07-2.938,5.958-1.05c1.52,1.52,1.662,28.069,0.165,30.866C1951.634,365.036,1947.449,364.554,1946.156,361.224
					L1946.156,361.224z M2217.308,362.039c-1.378-2.574-1.329-24.924,0.063-28.917c0.803-2.304,1.717-3.149,3.402-3.149
					s2.599,0.846,3.402,3.149c1.304,3.741,1.452,16.123,0.243,20.357c-0.47,1.646-0.527,3.893-0.125,4.993
					C2225.98,363.103,2219.616,366.352,2217.308,362.039L2217.308,362.039z M2240.145,362.318c-1.016-1.226-1.372-5.22-1.372-15.396
					c0-12.109,0.226-13.99,1.905-15.845c4.781-5.282,6.595-1.496,6.595,13.765c0,11.731-0.92,16.824-3.313,18.345
					C2242.231,364.288,2241.673,364.161,2240.145,362.318L2240.145,362.318z M2330.044,370.786c-0.543-1.63-5.456-3.149-7.554-2.335
					c-1.581,0.613-1.563,0.779,0.224,2.094C2325.095,372.297,2330.608,372.479,2330.044,370.786z M2328.026,361.82
					c2.337-2.337-2.81-7.53-6.181-6.236c-2.279,0.875-1.928,4.027,0.65,5.833C2325.145,363.273,2326.477,363.37,2328.026,361.82z
					 M2326.554,350.724c0.714-1.991-1.178-4.75-3.258-4.75c-2.565,0-3.346,1.529-2.035,3.979
					C2322.458,352.188,2325.852,352.682,2326.554,350.724L2326.554,350.724z M3393.127,348.908c3.496-1.064,7.208-1.935,8.25-1.935
					s1.895-0.45,1.895-1c0-2.212-27.972-0.619-24.504,4.994C3379.625,352.355,3383.747,351.764,3393.127,348.908L3393.127,348.908z
					 M3317.681,349.463c3.448-1.046,9.848-1.51,21.5-1.559c37.094-0.157,15.763-4.781-10.044-2.902
					c-15.408,1.122-19.237,1.957-19.688,4.294C3309.044,351.396,3311.166,351.439,3317.681,349.463z M3430.982,348.604
					c-0.877-2.632-27.253-4.491-8.412,0.412C3428.974,350.683,3431.632,350.553,3430.982,348.604L3430.982,348.604z
					 M2329.084,341.704c0.359-1.849-4.209-5.221-5.767-4.257c-1.567,0.968-1.271,2.3,1.019,4.59
					C2326.613,344.313,2328.605,344.174,2329.084,341.704L2329.084,341.704z M3294.443,246.295l-3.047-2.564
					c-9.334-7.854-60.877-5.77-62.501,0.062c-0.608,2.185-1.057,85.352-1.123,94.68c4.991-0.042,11.224,0.085,23.324-1.234
					c12.139-1.323,32.665-0.133,36.942,2.141c5.734,3.049,5.698,3.323,6.069-47.281
					C3294.108,292.099,3294.443,246.296,3294.443,246.295z M3422.704,335.961c4.769,0.9,10.991,3.328,11.161-9.657
					c1.046-79.874,1.44-79.374-2.24-82.268c-2.415-1.9-3.931-2.059-19.237-2.018c-6.417,0.017-12.847,0.114-19.251,0.552
					c-4.879,0.334-11-0.341-13.664,4.674c-2.163,4.072-1.433,8.806-1.286,13.21c1.139,34.248-1.093,72.694,0.805,75.864
					c0.283,0.464,1.698,0.573,3.146,0.242C3383.891,336.159,3412.013,333.944,3422.704,335.961z M3364.772,335.474
					c0.57-94.875,1.985-88.634-6.5-92.28c-4.503-1.935-29.492-2.794-40.417-1.39c-9.447,1.214-9.996,1.837-10.296,11.67
					c-0.53,17.368,0.31,77.776,1.116,80.251C3310.229,338.499,3311.045,332.489,3364.772,335.474z M2326.317,329.447
					c-2.022,1.25-1.082,3.527,1.456,3.527C2333.379,332.974,2327.894,328.472,2326.317,329.447z M2347.385,321.224
					c0.626-1.621,0.79-5.214,0.4-8.75c-0.731-6.616-0.731-6.573,0.068-28.177c0.559-15.108,0.551-15.183-1.759-16.455
					c-3.022-1.665-12.657-1.644-15.705,0.034c-2.377,1.309-2.383,1.352-1.881,15.455c0.64,17.977,1.636,15.584,5.25,25.865
					c1.583,4.505,9.67,14.778,11.633,14.778C2345.903,323.974,2346.8,322.736,2347.385,321.224L2347.385,321.224z M2038.225,309.988
					c54.699-0.486,99.781-0.68,100.183-0.431c1.574,0.973,148.627,0.457,151.224-0.53c3.324-1.264,3.502-5.127,0.654-14.214
					c-1.578-5.034-1.993-9.221-2.015-20.339c-0.015-7.7-0.359-14.502-0.763-15.115s-1.635-1.371-2.735-1.683
					c-1.1-0.312-20.444-0.26-42.988,0.115c-38.577,0.643-41.008,0.79-41.337,2.507c-0.193,1.003,0.389,2.641,1.292,3.638
					c1.399,1.546,1.585,3.865,1.257,15.676c-0.503,18.13-2.963,24.722-7.524,20.162c-1.455-1.455-1.577-19.235-0.197-28.8
					c0.516-3.575,1.063-7.395,1.217-8.489c0.555-3.947,10.458-3.316-295.409-4.011c-4.972,6.181-6.453,6.855-7.465,24.295
					c-0.612,10.554-0.514,11.486,1.5,14.21c1.188,1.607,2.155,4.404,2.155,6.233c0,4.015,2.22,7.447,5.259,8.13
					c1.233,0.277,9.891,0.285,19.241,0.017C1931.124,311.09,1983.527,310.474,2038.225,309.988L2038.225,309.988z M1915.863,299.799
					c-2.432-3.472-0.696-9.828-3.218-17.635c-1.848-5.723-1.429-8.437,1.946-12.609c1.586-1.96,2.907-2.709,4.021-2.281
					c1.45,0.557,1.66,2.646,1.66,16.546c0,12.47-0.305,16.162-1.41,17.079C1917.745,301.827,1917.125,301.6,1915.863,299.799
					L1915.863,299.799z M1930.146,297.321c-0.989-1.191-1.372-4.889-1.372-13.25c0-14.263,0.661-17.098,3.984-17.098
					c3.735,0,4.516,2.768,4.516,16c0,6.672-0.466,13.002-1.035,14.066C1934.97,299.409,1931.994,299.547,1930.146,297.321z
					 M2217.88,297.392c-0.334-0.87-0.607-7.813-0.607-15.429c0-11.255,0.294-14.141,1.571-15.418c2.45-2.45,5.336-1.931,6.562,1.179
					c1.389,3.524,0.385,27.92-1.229,29.865C2222.618,299.467,2218.628,299.343,2217.88,297.392L2217.88,297.392z M2236.786,293.586
					c-1.945-3.318-2.395-4.98-1.709-6.309c0.512-0.992,1.491-5.628,2.175-10.303c1.563-10.681,1.635-10.915,3.599-11.668
					c2.707-1.039,3.393,1.659,3.349,13.168C2244.125,298.045,2241.971,302.434,2236.786,293.586z M2315.273,308.933
					c1.245-0.838,0.82-1.599-2.5-4.47c-4.427-3.829-5.686-4.176-7.447-2.053c-1.767,2.129,0.324,5.325,4.22,6.451
					C2313.805,310.092,2313.557,310.088,2315.273,308.933L2315.273,308.933z M2313.273,296.497c0-1.746-3.392-4.115-7.25-5.064
					c-3.946-0.97-3.636,1.777,0.5,4.426C2310.338,298.302,2313.273,298.579,2313.273,296.497L2313.273,296.497z M3569.022,292.496
					c5.637-0.703,10.925-1.838,11.75-2.523c0.825-0.685,1.5-2.73,1.5-4.545c0-2.918-0.434-3.449-3.75-4.585
					c-7.966-2.729-38.302-1.738-38.235,7.535C3540.336,295.079,3544.043,295.61,3569.022,292.496z M2313.771,286.976
					c0.339-0.549-0.197-2.382-1.191-4.074c-1.719-2.926-1.722-3.139-0.058-4.362c2.421-1.779,2.189-3.988-0.751-7.161
					c-1.995-2.153-2.261-2.987-1.314-4.128c0.928-1.118,0.874-1.627-0.249-2.338c-5.198-3.289-11.059,4.107-5.79,9.716l2.146,2.284
					c-4.272,1.624-9.231,2.74,0.315,8.606C2311.146,288.14,2312.831,288.497,2313.771,286.976L2313.771,286.976z M3602.298,272.586
					c2.63,0.634,5.408,1.349,7.993,0.549c4.494-1.391,4.472-6.564,2.61-10.02c-6.578-12.214-29.485-11.517-43.303-10.729
					c-20.902,1.192-38.833,9.421-42.846,15.475c-1.74,2.626-2.43,7.318,1.002,8.685c2.694,1.073,6.741-0.993,9.219-1.938
					C3557.25,266.874,3581.284,267.524,3602.298,272.586z M2494.912,243.73c7.946-2.603,4.282-8.358-14.138-10.112
					c-11.736-1.118-19.397,0.505-24.683,5.228c-3.334,2.979-3.197,4.572,0.535,6.213
					C2459.584,246.36,2490.119,245.3,2494.912,243.73L2494.912,243.73z M2306.088,217.476c-0.323-16.407-0.788-22.765-1.75-23.924
					c-2.137-2.575-384.926-1.872-388.048-0.292c-3.131,1.584-3.287,4.697-6.213,12.037c-3.028,7.597-1.733,30.336,2.141,37.574
					c1.008,1.883,22.724,1.645,393.103,1.756l0.603-2.403C2305.926,241.324,2306.531,239.94,2306.088,217.476z M2239.341,233.1
					c-1.563-2.921-0.525-8.843-2.262-12.653c-0.938-2.059-0.922-3.057,0.074-4.653c1.005-1.609,1.021-3.062,0.079-6.989
					c-1.113-4.64-1.042-5.114,1.1-7.394c2.963-3.153,5.724-3.148,6.518,0.014c0.338,1.348,0.234,9.33-0.231,17.739
					c-0.726,13.122-1.084,15.335-2.529,15.61C2241.165,234.95,2239.927,234.197,2239.341,233.1L2239.341,233.1z M1936.604,231.355
					c-2.34-3.571-3.448-14.007-2.385-22.468c0.971-7.731,2.336-10.16,5.459-9.711c1.657,0.238,2.239,1.313,2.871,5.298
					c0.769,4.856,0.055,25.48-0.976,28.166C1940.751,234.778,1938.459,234.186,1936.604,231.355L1936.604,231.355z
					 M2215.274,231.994c-1.22-0.772-1.5-3.636-1.5-15.332c0-15.1,0.671-17.688,4.587-17.688c3.364,0,4.122,3.523,3.758,17.46
					C2221.716,231.882,2220.275,235.159,2215.274,231.994z M1949.918,230.474c-1.862-1.862-3.02-10.617-2.449-18.512
					c0.326-4.502,1.009-6.576,2.793-8.475c4.721-5.025,7.013-2.254,7.013,8.478c0,14.869,4.143,14.854,0.049,18.17
					C1954.57,232.364,1951.928,232.485,1949.918,230.474L1949.918,230.474z M2256.657,227.224
					c-1.896-5.999-3.855-6.565-3.145-15.966c0.793-10.507,3.453-14.589,7.94-12.188c1.946,1.041,2.003,1.659,1.317,14.246
					c-0.394,7.237-1.172,13.72-1.729,14.408C2259.585,229.522,2257.302,229.262,2256.657,227.224L2256.657,227.224z
					 M3577.089,240.263c3.846-2.869,3.864-4.887,0.058-6.855c-2.651-1.371-5.105-1.583-13.312-1.152
					c-16.222,0.852-25.736,4.495-23.943,9.168c0.646,1.684,1.932,1.781,17.605,1.329
					C3572.391,242.323,3574.726,242.026,3577.089,240.263L3577.089,240.263z M2412.274,233.524c0-4.964-27.904-10.624-41.25-1.329
					c-5.987,4.17-2.014,7.029,8.75,6.298C2403.712,236.868,2412.274,237,2412.274,233.524z M3365.073,232.774
					c1.368-1.368,1.579-6.655,0.343-8.603c-1.078-1.699-10.487-4.098-21.043-5.366c-13.4-1.609-31.743,2.443-33.05,3.143
					c-2.3,1.231-3.778,7.444-2.219,9.323c0.853,1.027,3.445,1.039,13.363,0.06c12.09-1.194,24.758-0.597,33.805,1.592
					C3361.397,234.162,3363.723,234.123,3365.073,232.774L3365.073,232.774z M3422.482,232.846
					c9.034,1.285,10.305,0.961,11.679-2.98c1.354-3.883,0.604-5.525-3.117-6.822c-5.628-1.962-37.527-1.019-48.41,1.431
					c-2.383,0.537-3.815,4.491-2.793,7.712c0.595,1.875,1.195,1.992,7.29,1.421C3397.189,232.666,3412.709,231.455,3422.482,232.846
					z M3294.026,231.821c3.012-3.013-4.167-12.938-45.897-11.641c-16.438,0.511-19.161,1.621-18.663,7.604
					c0.283,3.4,0.542,3.679,3.307,3.555c8.78-0.394,9.053-2.932,32-2.026c12.517,0.494,17.306,1.108,27.55,3.531
					C3292.625,232.915,3293.392,232.455,3294.026,231.821L3294.026,231.821z M2462.034,226.379
					c10.295-1.686,20.721-1.523,38.135,0.595c5.168,0.629,10.397,0.892,11.62,0.585c4.578-1.149,3.951-15.102-0.8-17.818
					c-3.336-1.908-58.754-1.812-61.063,0.105c-1.24,1.03-1.653,3.068-1.653,8.168c0,7.692,0.596,9.959,2.618,9.959
					C2451.664,227.974,2456.678,227.256,2462.034,226.379L2462.034,226.379z M3538.791,225.488
					c8.583-1.943,15.131-2.629,29.982-3.143c21.471-0.742,19.818-0.484,40.816,3.956l1.688-2.085
					c2.086-2.576,3.22-14.48,2.133-22.392c-0.946-6.888-3.214-10.567-7.661-12.425c-18.821-7.864-77.1-4.676-80.98,8.346
					c-0.958,3.217-0.405,3.605,1.128,26.029c0.076,1.115,0.17,2.285,0.778,3.223
					C3528.702,230.122,3536.052,226.108,3538.791,225.488z M2378.766,219.303c9.747-1.491,13.304-1.545,31.388-0.476
					c18.75,1.109,20.545,1.07,22.257-0.479c4.462-4.038,1.431-6.532-10.138-8.343c-8.44-1.321-17.826-1.296-37.5,0.1
					c-17.662,1.253-20.5,2.184-20.5,6.724C2364.273,221.656,2363.854,221.585,2378.766,219.303L2378.766,219.303z M2325.273,209.474
					c0-0.833-0.889-1.5-2-1.5c-2.213,0-2.71,1.547-0.75,2.338C2324.699,211.19,2325.273,211.015,2325.273,209.474z
					 M2386.773,201.425c15.024-0.662,19.794-1.688,22.388-4.815c1.197-1.443,1.145-1.942-0.373-3.619
					c-3.429-3.789-10.237-5.491-22.015-5.505c-9.902-0.011-11.434,0.236-15.348,2.477c-4.412,2.526-7.152,6.31-7.152,9.878
					c0,2.321,1.558,3.138,5,2.621C2370.648,202.255,2378.523,201.789,2386.773,201.425z M2325.156,198.974c-1.303,0-0.099,2,1.236,2
					C2327.695,200.974,2326.491,198.974,2325.156,198.974z M2486.717,197.989c7.121-1.166,9.265-2.822,7.625-5.888
					c-1.952-3.647-6.743-5.299-16.967-5.849c-12.499-0.673-17.229,0.575-20.159,5.315c-2.509,4.059-1.94,5.193,3.215,6.412
					C2465.25,199.118,2479.788,199.124,2486.717,197.989L2486.717,197.989z M2433.559,173.432c0.985-7.47,0.146-13.758-2.109-15.798
					c-7.207-6.522-62.682-10.095-65.741-0.457c-0.412,1.299-1.727,19.381,0.762,21.197c1.884,1.374,36.392,1.055,66.302,1.015
					L2433.559,173.432L2433.559,173.432z M2492.774,178.819c9.516,0.549,16.392,0.557,16.968,0.02
					c1.316-1.227,1.865-13.43,0.826-18.366c-1.185-5.63-4.8-7.167-20.154-8.568c-13.935-1.272-31.072-0.112-37.398,2.531
					l-3.742,1.564c0,2.554-0.205,22.434,0.702,23.342c0.901,0.901,2.62-0.1,16.298-0.861
					C2467.174,178.481,2477.342,177.929,2492.774,178.819z"/>
			</g>
		</g>
		<g id="layer2" transform="translate(-1728.1659,-652.67805)">
		</g>
	</g>
</g>
</svg>
