<svg width="12.718mm" height="11.215mm" version="1.1" viewBox="0 0 12.718 11.215" xmlns="http://www.w3.org/2000/svg"><g transform="translate(-55.197 -46.841)"><g transform="translate(-.34734 -.10464)" fill="#46788d" fill-opacity=".99216" stroke-width=".26458" aria-label="i"><path d="m62.78 53.885-0.06201 0.32039q-0.75448 0.8096-1.3539 0.8096-0.49609 0-0.49609-0.52021 0-0.1757 0.07924-0.57878l0.23771-1.1989q0.09646-0.50988 0.09646-0.67868 0-0.28939-0.22393-0.28939-0.15503 0-0.55466 0.12058l0.04134-0.2136 1.6847-0.55122-0.26183 1.1024-0.33762 1.7019q-0.07924 0.39963-0.07924 0.50987 0 0.22393 0.20326 0.22393 0.34106 0 1.0266-0.75792zm-1.2644-3.3796 0.23082-0.46853 0.97152-0.6339-0.29628 0.6339z" fill="#46788d" fill-opacity=".99216"/></g><path transform="matrix(.27814 0 0 .27591 -3.1551 -2.246)" d="m244.32 216.46-11.175-7.4206-10.45 8.4099 0.83918-13.388-12.508-4.8453 12.014-5.9671-2.058-13.255 11.175 7.4206 10.45-8.4099-0.83919 13.388 12.508 4.8453-12.014 5.9671z" fill="none" opacity=".99" stroke="#46788d" stroke-linecap="round"/></g></svg>
