<svg id="alpheios-logo-svg" width="297.43" height="49.605" version="1.1" viewBox="0 0 78.695 13.125" xmlns="http://www.w3.org/2000/svg"><g transform="translate(-5.2519 -6.3219)"><path d="m19.741 12.573c0 3.2482-1.4388 6.3173-6.082 6.3173-4.6433-1e-6 -8.4074-2.7113-8.4074-5.9596 0-4.232 3.7641-6.6091 8.4074-6.6091 4.6433 1e-6 6.082 3.0031 6.082 6.2513z" fill="#bce5f0"/><path d="m72.68 16.586c-1.2138-0.44369-2.1167-1.6527-2.1167-2.8342 0-1.6577 0.55482-2.5342 1.9816-3.1303 2.3878-0.99771 5.074 0.47228 5.074 2.7767 0 2.3095-2.6545 4.0228-4.9389 3.1877zm2.8222-1.162c0.79564-0.79564 0.89806-1.7973 0.29997-2.9336-0.52862-1.0043-0.98445-1.2877-2.0815-1.2943-1.2435-0.0075-1.7462 0.61326-1.7462 2.1562 0 1.0004 0.22237 1.4899 0.92952 2.0461 1.162 0.91402 1.7045 0.91936 2.5983 0.02561zm-2.0345-1.495c-0.25564-0.31257-0.2262-0.57234 0.0987-0.8714 0.36275-0.33386 0.54692-0.3249 0.85091 0.04139 0.28691 0.3457 0.26118 0.57268-0.0987 0.8714-0.36823 0.30561-0.57536 0.29553-0.85091-0.04139zm6.8852 2.6753c-0.33954-0.09555-0.61736-0.50993-0.61736-0.92084 0-0.70124 0.0283-0.70842 0.46074-0.11702 0.56868 0.77771 2.1309 0.6331 2.292-0.21216 0.0734-0.38502-0.39774-0.92197-1.3193-1.5037-1.407-0.88823-1.8127-1.8914-1.1634-2.8769 0.71462-1.0848 3.6106-0.75599 3.6106 0.40989 0 0.51149-0.0525 0.51057-0.57314-0.01004-0.66049-0.66049-2.0727-0.58512-2.0727 0.11062 0 0.2584 0.635 0.89985 1.4111 1.4254 1.5115 1.0236 2.0137 2.4271 1.1307 3.1599-0.58806 0.48804-2.2973 0.77742-3.1592 0.53486zm-54.212-1.8624c0.3206-2.0281 0.65416-2.7306 1.8091-3.8106 0.77994-0.72927 0.90182-0.74754 1.6219-0.24317 1.004 0.7032 1.7801 2.2223 2.1517 4.2115 0.29163 1.561 0.28249 1.5827-0.66819 1.5827-0.8379 0-0.94184-0.11526-0.79528-0.88194 0.15836-0.8284 0.0779-0.88194-1.3248-0.88194-1.4027 0-1.4831 0.05355-1.3248 0.88194 0.14631 0.76538 0.0421 0.88194-0.78814 0.88194-0.94834 0-0.95431-0.01525-0.6816-1.7404zm4.2056-0.74035c0-0.68374-1.0216-2.8109-1.3499-2.8109-0.53392 0-1.1 0.87247-1.3379 2.0621-0.22096 1.1048-0.21198 1.1129 1.2326 1.1129 0.80036 0 1.4552-0.16385 1.4552-0.36411zm4.8803-0.0043c0.0752-1.5865-0.0363-2.6722-0.30777-2.9994-0.35792-0.43126-0.23644-0.5129 0.76415-0.5136l1.1897-8.22e-4 -0.11607 2.6467-0.11606 2.6467h1.2451c0.81361 0 1.3697-0.21394 1.6046-0.61736 0.47328-0.81257 0.48743-0.2406 0.0158 0.64055-0.29556 0.55226-0.74958 0.68252-2.3812 0.68316l-2.0161 8.11e-4 0.11779-2.4866zm6.585-0.51357v-2.9986h1.9738c2.3596 0 3.4783 0.82817 2.8087 2.0792-0.4691 0.87652-1.4613 1.4485-2.5124 1.4485-0.68858 0-0.75258 0.13754-0.57453 1.2347 0.18734 1.1545 0.13877 1.2347-0.7476 1.2347h-0.94795zm3.1498-0.37798c0.69943-0.69943 0.69653-1.017-0.0157-1.7292-0.72695-0.72694-1.3378-0.52768-1.4863 0.48481-0.24296 1.657 0.48569 2.2607 1.502 1.2444zm4.0116 2.9533c0.51892-0.51891 0.55975-3.9543 0.0581-4.8915-0.32912-0.61496-0.2417-0.68236 0.88494-0.68236 1.1323 0 1.2113 0.06212 0.83868 0.65882-0.67 1.0728-0.1342 1.8106 1.3149 1.8106 1.2602 0 1.2817-0.02331 1.1402-1.2347-0.14092-1.2071-0.1161-1.2346 1.1079-1.2293 0.81958 0.0035 1.0895 0.10844 0.78151 0.30369-0.34329 0.21762-0.4387 1.0274-0.35277 2.994 0.11705 2.6791 0.11226 2.6957-0.77349 2.6949-0.82695-7.76e-4 -0.88155-0.10265-0.75669-1.4119l0.13457-1.4111h-1.4482c-1.3509 0-1.4482 0.06634-1.4482 0.98778 0 0.54328 0.1905 1.1783 0.42333 1.4111 0.32926 0.32926 0.11759 0.42333-0.9525 0.42333s-1.2818-0.09407-0.9525-0.42333zm9.4192-2.5753v-2.9986h2.2049c2.0596 0 2.203 0.0523 2.177 0.79375-0.0153 0.43656-0.10792 0.59531-0.20578 0.35278-0.0979-0.24253-0.72034-0.44097-1.3833-0.44097-1.0594 0-1.2053 0.1098-1.2053 0.90719 0 0.72466 0.15971 0.89425 0.79375 0.8429 1.3136-0.10641 1.7289-0.0049 1.4993 0.36658-0.11992 0.19403-0.68491 0.35278-1.2556 0.35278-0.9176 0-1.0375 0.12231-1.0375 1.0583 0 0.96212 0.10583 1.0583 1.1642 1.0583 0.64029 0 1.3458-0.18162 1.5678-0.4036 0.30294-0.30294 0.35427-0.21496 0.2058 0.35278-0.17511 0.6696-0.44603 0.75637-2.3615 0.75637h-2.1637zm7.5261 0.30451c0.0859-1.9667-9e-3 -2.7764-0.35278-2.994-0.30874-0.19571-0.046-0.30014 0.76416-0.30369l1.2347-0.0054v2.9986c0 2.9631-0.0104 2.9986-0.88194 2.9994-0.87413 8.12e-4 -0.8809-0.02306-0.76416-2.6949zm0.216-4.745c-0.36355-0.58823 0.45409-1.2628 0.94076-0.77611 0.40707 0.40708 0.1523 1.1596-0.3926 1.1596-0.17113 0-0.4178-0.17258-0.54816-0.38352z" stroke-width=".35278"/><path d="m15.135 18.915c-0.0141-0.25487 6e-3 -0.78361 0.0447-1.175 0.0653-0.66085-0.15008-0.7618-3.0204-1.4155-3.0603-0.69693-3.0977-0.71668-3.7984-2.0051-0.81196-1.493-0.56609-4.266 0.47686-5.3784 1.5215-1.6228 7.2178-1.0823 8.6414 0.81999 0.36972 0.494 0.74025 1.415 0.82342 2.0467 0.17937 1.3624 0.18343 1.3641 2.6715 1.08 1.0707-0.12223 2.0054-0.12044 2.0772 4e-3 0.11664 0.20202-1.2207 0.46127-3.6726 0.71197-0.86912 0.08886-1.2132 0.54076-0.76997 1.0114 0.23088 0.24516 2.4584 0.26534 4.2009 0.03805 0.50737-0.06618 0.61975 0.0041 0.37513 0.23443-0.19209 0.1809-1.2468 0.34786-2.3439 0.37102-2.1681 0.04578-2.5164 0.19318-2.2841 0.96662 0.17894 0.5958 2.7092 0.72769 4.2914 0.2236 0.51319-0.1635 0.98921-0.20005 1.0578-0.08124 0.22428 0.38846-1.8867 0.89163-3.6654 0.87365-1.5208-0.01537-1.7581 0.08946-1.8798 0.8307-0.13929 0.84786-0.13939 0.84786-0.26056-0.0059-0.1795-1.2648-0.87851-1.2655-1.0259-9.81e-4 -0.0682 0.58435-0.23847 1.0318-0.37855 0.99424-0.14007-0.03753-0.23244-0.55533-0.20528-1.1507 0.0759-1.6627-0.63824-1.5329-0.81235 0.14755-0.13818 1.3338-0.48641 1.8845-0.54306 0.85885zm-0.4378-2.8132c1.4346-0.03001 0.30155-0.74136-1.7346-1.089-2.0329-0.34706-2.2146-0.44633-2.8565-1.5605-0.9236-1.6031-0.4987-3.2554 1.0026-3.8985 0.79555-0.34078 1.5815-0.33318 2.9308 0.02835 1.891 0.50669 2.6025 1.2391 3.118 3.2097 0.34629 1.3238 0.82984 0.21038 0.51017-1.1747-0.44357-1.9219-2.0315-2.9399-4.8325-3.0977-2.5727-0.14501-4.0244 0.5647-4.4547 2.1777-0.36375 1.3653 0.21942 3.5363 1.1436 4.2546 0.63516 0.49373 3.7238 1.1804 5.1732 1.1501zm1.7843-0.20436c0.0753-0.28112-0.0164-0.55222-0.2038-0.60244-0.18741-0.05022-0.40239 0.13871-0.47771 0.41983-0.0753 0.28112 0.0164 0.55222 0.20379 0.60244 0.18742 0.05022 0.40239-0.1387 0.47772-0.41983zm1.4543 0.02446c0.0753-0.28112-0.0164-0.55222-0.20379-0.60244-0.18742-0.05022-0.40239 0.1387-0.47772 0.41983-0.0753 0.28112 0.0164 0.55222 0.2038 0.60244 0.18741 0.05022 0.40238-0.13871 0.47771-0.41983zm-3.1661-1.2519c1.1224-0.11784 0.40402-0.67769-1.1749-0.9156-2.4541-0.3698-3.1707-2.1993-1.1497-2.9353 1.6366-0.59593 3.289 0.4751 3.4278 2.2217 0.0224 0.28221 0.17675 0.44155 0.34292 0.35409 0.55406-0.29159-0.20724-2.5403-1.0115-2.9877-1.7508-0.97403-4.7873-0.50058-5.136 0.80079-0.0686 0.25585 0.0849 0.95437 0.34102 1.5523 0.3886 0.90719 0.73892 1.1603 2.1168 1.5295 0.90816 0.24334 1.9177 0.41445 2.2435 0.38025zm1.7819-0.39732c0.0502-0.18742-0.062-0.38184-0.24944-0.43206-0.18742-0.05022-0.38185 0.06204-0.43207 0.24945-0.0502 0.18742 0.062 0.38184 0.24946 0.43206 0.1874 0.05022 0.38183-0.06204 0.43205-0.24945zm-2.3938-0.87662c0.59717 5.8e-5 0.86711-0.21726 0.93135-0.74982 0.0749-0.6207-0.14356-0.81261-1.2679-1.1139-1.0586-0.28365-1.4235-0.22988-1.6534 0.24365-0.46749 0.96272 0.33972 1.6199 1.99 1.62zm3.8481 0.90109c0.0502-0.18742-0.062-0.38184-0.24945-0.43206-0.18742-0.05022-0.38185 0.06204-0.43206 0.24945-0.0502 0.18742 0.062 0.38184 0.24945 0.43206 0.18742 0.05022 0.38185-0.06203 0.43206-0.24945z" stroke-width=".35278"/></g></svg>
